<svg width="377" height="205" viewBox="0 0 377 205" fill="none" xmlns="http://www.w3.org/2000/svg">
<path fill-rule="evenodd" clip-rule="evenodd" d="M6.5 5C6.22386 5 6 5.22386 6 5.5C6 5.22386 5.77614 5 5.5 5C5.22386 5 5 5.22386 5 5.5C5 5.22386 4.77614 5 4.5 5C4.22386 5 4 5.22386 4 5.5C4 5.22386 3.77614 5 3.5 5C3.22386 5 3 5.22386 3 5.5C3 5.77614 3.22386 6 3.5 6C3.77614 6 4 5.77614 4 5.5C4 5.77614 4.22386 6 4.5 6C4.77614 6 5 5.77614 5 5.5C5 5.77614 5.22386 6 5.5 6C5.77614 6 6 5.77614 6 5.5C6 5.77614 6.22386 6 6.5 6C6.77614 6 7 5.77614 7 5.5C7 5.22386 6.77614 5 6.5 5ZM2 6.5C2 6.22386 2.22386 6 2.5 6C2.77614 6 3 6.22386 3 6.5C3 6.77614 2.77614 7 2.5 7C2.22386 7 2 6.77614 2 6.5ZM2.5 8C2.22386 8 2 7.77614 2 7.5C2 7.22386 2.22386 7 2.5 7C2.77614 7 3 7.22386 3 7.5C3 7.77614 2.77614 8 2.5 8ZM2.5 9C2.22386 9 2 8.77614 2 8.5C2 8.22386 2.22386 8 2.5 8C2.77614 8 3 8.22386 3 8.5C3 8.77614 2.77614 9 2.5 9ZM2.5 9C2.77614 9 3 9.22386 3 9.5C3 9.77614 2.77614 10 2.5 10C2.22386 10 2 9.77614 2 9.5C2 9.22386 2.22386 9 2.5 9ZM3.5 10C3.22386 10 3 10.2239 3 10.5C3 10.7761 3.22386 11 3.5 11C3.77614 11 4 10.7761 4 10.5C4 10.7761 4.22386 11 4.5 11C4.77614 11 5 10.7761 5 10.5C5 10.7761 5.22386 11 5.5 11C5.77614 11 6 10.7761 6 10.5C6 10.7761 6.22386 11 6.5 11C6.77614 11 7 10.7761 7 10.5C7 10.2239 6.77614 10 6.5 10C6.22386 10 6 10.2239 6 10.5C6 10.2239 5.77614 10 5.5 10C5.22386 10 5 10.2239 5 10.5C5 10.2239 4.77614 10 4.5 10C4.22386 10 4 10.2239 4 10.5C4 10.2239 3.77614 10 3.5 10ZM7.5 9C7.22386 9 7 9.22386 7 9.5C7 9.77614 7.22386 10 7.5 10C7.77614 10 8 9.77614 8 9.5C8 9.22386 7.77614 9 7.5 9ZM7.5 8C7.77614 8 8 8.22386 8 8.5C8 8.77614 7.77614 9 7.5 9C7.22386 9 7 8.77614 7 8.5C7 8.22386 7.22386 8 7.5 8ZM8 7.5C8 7.77614 7.77614 8 7.5 8C7.22386 8 7 7.77614 7 7.5C7 7.22386 7.22386 7 7.5 7C7.77614 7 8 7.22386 8 7.5ZM9 7.5C9 7.77614 8.77614 8 8.5 8C8.22386 8 8 7.77614 8 7.5C8 7.22386 8.22386 7 8.5 7C8.77614 7 9 7.22386 9 7.5ZM10 7.5C10 7.22386 9.77614 7 9.5 7C9.22386 7 9 7.22386 9 7.5C9 7.77614 9.22386 8 9.5 8C9.77614 8 10 7.77614 10 7.5ZM11 7.5C11 7.22386 10.7761 7 10.5 7C10.2239 7 10 7.22386 10 7.5C10 7.77614 10.2239 8 10.5 8C10.2239 8 10 8.22386 10 8.5C10 8.77614 10.2239 9 10.5 9C10.2239 9 10 9.22386 10 9.5C10 9.77614 10.2239 10 10.5 10C10.7761 10 11 9.77614 11 9.5C11 9.22386 10.7761 9 10.5 9C10.7761 9 11 8.77614 11 8.5C11 8.22386 10.7761 8 10.5 8C10.7761 8 11 7.77614 11 7.5ZM12 7.5C12 7.22386 11.7761 7 11.5 7C11.2239 7 11 7.22386 11 7.5C11 7.77614 11.2239 8 11.5 8C11.7761 8 12 7.77614 12 7.5ZM13 7.5C13 7.77614 12.7761 8 12.5 8C12.2239 8 12 7.77614 12 7.5C12 7.22386 12.2239 7 12.5 7C12.7761 7 13 7.22386 13 7.5ZM13.5 8C13.7761 8 14 7.77614 14 7.5C14 7.22386 13.7761 7 13.5 7C13.2239 7 13 7.22386 13 7.5C13 7.77614 13.2239 8 13.5 8ZM13.5 8C13.7761 8 14 8.22386 14 8.5C14 8.77614 13.7761 9 13.5 9C13.2239 9 13 8.77614 13 8.5C13 8.22386 13.2239 8 13.5 8ZM8 6.5C8 6.77614 7.77614 7 7.5 7C7.22386 7 7 6.77614 7 6.5C7 6.22386 7.22386 6 7.5 6C7.77614 6 8 6.22386 8 6.5Z" fill="#F8F8F8"/>
<path fill-rule="evenodd" clip-rule="evenodd" d="M52 129.5C52 129.224 52.2239 129 52.5 129C52.7761 129 53 129.224 53 129.5C53 129.776 52.7761 130 52.5 130C52.2239 130 52 129.776 52 129.5ZM54 129.5C54 129.776 53.7761 130 53.5 130C53.2239 130 53 129.776 53 129.5C53 129.224 53.2239 129 53.5 129C53.7761 129 54 129.224 54 129.5ZM55 129.5C55 129.776 54.7761 130 54.5 130C54.2239 130 54 129.776 54 129.5C54 129.224 54.2239 129 54.5 129C54.7761 129 55 129.224 55 129.5ZM55 129.5C55 129.224 55.2239 129 55.5 129C55.7761 129 56 129.224 56 129.5C56 129.776 55.7761 130 55.5 130C55.2239 130 55 129.776 55 129.5ZM51 130.5C51 130.224 51.2239 130 51.5 130C51.7761 130 52 130.224 52 130.5C52 130.776 51.7761 131 51.5 131C51.2239 131 51 130.776 51 130.5ZM51.5 132C51.2239 132 51 131.776 51 131.5C51 131.224 51.2239 131 51.5 131C51.7761 131 52 131.224 52 131.5C52 131.776 51.7761 132 51.5 132ZM52 132.5C52 132.224 51.7761 132 51.5 132C51.2239 132 51 132.224 51 132.5C51 132.224 50.7761 132 50.5 132C50.2239 132 50 132.224 50 132.5C50 132.776 50.2239 133 50.5 133C50.7761 133 51 132.776 51 132.5C51 132.776 51.2239 133 51.5 133C51.7761 133 52 132.776 52 132.5ZM53 132.5C53 132.776 52.7761 133 52.5 133C52.2239 133 52 132.776 52 132.5C52 132.224 52.2239 132 52.5 132C52.7761 132 53 132.224 53 132.5ZM54 132.5C54 132.776 53.7761 133 53.5 133C53.2239 133 53 132.776 53 132.5C53 132.224 53.2239 132 53.5 132C53.7761 132 54 132.224 54 132.5ZM55 132.5C55 132.776 54.7761 133 54.5 133C54.2239 133 54 132.776 54 132.5C54 132.224 54.2239 132 54.5 132C54.7761 132 55 132.224 55 132.5ZM56 132.5C56 132.776 55.7761 133 55.5 133C55.2239 133 55 132.776 55 132.5C55 132.224 55.2239 132 55.5 132C55.7761 132 56 132.224 56 132.5ZM56.5 132C56.2239 132 56 132.224 56 132.5C56 132.776 56.2239 133 56.5 133C56.7761 133 57 132.776 57 132.5C57 132.776 57.2239 133 57.5 133C57.7761 133 58 132.776 58 132.5C58 132.224 57.7761 132 57.5 132C57.2239 132 57 132.224 57 132.5C57 132.224 56.7761 132 56.5 132ZM56.5 131C56.7761 131 57 131.224 57 131.5C57 131.776 56.7761 132 56.5 132C56.2239 132 56 131.776 56 131.5C56 131.224 56.2239 131 56.5 131ZM56.5 131C56.2239 131 56 130.776 56 130.5C56 130.224 56.2239 130 56.5 130C56.7761 130 57 130.224 57 130.5C57 130.776 56.7761 131 56.5 131ZM49.5 133C49.2239 133 49 133.224 49 133.5C49 133.776 49.2239 134 49.5 134C49.2239 134 49 134.224 49 134.5C49 134.776 49.2239 135 49.5 135C49.2239 135 49 135.224 49 135.5C49 135.776 49.2239 136 49.5 136C49.2239 136 49 136.224 49 136.5C49 136.776 49.2239 137 49.5 137C49.2239 137 49 137.224 49 137.5C49 137.776 49.2239 138 49.5 138C49.7761 138 50 137.776 50 137.5C50 137.224 49.7761 137 49.5 137C49.7761 137 50 136.776 50 136.5C50 136.224 49.7761 136 49.5 136C49.7761 136 50 135.776 50 135.5C50 135.224 49.7761 135 49.5 135C49.7761 135 50 134.776 50 134.5C50 134.224 49.7761 134 49.5 134C49.7761 134 50 133.776 50 133.5C50 133.224 49.7761 133 49.5 133ZM58.5 133C58.2239 133 58 133.224 58 133.5C58 133.776 58.2239 134 58.5 134C58.2239 134 58 134.224 58 134.5C58 134.776 58.2239 135 58.5 135C58.2239 135 58 135.224 58 135.5C58 135.776 58.2239 136 58.5 136C58.2239 136 58 136.224 58 136.5C58 136.776 58.2239 137 58.5 137C58.2239 137 58 137.224 58 137.5C58 137.776 58.2239 138 58.5 138C58.7761 138 59 137.776 59 137.5C59 137.224 58.7761 137 58.5 137C58.7761 137 59 136.776 59 136.5C59 136.224 58.7761 136 58.5 136C58.7761 136 59 135.776 59 135.5C59 135.224 58.7761 135 58.5 135C58.7761 135 59 134.776 59 134.5C59 134.224 58.7761 134 58.5 134C58.7761 134 59 133.776 59 133.5C59 133.224 58.7761 133 58.5 133ZM50 138.5C50 138.224 50.2239 138 50.5 138C50.7761 138 51 138.224 51 138.5C51 138.776 50.7761 139 50.5 139C50.2239 139 50 138.776 50 138.5ZM52 138.5C52 138.776 51.7761 139 51.5 139C51.2239 139 51 138.776 51 138.5C51 138.224 51.2239 138 51.5 138C51.7761 138 52 138.224 52 138.5ZM53 138.5C53 138.776 52.7761 139 52.5 139C52.2239 139 52 138.776 52 138.5C52 138.224 52.2239 138 52.5 138C52.7761 138 53 138.224 53 138.5ZM54 138.5C54 138.776 53.7761 139 53.5 139C53.2239 139 53 138.776 53 138.5C53 138.224 53.2239 138 53.5 138C53.7761 138 54 138.224 54 138.5ZM55 138.5C55 138.776 54.7761 139 54.5 139C54.2239 139 54 138.776 54 138.5C54 138.224 54.2239 138 54.5 138C54.7761 138 55 138.224 55 138.5ZM56 138.5C56 138.776 55.7761 139 55.5 139C55.2239 139 55 138.776 55 138.5C55 138.224 55.2239 138 55.5 138C55.7761 138 56 138.224 56 138.5ZM57 138.5C57 138.776 56.7761 139 56.5 139C56.2239 139 56 138.776 56 138.5C56 138.224 56.2239 138 56.5 138C56.7761 138 57 138.224 57 138.5ZM57 138.5C57 138.224 57.2239 138 57.5 138C57.7761 138 58 138.224 58 138.5C58 138.776 57.7761 139 57.5 139C57.2239 139 57 138.776 57 138.5ZM54 136.5C54 136.224 54.2239 136 54.5 136C54.7761 136 55 136.224 55 136.5C55 136.776 54.7761 137 54.5 137C54.2239 137 54 136.776 54 136.5ZM53.5 136C53.2239 136 53 136.224 53 136.5C53 136.776 53.2239 137 53.5 137C53.7761 137 54 136.776 54 136.5C54 136.224 53.7761 136 53.5 136ZM54 135.5C54 135.776 53.7761 136 53.5 136C53.2239 136 53 135.776 53 135.5C53 135.224 53.2239 135 53.5 135C53.7761 135 54 135.224 54 135.5ZM54 135.5C54 135.224 54.2239 135 54.5 135C54.7761 135 55 135.224 55 135.5C55 135.776 54.7761 136 54.5 136C54.2239 136 54 135.776 54 135.5Z" fill="#F8F8F8"/>
<path fill-rule="evenodd" clip-rule="evenodd" d="M74 66.5C74 66.2239 74.2239 66 74.5 66C74.7761 66 75 66.2239 75 66.5C75 66.7761 74.7761 67 74.5 67C74.2239 67 74 66.7761 74 66.5ZM76 66.5C76 66.7761 75.7761 67 75.5 67C75.2239 67 75 66.7761 75 66.5C75 66.2239 75.2239 66 75.5 66C75.7761 66 76 66.2239 76 66.5ZM77 66.5C77 66.7761 76.7761 67 76.5 67C76.2239 67 76 66.7761 76 66.5C76 66.2239 76.2239 66 76.5 66C76.7761 66 77 66.2239 77 66.5ZM78 66.5C78 66.7761 77.7761 67 77.5 67C77.2239 67 77 66.7761 77 66.5C77 66.2239 77.2239 66 77.5 66C77.7761 66 78 66.2239 78 66.5ZM79 66.5C79 66.7761 78.7761 67 78.5 67C78.2239 67 78 66.7761 78 66.5C78 66.2239 78.2239 66 78.5 66C78.7761 66 79 66.2239 79 66.5ZM79 66.5C79 66.2239 79.2239 66 79.5 66C79.7761 66 80 66.2239 80 66.5C80 66.7761 79.7761 67 79.5 67C79.2239 67 79 66.7761 79 66.5ZM73 67.5C73 67.2239 73.2239 67 73.5 67C73.7761 67 74 67.2239 74 67.5C74 67.7761 73.7761 68 73.5 68C73.2239 68 73 67.7761 73 67.5ZM74.5 68C74.2239 68 74 68.2239 74 68.5C74 68.7761 74.2239 69 74.5 69C74.7761 69 75 68.7761 75 68.5C75 68.7761 75.2239 69 75.5 69C75.2239 69 75 69.2239 75 69.5C75 69.7761 75.2239 70 75.5 70C75.7761 70 76 69.7761 76 69.5C76 69.7761 76.2239 70 76.5 70C76.2239 70 76 70.2239 76 70.5C76 70.7761 76.2239 71 76.5 71C76.2239 71 76 71.2239 76 71.5C76 71.7761 76.2239 72 76.5 72C76.7761 72 77 71.7761 77 71.5C77 71.7761 77.2239 72 77.5 72C77.7761 72 78 71.7761 78 71.5C78 71.2239 77.7761 71 77.5 71C77.7761 71 78 70.7761 78 70.5C78 70.2239 77.7761 70 77.5 70C77.7761 70 78 69.7761 78 69.5C78 69.7761 78.2239 70 78.5 70C78.7761 70 79 69.7761 79 69.5C79 69.2239 78.7761 69 78.5 69C78.7761 69 79 68.7761 79 68.5C79 68.7761 79.2239 69 79.5 69C79.7761 69 80 68.7761 80 68.5C80 68.2239 79.7761 68 79.5 68C79.2239 68 79 68.2239 79 68.5C79 68.2239 78.7761 68 78.5 68C78.2239 68 78 68.2239 78 68.5C78 68.7761 78.2239 69 78.5 69C78.2239 69 78 69.2239 78 69.5C78 69.2239 77.7761 69 77.5 69C77.2239 69 77 69.2239 77 69.5C77 69.2239 76.7761 69 76.5 69C76.2239 69 76 69.2239 76 69.5C76 69.2239 75.7761 69 75.5 69C75.7761 69 76 68.7761 76 68.5C76 68.2239 75.7761 68 75.5 68C75.2239 68 75 68.2239 75 68.5C75 68.2239 74.7761 68 74.5 68ZM77 69.5C77 69.7761 76.7761 70 76.5 70C76.7761 70 77 70.2239 77 70.5C77 70.7761 76.7761 71 76.5 71C76.7761 71 77 71.2239 77 71.5C77 71.2239 77.2239 71 77.5 71C77.2239 71 77 70.7761 77 70.5C77 70.2239 77.2239 70 77.5 70C77.2239 70 77 69.7761 77 69.5ZM74.5 73C74.2239 73 74 73.2239 74 73.5C74 73.7761 74.2239 74 74.5 74C74.2239 74 74 74.2239 74 74.5C74 74.2239 73.7761 74 73.5 74C73.2239 74 73 74.2239 73 74.5C73 74.7761 73.2239 75 73.5 75C73.7761 75 74 74.7761 74 74.5C74 74.7761 74.2239 75 74.5 75C74.2239 75 74 75.2239 74 75.5C74 75.7761 74.2239 76 74.5 76C74.7761 76 75 75.7761 75 75.5C75 75.7761 75.2239 76 75.5 76C75.7761 76 76 75.7761 76 75.5C76 75.7761 76.2239 76 76.5 76C76.7761 76 77 75.7761 77 75.5C77 75.7761 77.2239 76 77.5 76C77.7761 76 78 75.7761 78 75.5C78 75.7761 78.2239 76 78.5 76C78.7761 76 79 75.7761 79 75.5C79 75.7761 79.2239 76 79.5 76C79.7761 76 80 75.7761 80 75.5C80 75.2239 79.7761 75 79.5 75C79.7761 75 80 74.7761 80 74.5C80 74.7761 80.2239 75 80.5 75C80.7761 75 81 74.7761 81 74.5C81 74.2239 80.7761 74 80.5 74C80.2239 74 80 74.2239 80 74.5C80 74.2239 79.7761 74 79.5 74C79.7761 74 80 73.7761 80 73.5C80 73.2239 79.7761 73 79.5 73C79.2239 73 79 73.2239 79 73.5C79 73.7761 79.2239 74 79.5 74C79.2239 74 79 74.2239 79 74.5C79 74.2239 78.7761 74 78.5 74C78.2239 74 78 74.2239 78 74.5C78 74.2239 77.7761 74 77.5 74C77.2239 74 77 74.2239 77 74.5C77 74.2239 76.7761 74 76.5 74C76.2239 74 76 74.2239 76 74.5C76 74.2239 75.7761 74 75.5 74C75.2239 74 75 74.2239 75 74.5C75 74.2239 74.7761 74 74.5 74C74.7761 74 75 73.7761 75 73.5C75 73.2239 74.7761 73 74.5 73ZM75.5 75C75.7761 75 76 75.2239 76 75.5C76 75.2239 76.2239 75 76.5 75C76.7761 75 77 75.2239 77 75.5C77 75.2239 77.2239 75 77.5 75C77.7761 75 78 75.2239 78 75.5C78 75.2239 78.2239 75 78.5 75C78.7761 75 79 75.2239 79 75.5C79 75.2239 79.2239 75 79.5 75C79.2239 75 79 74.7761 79 74.5C79 74.7761 78.7761 75 78.5 75C78.2239 75 78 74.7761 78 74.5C78 74.7761 77.7761 75 77.5 75C77.2239 75 77 74.7761 77 74.5C77 74.7761 76.7761 75 76.5 75C76.2239 75 76 74.7761 76 74.5C76 74.7761 75.7761 75 75.5 75ZM75.5 75C75.2239 75 75 74.7761 75 74.5C75 74.7761 74.7761 75 74.5 75C74.7761 75 75 75.2239 75 75.5C75 75.2239 75.2239 75 75.5 75ZM75.5 72C75.2239 72 75 72.2239 75 72.5C75 72.7761 75.2239 73 75.5 73C75.7761 73 76 72.7761 76 72.5C76 72.2239 75.7761 72 75.5 72ZM78.5 72C78.2239 72 78 72.2239 78 72.5C78 72.7761 78.2239 73 78.5 73C78.7761 73 79 72.7761 79 72.5C79 72.2239 78.7761 72 78.5 72ZM80 67.5C80 67.2239 80.2239 67 80.5 67C80.7761 67 81 67.2239 81 67.5C81 67.7761 80.7761 68 80.5 68C80.2239 68 80 67.7761 80 67.5Z" fill="#F8F8F8"/>
<path fill-rule="evenodd" clip-rule="evenodd" d="M51 193.5C51 193.224 51.2239 193 51.5 193C51.7761 193 52 193.224 52 193.5C52 193.776 51.7761 194 51.5 194C51.2239 194 51 193.776 51 193.5ZM52 194.5C52 194.224 51.7761 194 51.5 194C51.2239 194 51 194.224 51 194.5C51 194.224 50.7761 194 50.5 194C50.2239 194 50 194.224 50 194.5C50 194.776 50.2239 195 50.5 195C50.2239 195 50 195.224 50 195.5C50 195.224 49.7761 195 49.5 195C49.2239 195 49 195.224 49 195.5C49 195.776 49.2239 196 49.5 196C49.2239 196 49 196.224 49 196.5C49 196.776 49.2239 197 49.5 197C49.2239 197 49 197.224 49 197.5C49 197.776 49.2239 198 49.5 198C49.7761 198 50 197.776 50 197.5C50 197.776 50.2239 198 50.5 198C50.2239 198 50 198.224 50 198.5C50 198.776 50.2239 199 50.5 199C50.7761 199 51 198.776 51 198.5C51 198.776 51.2239 199 51.5 199C51.2239 199 51 199.224 51 199.5C51 199.776 51.2239 200 51.5 200C51.7761 200 52 199.776 52 199.5C52 199.776 52.2239 200 52.5 200C52.2239 200 52 200.224 52 200.5C52 200.776 52.2239 201 52.5 201C52.7761 201 53 200.776 53 200.5C53 200.776 53.2239 201 53.5 201C53.2239 201 53 201.224 53 201.5C53 201.776 53.2239 202 53.5 202C53.7761 202 54 201.776 54 201.5C54 201.776 54.2239 202 54.5 202C54.7761 202 55 201.776 55 201.5C55 201.224 54.7761 201 54.5 201C54.7761 201 55 200.776 55 200.5C55 200.776 55.2239 201 55.5 201C55.7761 201 56 200.776 56 200.5C56 200.224 55.7761 200 55.5 200C55.7761 200 56 199.776 56 199.5C56 199.776 56.2239 200 56.5 200C56.7761 200 57 199.776 57 199.5C57 199.224 56.7761 199 56.5 199C56.7761 199 57 198.776 57 198.5C57 198.776 57.2239 199 57.5 199C57.7761 199 58 198.776 58 198.5C58 198.224 57.7761 198 57.5 198C57.7761 198 58 197.776 58 197.5C58 197.776 58.2239 198 58.5 198C58.7761 198 59 197.776 59 197.5C59 197.224 58.7761 197 58.5 197C58.7761 197 59 196.776 59 196.5C59 196.224 58.7761 196 58.5 196C58.7761 196 59 195.776 59 195.5C59 195.224 58.7761 195 58.5 195C58.2239 195 58 195.224 58 195.5C58 195.224 57.7761 195 57.5 195C57.7761 195 58 194.776 58 194.5C58 194.224 57.7761 194 57.5 194C57.2239 194 57 194.224 57 194.5C57 194.224 56.7761 194 56.5 194C56.7761 194 57 193.776 57 193.5C57 193.224 56.7761 193 56.5 193C56.2239 193 56 193.224 56 193.5C56 193.224 55.7761 193 55.5 193C55.2239 193 55 193.224 55 193.5C55 193.776 55.2239 194 55.5 194C55.2239 194 55 194.224 55 194.5C55 194.224 54.7761 194 54.5 194C54.2239 194 54 194.224 54 194.5C54 194.224 53.7761 194 53.5 194C53.2239 194 53 194.224 53 194.5C53 194.224 52.7761 194 52.5 194C52.7761 194 53 193.776 53 193.5C53 193.224 52.7761 193 52.5 193C52.2239 193 52 193.224 52 193.5C52 193.776 52.2239 194 52.5 194C52.2239 194 52 194.224 52 194.5ZM52.5 195C52.7761 195 53 194.776 53 194.5C53 194.776 53.2239 195 53.5 195C53.2239 195 53 195.224 53 195.5C53 195.224 52.7761 195 52.5 195ZM52 195.5C52 195.224 52.2239 195 52.5 195C52.2239 195 52 194.776 52 194.5C52 194.776 51.7761 195 51.5 195C51.2239 195 51 194.776 51 194.5C51 194.776 50.7761 195 50.5 195C50.7761 195 51 195.224 51 195.5C51 195.776 50.7761 196 50.5 196C50.2239 196 50 195.776 50 195.5C50 195.776 49.7761 196 49.5 196C49.7761 196 50 196.224 50 196.5C50 196.776 49.7761 197 49.5 197C49.7761 197 50 197.224 50 197.5C50 197.224 50.2239 197 50.5 197C50.7761 197 51 197.224 51 197.5C51 197.776 50.7761 198 50.5 198C50.7761 198 51 198.224 51 198.5C51 198.224 51.2239 198 51.5 198C51.7761 198 52 198.224 52 198.5C52 198.776 51.7761 199 51.5 199C51.7761 199 52 199.224 52 199.5C52 199.224 52.2239 199 52.5 199C52.7761 199 53 199.224 53 199.5C53 199.776 52.7761 200 52.5 200C52.7761 200 53 200.224 53 200.5C53 200.224 53.2239 200 53.5 200C53.7761 200 54 200.224 54 200.5C54 200.776 53.7761 201 53.5 201C53.7761 201 54 201.224 54 201.5C54 201.224 54.2239 201 54.5 201C54.2239 201 54 200.776 54 200.5C54 200.224 54.2239 200 54.5 200C54.7761 200 55 200.224 55 200.5C55 200.224 55.2239 200 55.5 200C55.2239 200 55 199.776 55 199.5C55 199.224 55.2239 199 55.5 199C55.7761 199 56 199.224 56 199.5C56 199.224 56.2239 199 56.5 199C56.2239 199 56 198.776 56 198.5C56 198.224 56.2239 198 56.5 198C56.7761 198 57 198.224 57 198.5C57 198.224 57.2239 198 57.5 198C57.2239 198 57 197.776 57 197.5C57 197.224 57.2239 197 57.5 197C57.7761 197 58 197.224 58 197.5C58 197.224 58.2239 197 58.5 197C58.2239 197 58 196.776 58 196.5C58 196.224 58.2239 196 58.5 196C58.2239 196 58 195.776 58 195.5C58 195.776 57.7761 196 57.5 196C57.2239 196 57 195.776 57 195.5C57 195.224 57.2239 195 57.5 195C57.2239 195 57 194.776 57 194.5C57 194.776 56.7761 195 56.5 195C56.2239 195 56 194.776 56 194.5C56 194.224 56.2239 194 56.5 194C56.2239 194 56 193.776 56 193.5C56 193.776 55.7761 194 55.5 194C55.7761 194 56 194.224 56 194.5C56 194.776 55.7761 195 55.5 195C55.2239 195 55 194.776 55 194.5C55 194.776 54.7761 195 54.5 195C54.2239 195 54 194.776 54 194.5C54 194.776 53.7761 195 53.5 195C53.7761 195 54 195.224 54 195.5C54 195.776 53.7761 196 53.5 196C53.2239 196 53 195.776 53 195.5C53 195.776 52.7761 196 52.5 196C52.2239 196 52 195.776 52 195.5ZM51.5 196C51.7761 196 52 195.776 52 195.5C52 195.224 51.7761 195 51.5 195C51.2239 195 51 195.224 51 195.5C51 195.776 51.2239 196 51.5 196ZM52 196.5C52 196.224 52.2239 196 52.5 196C52.7761 196 53 196.224 53 196.5C53 196.776 52.7761 197 52.5 197C52.2239 197 52 196.776 52 196.5ZM51.5 197C51.7761 197 52 196.776 52 196.5C52 196.224 51.7761 196 51.5 196C51.2239 196 51 196.224 51 196.5C51 196.224 50.7761 196 50.5 196C50.2239 196 50 196.224 50 196.5C50 196.776 50.2239 197 50.5 197C50.7761 197 51 196.776 51 196.5C51 196.776 51.2239 197 51.5 197ZM52 197.5C52 197.224 52.2239 197 52.5 197C52.7761 197 53 197.224 53 197.5C53 197.776 52.7761 198 52.5 198C52.2239 198 52 197.776 52 197.5ZM53 198.5C53 198.224 52.7761 198 52.5 198C52.2239 198 52 198.224 52 198.5C52 198.776 52.2239 199 52.5 199C52.7761 199 53 198.776 53 198.5ZM53.5 198C53.2239 198 53 197.776 53 197.5C53 197.224 53.2239 197 53.5 197C53.7761 197 54 197.224 54 197.5C54 197.776 53.7761 198 53.5 198ZM54 198.5C54 198.224 53.7761 198 53.5 198C53.2239 198 53 198.224 53 198.5C53 198.776 53.2239 199 53.5 199C53.2239 199 53 199.224 53 199.5C53 199.776 53.2239 200 53.5 200C53.7761 200 54 199.776 54 199.5C54 199.776 54.2239 200 54.5 200C54.7761 200 55 199.776 55 199.5C55 199.224 54.7761 199 54.5 199C54.7761 199 55 198.776 55 198.5C55 198.776 55.2239 199 55.5 199C55.7761 199 56 198.776 56 198.5C56 198.224 55.7761 198 55.5 198C55.7761 198 56 197.776 56 197.5C56 197.776 56.2239 198 56.5 198C56.7761 198 57 197.776 57 197.5C57 197.224 56.7761 197 56.5 197C56.7761 197 57 196.776 57 196.5C57 196.776 57.2239 197 57.5 197C57.7761 197 58 196.776 58 196.5C58 196.224 57.7761 196 57.5 196C57.2239 196 57 196.224 57 196.5C57 196.224 56.7761 196 56.5 196C56.7761 196 57 195.776 57 195.5C57 195.224 56.7761 195 56.5 195C56.2239 195 56 195.224 56 195.5C56 195.224 55.7761 195 55.5 195C55.2239 195 55 195.224 55 195.5C55 195.224 54.7761 195 54.5 195C54.2239 195 54 195.224 54 195.5C54 195.776 54.2239 196 54.5 196C54.2239 196 54 196.224 54 196.5C54 196.224 53.7761 196 53.5 196C53.2239 196 53 196.224 53 196.5C53 196.776 53.2239 197 53.5 197C53.7761 197 54 196.776 54 196.5C54 196.776 54.2239 197 54.5 197C54.2239 197 54 197.224 54 197.5C54 197.776 54.2239 198 54.5 198C54.2239 198 54 198.224 54 198.5ZM55 197.5C55 197.776 55.2239 198 55.5 198C55.2239 198 55 198.224 55 198.5C55 198.224 54.7761 198 54.5 198C54.7761 198 55 197.776 55 197.5ZM55.5 197C55.7761 197 56 197.224 56 197.5C56 197.224 56.2239 197 56.5 197C56.2239 197 56 196.776 56 196.5C56 196.224 56.2239 196 56.5 196C56.2239 196 56 195.776 56 195.5C56 195.776 55.7761 196 55.5 196C55.2239 196 55 195.776 55 195.5C55 195.776 54.7761 196 54.5 196C54.7761 196 55 196.224 55 196.5C55 196.776 54.7761 197 54.5 197C54.7761 197 55 197.224 55 197.5C55 197.224 55.2239 197 55.5 197ZM55.5 197C55.2239 197 55 196.776 55 196.5C55 196.224 55.2239 196 55.5 196C55.7761 196 56 196.224 56 196.5C56 196.776 55.7761 197 55.5 197ZM54 198.5C54 198.776 54.2239 199 54.5 199C54.2239 199 54 199.224 54 199.5C54 199.224 53.7761 199 53.5 199C53.7761 199 54 198.776 54 198.5ZM52 197.5C52 197.776 51.7761 198 51.5 198C51.2239 198 51 197.776 51 197.5C51 197.224 51.2239 197 51.5 197C51.7761 197 52 197.224 52 197.5Z" fill="#F8F8F8"/>
<path fill-rule="evenodd" clip-rule="evenodd" d="M98.5 150C98.2239 150 98 150.224 98 150.5C98 150.776 98.2239 151 98.5 151C98.2239 151 98 151.224 98 151.5C98 151.224 97.7761 151 97.5 151C97.2239 151 97 151.224 97 151.5C97 151.776 97.2239 152 97.5 152C97.2239 152 97 152.224 97 152.5C97 152.224 96.7761 152 96.5 152C96.2239 152 96 152.224 96 152.5C96 152.776 96.2239 153 96.5 153C96.2239 153 96 153.224 96 153.5C96 153.776 96.2239 154 96.5 154C96.2239 154 96 154.224 96 154.5C96 154.776 96.2239 155 96.5 155C96.2239 155 96 155.224 96 155.5C96 155.776 96.2239 156 96.5 156C96.2239 156 96 156.224 96 156.5C96 156.776 96.2239 157 96.5 157C96.2239 157 96 157.224 96 157.5C96 157.776 96.2239 158 96.5 158C96.7761 158 97 157.776 97 157.5C97 157.224 96.7761 157 96.5 157C96.7761 157 97 156.776 97 156.5C97 156.224 96.7761 156 96.5 156C96.7761 156 97 155.776 97 155.5C97 155.224 96.7761 155 96.5 155C96.7761 155 97 154.776 97 154.5C97 154.224 96.7761 154 96.5 154C96.7761 154 97 153.776 97 153.5C97 153.776 97.2239 154 97.5 154C97.7761 154 98 153.776 98 153.5C98 153.776 98.2239 154 98.5 154C98.2239 154 98 154.224 98 154.5C98 154.776 98.2239 155 98.5 155C98.7761 155 99 154.776 99 154.5C99 154.776 99.2239 155 99.5 155C99.2239 155 99 155.224 99 155.5C99 155.776 99.2239 156 99.5 156C99.2239 156 99 156.224 99 156.5C99 156.776 99.2239 157 99.5 157C99.7761 157 100 156.776 100 156.5C100 156.224 99.7761 156 99.5 156C99.7761 156 100 155.776 100 155.5C100 155.776 100.224 156 100.5 156C100.776 156 101 155.776 101 155.5C101 155.224 100.776 155 100.5 155C100.776 155 101 154.776 101 154.5C101 154.224 100.776 154 100.5 154C100.776 154 101 153.776 101 153.5C101 153.224 100.776 153 100.5 153C100.776 153 101 152.776 101 152.5C101 152.224 100.776 152 100.5 152C100.224 152 100 152.224 100 152.5C100 152.224 99.7761 152 99.5 152C99.2239 152 99 152.224 99 152.5C99 152.224 98.7761 152 98.5 152C98.7761 152 99 151.776 99 151.5C99 151.224 98.7761 151 98.5 151C98.7761 151 99 150.776 99 150.5C99 150.776 99.2239 151 99.5 151C99.7761 151 100 150.776 100 150.5C100 150.776 100.224 151 100.5 151C100.776 151 101 150.776 101 150.5C101 150.776 101.224 151 101.5 151C101.776 151 102 150.776 102 150.5C102 150.776 102.224 151 102.5 151C102.776 151 103 150.776 103 150.5C103 150.776 103.224 151 103.5 151C103.776 151 104 150.776 104 150.5C104 150.224 103.776 150 103.5 150C103.224 150 103 150.224 103 150.5C103 150.224 102.776 150 102.5 150C102.224 150 102 150.224 102 150.5C102 150.224 101.776 150 101.5 150C101.224 150 101 150.224 101 150.5C101 150.224 100.776 150 100.5 150C100.224 150 100 150.224 100 150.5C100 150.224 99.7761 150 99.5 150C99.2239 150 99 150.224 99 150.5C99 150.224 98.7761 150 98.5 150ZM98 152.5C98 152.224 97.7761 152 97.5 152C97.7761 152 98 151.776 98 151.5C98 151.776 98.2239 152 98.5 152C98.2239 152 98 152.224 98 152.5ZM98.5 153C98.2239 153 98 153.224 98 153.5C98 153.224 97.7761 153 97.5 153C97.7761 153 98 152.776 98 152.5C98 152.776 98.2239 153 98.5 153ZM99 153.5C99 153.776 98.7761 154 98.5 154C98.7761 154 99 154.224 99 154.5C99 154.224 99.2239 154 99.5 154C99.7761 154 100 154.224 100 154.5C100 154.776 99.7761 155 99.5 155C99.7761 155 100 155.224 100 155.5C100 155.224 100.224 155 100.5 155C100.224 155 100 154.776 100 154.5C100 154.224 100.224 154 100.5 154C100.224 154 100 153.776 100 153.5C100 153.224 100.224 153 100.5 153C100.224 153 100 152.776 100 152.5C100 152.776 99.7761 153 99.5 153C99.2239 153 99 152.776 99 152.5C99 152.776 98.7761 153 98.5 153C98.7761 153 99 153.224 99 153.5ZM99 153.5C99 153.224 99.2239 153 99.5 153C99.7761 153 100 153.224 100 153.5C100 153.776 99.7761 154 99.5 154C99.2239 154 99 153.776 99 153.5ZM97.5 153C97.2239 153 97 153.224 97 153.5C97 153.224 96.7761 153 96.5 153C96.7761 153 97 152.776 97 152.5C97 152.776 97.2239 153 97.5 153ZM98 159.5C98 159.224 98.2239 159 98.5 159C98.7761 159 99 159.224 99 159.5C99 159.776 98.7761 160 98.5 160C98.2239 160 98 159.776 98 159.5ZM100 159.5C100 159.776 99.7761 160 99.5 160C99.2239 160 99 159.776 99 159.5C99 159.224 99.2239 159 99.5 159C99.7761 159 100 159.224 100 159.5ZM101 159.5C101 159.776 100.776 160 100.5 160C100.224 160 100 159.776 100 159.5C100 159.224 100.224 159 100.5 159C100.776 159 101 159.224 101 159.5ZM102 159.5C102 159.776 101.776 160 101.5 160C101.224 160 101 159.776 101 159.5C101 159.224 101.224 159 101.5 159C101.776 159 102 159.224 102 159.5ZM103 159.5C103 159.776 102.776 160 102.5 160C102.224 160 102 159.776 102 159.5C102 159.224 102.224 159 102.5 159C102.776 159 103 159.224 103 159.5ZM103 159.5C103 159.224 103.224 159 103.5 159C103.776 159 104 159.224 104 159.5C104 159.776 103.776 160 103.5 160C103.224 160 103 159.776 103 159.5ZM105.5 152C105.224 152 105 152.224 105 152.5C105 152.776 105.224 153 105.5 153C105.224 153 105 153.224 105 153.5C105 153.224 104.776 153 104.5 153C104.224 153 104 153.224 104 153.5C104 153.224 103.776 153 103.5 153C103.224 153 103 153.224 103 153.5C103 153.224 102.776 153 102.5 153C102.224 153 102 153.224 102 153.5C102 153.776 102.224 154 102.5 154C102.776 154 103 153.776 103 153.5C103 153.776 103.224 154 103.5 154C103.224 154 103 154.224 103 154.5C103 154.776 103.224 155 103.5 155C103.224 155 103 155.224 103 155.5C103 155.224 102.776 155 102.5 155C102.224 155 102 155.224 102 155.5C102 155.776 102.224 156 102.5 156C102.776 156 103 155.776 103 155.5C103 155.776 103.224 156 103.5 156C103.224 156 103 156.224 103 156.5C103 156.776 103.224 157 103.5 157C103.776 157 104 156.776 104 156.5C104 156.224 103.776 156 103.5 156C103.776 156 104 155.776 104 155.5C104 155.776 104.224 156 104.5 156C104.776 156 105 155.776 105 155.5C105 155.776 105.224 156 105.5 156C105.224 156 105 156.224 105 156.5C105 156.776 105.224 157 105.5 157C105.224 157 105 157.224 105 157.5C105 157.776 105.224 158 105.5 158C105.776 158 106 157.776 106 157.5C106 157.224 105.776 157 105.5 157C105.776 157 106 156.776 106 156.5C106 156.224 105.776 156 105.5 156C105.776 156 106 155.776 106 155.5C106 155.224 105.776 155 105.5 155C105.776 155 106 154.776 106 154.5C106 154.224 105.776 154 105.5 154C105.776 154 106 153.776 106 153.5C106 153.224 105.776 153 105.5 153C105.776 153 106 152.776 106 152.5C106 152.224 105.776 152 105.5 152ZM105 154.5C105 154.224 105.224 154 105.5 154C105.224 154 105 153.776 105 153.5C105 153.776 104.776 154 104.5 154C104.224 154 104 153.776 104 153.5C104 153.776 103.776 154 103.5 154C103.776 154 104 154.224 104 154.5C104 154.776 103.776 155 103.5 155C103.776 155 104 155.224 104 155.5C104 155.224 104.224 155 104.5 155C104.776 155 105 155.224 105 155.5C105 155.224 105.224 155 105.5 155C105.224 155 105 154.776 105 154.5ZM105 154.5C105 154.776 104.776 155 104.5 155C104.224 155 104 154.776 104 154.5C104 154.224 104.224 154 104.5 154C104.776 154 105 154.224 105 154.5ZM97 158.5C97 158.224 97.2239 158 97.5 158C97.7761 158 98 158.224 98 158.5C98 158.776 97.7761 159 97.5 159C97.2239 159 97 158.776 97 158.5ZM104.5 151C104.224 151 104 151.224 104 151.5C104 151.776 104.224 152 104.5 152C104.776 152 105 151.776 105 151.5C105 151.224 104.776 151 104.5 151ZM104 158.5C104 158.224 104.224 158 104.5 158C104.776 158 105 158.224 105 158.5C105 158.776 104.776 159 104.5 159C104.224 159 104 158.776 104 158.5ZM100 157.5C100 157.224 100.224 157 100.5 157C100.776 157 101 157.224 101 157.5C101 157.776 100.776 158 100.5 158C100.224 158 100 157.776 100 157.5Z" fill="#F8F8F8"/>
<path fill-rule="evenodd" clip-rule="evenodd" d="M251 3.5C251 3.22386 251.224 3 251.5 3C251.776 3 252 3.22386 252 3.5C252 3.77614 251.776 4 251.5 4C251.224 4 251 3.77614 251 3.5ZM253 3.5C253 3.77614 252.776 4 252.5 4C252.224 4 252 3.77614 252 3.5C252 3.22386 252.224 3 252.5 3C252.776 3 253 3.22386 253 3.5ZM254 3.5C254 3.77614 253.776 4 253.5 4C253.224 4 253 3.77614 253 3.5C253 3.22386 253.224 3 253.5 3C253.776 3 254 3.22386 254 3.5ZM254 3.5C254 3.22386 254.224 3 254.5 3C254.776 3 255 3.22386 255 3.5C255 3.77614 254.776 4 254.5 4C254.224 4 254 3.77614 254 3.5ZM250 4.5C250 4.22386 250.224 4 250.5 4C250.776 4 251 4.22386 251 4.5C251 4.77614 250.776 5 250.5 5C250.224 5 250 4.77614 250 4.5ZM249 5.5C249 5.22386 249.224 5 249.5 5C249.776 5 250 5.22386 250 5.5C250 5.77614 249.776 6 249.5 6C249.224 6 249 5.77614 249 5.5ZM248 6.5C248 6.22386 248.224 6 248.5 6C248.776 6 249 6.22386 249 6.5C249 6.77614 248.776 7 248.5 7C248.224 7 248 6.77614 248 6.5ZM249 7.5C249 7.77614 248.776 8 248.5 8C248.224 8 248 7.77614 248 7.5C248 7.22386 248.224 7 248.5 7C248.776 7 249 7.22386 249 7.5ZM250 7.5C250 7.22386 249.776 7 249.5 7C249.224 7 249 7.22386 249 7.5C249 7.77614 249.224 8 249.5 8C249.224 8 249 8.22386 249 8.5C249 8.77614 249.224 9 249.5 9C249.224 9 249 9.22386 249 9.5C249 9.77614 249.224 10 249.5 10C249.224 10 249 10.2239 249 10.5C249 10.7761 249.224 11 249.5 11C249.224 11 249 11.2239 249 11.5C249 11.7761 249.224 12 249.5 12C249.224 12 249 12.2239 249 12.5C249 12.2239 248.776 12 248.5 12C248.224 12 248 12.2239 248 12.5C248 12.7761 248.224 13 248.5 13C248.776 13 249 12.7761 249 12.5C249 12.7761 249.224 13 249.5 13C249.776 13 250 12.7761 250 12.5C250 12.7761 250.224 13 250.5 13C250.776 13 251 12.7761 251 12.5C251 12.7761 251.224 13 251.5 13C251.776 13 252 12.7761 252 12.5C252 12.7761 252.224 13 252.5 13C252.776 13 253 12.7761 253 12.5C253 12.7761 253.224 13 253.5 13C253.776 13 254 12.7761 254 12.5C254 12.7761 254.224 13 254.5 13C254.776 13 255 12.7761 255 12.5C255 12.7761 255.224 13 255.5 13C255.776 13 256 12.7761 256 12.5C256 12.7761 256.224 13 256.5 13C256.776 13 257 12.7761 257 12.5C257 12.7761 257.224 13 257.5 13C257.776 13 258 12.7761 258 12.5C258 12.2239 257.776 12 257.5 12C257.224 12 257 12.2239 257 12.5C257 12.2239 256.776 12 256.5 12C256.776 12 257 11.7761 257 11.5C257 11.2239 256.776 11 256.5 11C256.776 11 257 10.7761 257 10.5C257 10.2239 256.776 10 256.5 10C256.776 10 257 9.77614 257 9.5C257 9.22386 256.776 9 256.5 9C256.776 9 257 8.77614 257 8.5C257 8.22386 256.776 8 256.5 8C256.776 8 257 7.77614 257 7.5C257 7.77614 257.224 8 257.5 8C257.776 8 258 7.77614 258 7.5C258 7.22386 257.776 7 257.5 7C257.776 7 258 6.77614 258 6.5C258 6.22386 257.776 6 257.5 6C257.224 6 257 6.22386 257 6.5C257 6.77614 257.224 7 257.5 7C257.224 7 257 7.22386 257 7.5C257 7.22386 256.776 7 256.5 7C256.224 7 256 7.22386 256 7.5C256 7.22386 255.776 7 255.5 7C255.224 7 255 7.22386 255 7.5C255 7.22386 254.776 7 254.5 7C254.224 7 254 7.22386 254 7.5C254 7.22386 253.776 7 253.5 7C253.224 7 253 7.22386 253 7.5C253 7.22386 252.776 7 252.5 7C252.224 7 252 7.22386 252 7.5C252 7.22386 251.776 7 251.5 7C251.224 7 251 7.22386 251 7.5C251 7.22386 250.776 7 250.5 7C250.224 7 250 7.22386 250 7.5ZM251.5 8C251.776 8 252 7.77614 252 7.5C252 7.77614 252.224 8 252.5 8C252.776 8 253 7.77614 253 7.5C253 7.77614 253.224 8 253.5 8C253.776 8 254 7.77614 254 7.5C254 7.77614 254.224 8 254.5 8C254.224 8 254 8.22386 254 8.5C254 8.77614 254.224 9 254.5 9C254.224 9 254 9.22386 254 9.5C254 9.77614 254.224 10 254.5 10C254.224 10 254 10.2239 254 10.5C254 10.7761 254.224 11 254.5 11C254.224 11 254 11.2239 254 11.5C254 11.7761 254.224 12 254.5 12C254.224 12 254 12.2239 254 12.5C254 12.2239 253.776 12 253.5 12C253.224 12 253 12.2239 253 12.5C253 12.2239 252.776 12 252.5 12C252.224 12 252 12.2239 252 12.5C252 12.2239 251.776 12 251.5 12C251.776 12 252 11.7761 252 11.5C252 11.2239 251.776 11 251.5 11C251.776 11 252 10.7761 252 10.5C252 10.2239 251.776 10 251.5 10C251.776 10 252 9.77614 252 9.5C252 9.22386 251.776 9 251.5 9C251.776 9 252 8.77614 252 8.5C252 8.22386 251.776 8 251.5 8ZM251.5 8C251.224 8 251 7.77614 251 7.5C251 7.77614 250.776 8 250.5 8C250.224 8 250 7.77614 250 7.5C250 7.77614 249.776 8 249.5 8C249.776 8 250 8.22386 250 8.5C250 8.77614 249.776 9 249.5 9C249.776 9 250 9.22386 250 9.5C250 9.77614 249.776 10 249.5 10C249.776 10 250 10.2239 250 10.5C250 10.7761 249.776 11 249.5 11C249.776 11 250 11.2239 250 11.5C250 11.7761 249.776 12 249.5 12C249.776 12 250 12.2239 250 12.5C250 12.2239 250.224 12 250.5 12C250.776 12 251 12.2239 251 12.5C251 12.2239 251.224 12 251.5 12C251.224 12 251 11.7761 251 11.5C251 11.2239 251.224 11 251.5 11C251.224 11 251 10.7761 251 10.5C251 10.2239 251.224 10 251.5 10C251.224 10 251 9.77614 251 9.5C251 9.22386 251.224 9 251.5 9C251.224 9 251 8.77614 251 8.5C251 8.22386 251.224 8 251.5 8ZM254.5 12C254.776 12 255 11.7761 255 11.5C255 11.2239 254.776 11 254.5 11C254.776 11 255 10.7761 255 10.5C255 10.2239 254.776 10 254.5 10C254.776 10 255 9.77614 255 9.5C255 9.22386 254.776 9 254.5 9C254.776 9 255 8.77614 255 8.5C255 8.22386 254.776 8 254.5 8C254.776 8 255 7.77614 255 7.5C255 7.77614 255.224 8 255.5 8C255.776 8 256 7.77614 256 7.5C256 7.77614 256.224 8 256.5 8C256.224 8 256 8.22386 256 8.5C256 8.77614 256.224 9 256.5 9C256.224 9 256 9.22386 256 9.5C256 9.77614 256.224 10 256.5 10C256.224 10 256 10.2239 256 10.5C256 10.7761 256.224 11 256.5 11C256.224 11 256 11.2239 256 11.5C256 11.7761 256.224 12 256.5 12C256.224 12 256 12.2239 256 12.5C256 12.2239 255.776 12 255.5 12C255.224 12 255 12.2239 255 12.5C255 12.2239 254.776 12 254.5 12ZM256.5 5C256.224 5 256 5.22386 256 5.5C256 5.77614 256.224 6 256.5 6C256.776 6 257 5.77614 257 5.5C257 5.22386 256.776 5 256.5 5ZM255.5 4C255.224 4 255 4.22386 255 4.5C255 4.77614 255.224 5 255.5 5C255.776 5 256 4.77614 256 4.5C256 4.22386 255.776 4 255.5 4Z" fill="#F8F8F8"/>
<path fill-rule="evenodd" clip-rule="evenodd" d="M189.5 26C189.224 26 189 26.2239 189 26.5C189 26.7761 189.224 27 189.5 27C189.776 27 190 26.7761 190 26.5C190 26.7761 190.224 27 190.5 27C190.776 27 191 26.7761 191 26.5C191 26.7761 191.224 27 191.5 27C191.776 27 192 26.7761 192 26.5C192 26.7761 192.224 27 192.5 27C192.224 27 192 27.2239 192 27.5C192 27.7761 192.224 28 192.5 28C192.776 28 193 27.7761 193 27.5C193 27.7761 193.224 28 193.5 28C193.224 28 193 28.2239 193 28.5C193 28.7761 193.224 29 193.5 29C193.224 29 193 29.2239 193 29.5C193 29.2239 192.776 29 192.5 29C192.224 29 192 29.2239 192 29.5C192 29.7761 192.224 30 192.5 30C192.224 30 192 30.2239 192 30.5C192 30.2239 191.776 30 191.5 30C191.224 30 191 30.2239 191 30.5C191 30.2239 190.776 30 190.5 30C190.224 30 190 30.2239 190 30.5C190 30.2239 189.776 30 189.5 30C189.224 30 189 30.2239 189 30.5C189 30.7761 189.224 31 189.5 31C189.776 31 190 30.7761 190 30.5C190 30.7761 190.224 31 190.5 31C190.776 31 191 30.7761 191 30.5C191 30.7761 191.224 31 191.5 31C191.776 31 192 30.7761 192 30.5C192 30.7761 192.224 31 192.5 31C192.776 31 193 30.7761 193 30.5C193 30.2239 192.776 30 192.5 30C192.776 30 193 29.7761 193 29.5C193 29.7761 193.224 30 193.5 30C193.776 30 194 29.7761 194 29.5C194 29.2239 193.776 29 193.5 29C193.776 29 194 28.7761 194 28.5C194 28.2239 193.776 28 193.5 28C193.776 28 194 27.7761 194 27.5C194 27.2239 193.776 27 193.5 27C193.224 27 193 27.2239 193 27.5C193 27.2239 192.776 27 192.5 27C192.776 27 193 26.7761 193 26.5C193 26.2239 192.776 26 192.5 26C192.224 26 192 26.2239 192 26.5C192 26.2239 191.776 26 191.5 26C191.224 26 191 26.2239 191 26.5C191 26.2239 190.776 26 190.5 26C190.224 26 190 26.2239 190 26.5C190 26.2239 189.776 26 189.5 26ZM196.5 26C196.224 26 196 26.2239 196 26.5C196 26.2239 195.776 26 195.5 26C195.224 26 195 26.2239 195 26.5C195 26.2239 194.776 26 194.5 26C194.224 26 194 26.2239 194 26.5C194 26.7761 194.224 27 194.5 27C194.776 27 195 26.7761 195 26.5C195 26.7761 195.224 27 195.5 27C195.776 27 196 26.7761 196 26.5C196 26.7761 196.224 27 196.5 27C196.776 27 197 26.7761 197 26.5C197 26.2239 196.776 26 196.5 26ZM191.5 28C191.224 28 191 28.2239 191 28.5C191 28.7761 191.224 29 191.5 29C191.776 29 192 28.7761 192 28.5C192 28.2239 191.776 28 191.5 28ZM194.5 30C194.224 30 194 30.2239 194 30.5C194 30.7761 194.224 31 194.5 31C194.776 31 195 30.7761 195 30.5C195 30.7761 195.224 31 195.5 31C195.776 31 196 30.7761 196 30.5C196 30.7761 196.224 31 196.5 31C196.776 31 197 30.7761 197 30.5C197 30.2239 196.776 30 196.5 30C196.224 30 196 30.2239 196 30.5C196 30.2239 195.776 30 195.5 30C195.224 30 195 30.2239 195 30.5C195 30.2239 194.776 30 194.5 30ZM197 28.5C197 28.2239 197.224 28 197.5 28C197.776 28 198 28.2239 198 28.5C198 28.7761 197.776 29 197.5 29C197.224 29 197 28.7761 197 28.5ZM197.5 29C197.776 29 198 29.2239 198 29.5C198 29.7761 197.776 30 197.5 30C197.224 30 197 29.7761 197 29.5C197 29.2239 197.224 29 197.5 29ZM198 27.5C198 27.7761 197.776 28 197.5 28C197.224 28 197 27.7761 197 27.5C197 27.2239 197.224 27 197.5 27C197.776 27 198 27.2239 198 27.5ZM188 27.5C188 27.2239 188.224 27 188.5 27C188.776 27 189 27.2239 189 27.5C189 27.7761 188.776 28 188.5 28C188.224 28 188 27.7761 188 27.5ZM188.5 29C188.224 29 188 28.7761 188 28.5C188 28.2239 188.224 28 188.5 28C188.776 28 189 28.2239 189 28.5C189 28.7761 188.776 29 188.5 29ZM188.5 29C188.776 29 189 29.2239 189 29.5C189 29.7761 188.776 30 188.5 30C188.224 30 188 29.7761 188 29.5C188 29.2239 188.224 29 188.5 29Z" fill="#F8F8F8"/>
<path fill-rule="evenodd" clip-rule="evenodd" d="M364.5 46C364.224 46 364 46.2239 364 46.5C364 46.7761 364.224 47 364.5 47C364.224 47 364 47.2239 364 47.5C364 47.7761 364.224 48 364.5 48C364.224 48 364 48.2239 364 48.5C364 48.7761 364.224 49 364.5 49C364.224 49 364 49.2239 364 49.5C364 49.7761 364.224 50 364.5 50C364.224 50 364 50.2239 364 50.5C364 50.7761 364.224 51 364.5 51C364.224 51 364 51.2239 364 51.5C364 51.7761 364.224 52 364.5 52C364.224 52 364 52.2239 364 52.5C364 52.7761 364.224 53 364.5 53C364.224 53 364 53.2239 364 53.5C364 53.7761 364.224 54 364.5 54C364.224 54 364 54.2239 364 54.5C364 54.7761 364.224 55 364.5 55C364.224 55 364 55.2239 364 55.5C364 55.7761 364.224 56 364.5 56C364.776 56 365 55.7761 365 55.5C365 55.7761 365.224 56 365.5 56C365.776 56 366 55.7761 366 55.5C366 55.7761 366.224 56 366.5 56C366.776 56 367 55.7761 367 55.5C367 55.7761 367.224 56 367.5 56C367.776 56 368 55.7761 368 55.5C368 55.7761 368.224 56 368.5 56C368.776 56 369 55.7761 369 55.5C369 55.7761 369.224 56 369.5 56C369.776 56 370 55.7761 370 55.5C370 55.7761 370.224 56 370.5 56C370.776 56 371 55.7761 371 55.5C371 55.7761 371.224 56 371.5 56C371.776 56 372 55.7761 372 55.5C372 55.7761 372.224 56 372.5 56C372.776 56 373 55.7761 373 55.5C373 55.7761 373.224 56 373.5 56C373.776 56 374 55.7761 374 55.5C374 55.2239 373.776 55 373.5 55C373.776 55 374 54.7761 374 54.5C374 54.2239 373.776 54 373.5 54C373.776 54 374 53.7761 374 53.5C374 53.2239 373.776 53 373.5 53C373.776 53 374 52.7761 374 52.5C374 52.2239 373.776 52 373.5 52C373.776 52 374 51.7761 374 51.5C374 51.2239 373.776 51 373.5 51C373.776 51 374 50.7761 374 50.5C374 50.2239 373.776 50 373.5 50C373.776 50 374 49.7761 374 49.5C374 49.2239 373.776 49 373.5 49C373.776 49 374 48.7761 374 48.5C374 48.2239 373.776 48 373.5 48C373.224 48 373 48.2239 373 48.5C373 48.7761 373.224 49 373.5 49C373.224 49 373 49.2239 373 49.5C373 49.7761 373.224 50 373.5 50C373.224 50 373 50.2239 373 50.5C373 50.7761 373.224 51 373.5 51C373.224 51 373 51.2239 373 51.5C373 51.7761 373.224 52 373.5 52C373.224 52 373 52.2239 373 52.5C373 52.7761 373.224 53 373.5 53C373.224 53 373 53.2239 373 53.5C373 53.7761 373.224 54 373.5 54C373.224 54 373 54.2239 373 54.5C373 54.7761 373.224 55 373.5 55C373.224 55 373 55.2239 373 55.5C373 55.2239 372.776 55 372.5 55C372.224 55 372 55.2239 372 55.5C372 55.2239 371.776 55 371.5 55C371.776 55 372 54.7761 372 54.5C372 54.2239 371.776 54 371.5 54C371.776 54 372 53.7761 372 53.5C372 53.2239 371.776 53 371.5 53C371.224 53 371 53.2239 371 53.5C371 53.7761 371.224 54 371.5 54C371.224 54 371 54.2239 371 54.5C371 54.7761 371.224 55 371.5 55C371.224 55 371 55.2239 371 55.5C371 55.2239 370.776 55 370.5 55C370.224 55 370 55.2239 370 55.5C370 55.2239 369.776 55 369.5 55C369.224 55 369 55.2239 369 55.5C369 55.2239 368.776 55 368.5 55C368.224 55 368 55.2239 368 55.5C368 55.2239 367.776 55 367.5 55C367.224 55 367 55.2239 367 55.5C367 55.2239 366.776 55 366.5 55C366.776 55 367 54.7761 367 54.5C367 54.2239 366.776 54 366.5 54C366.776 54 367 53.7761 367 53.5C367 53.2239 366.776 53 366.5 53C366.224 53 366 53.2239 366 53.5C366 53.7761 366.224 54 366.5 54C366.224 54 366 54.2239 366 54.5C366 54.7761 366.224 55 366.5 55C366.224 55 366 55.2239 366 55.5C366 55.2239 365.776 55 365.5 55C365.224 55 365 55.2239 365 55.5C365 55.2239 364.776 55 364.5 55C364.776 55 365 54.7761 365 54.5C365 54.2239 364.776 54 364.5 54C364.776 54 365 53.7761 365 53.5C365 53.2239 364.776 53 364.5 53C364.776 53 365 52.7761 365 52.5C365 52.2239 364.776 52 364.5 52C364.776 52 365 51.7761 365 51.5C365 51.2239 364.776 51 364.5 51C364.776 51 365 50.7761 365 50.5C365 50.2239 364.776 50 364.5 50C364.776 50 365 49.7761 365 49.5C365 49.2239 364.776 49 364.5 49C364.776 49 365 48.7761 365 48.5C365 48.2239 364.776 48 364.5 48C364.776 48 365 47.7761 365 47.5C365 47.2239 364.776 47 364.5 47C364.776 47 365 46.7761 365 46.5C365 46.7761 365.224 47 365.5 47C365.776 47 366 46.7761 366 46.5C366 46.7761 366.224 47 366.5 47C366.224 47 366 47.2239 366 47.5C366 47.7761 366.224 48 366.5 48C366.224 48 366 48.2239 366 48.5C366 48.7761 366.224 49 366.5 49C366.224 49 366 49.2239 366 49.5C366 49.7761 366.224 50 366.5 50C366.776 50 367 49.7761 367 49.5C367 49.7761 367.224 50 367.5 50C367.776 50 368 49.7761 368 49.5C368 49.7761 368.224 50 368.5 50C368.776 50 369 49.7761 369 49.5C369 49.7761 369.224 50 369.5 50C369.776 50 370 49.7761 370 49.5C370 49.7761 370.224 50 370.5 50C370.776 50 371 49.7761 371 49.5C371 49.2239 370.776 49 370.5 49C370.776 49 371 48.7761 371 48.5C371 48.2239 370.776 48 370.5 48C370.776 48 371 47.7761 371 47.5C371 47.2239 370.776 47 370.5 47C370.776 47 371 46.7761 371 46.5C371 46.7761 371.224 47 371.5 47C371.776 47 372 46.7761 372 46.5C372 46.2239 371.776 46 371.5 46C371.224 46 371 46.2239 371 46.5C371 46.2239 370.776 46 370.5 46C370.224 46 370 46.2239 370 46.5C370 46.2239 369.776 46 369.5 46C369.224 46 369 46.2239 369 46.5C369 46.2239 368.776 46 368.5 46C368.224 46 368 46.2239 368 46.5C368 46.2239 367.776 46 367.5 46C367.224 46 367 46.2239 367 46.5C367 46.2239 366.776 46 366.5 46C366.224 46 366 46.2239 366 46.5C366 46.2239 365.776 46 365.5 46C365.224 46 365 46.2239 365 46.5C365 46.2239 364.776 46 364.5 46ZM367 46.5C367 46.7761 366.776 47 366.5 47C366.776 47 367 47.2239 367 47.5C367 47.7761 366.776 48 366.5 48C366.776 48 367 48.2239 367 48.5C367 48.7761 366.776 49 366.5 49C366.776 49 367 49.2239 367 49.5C367 49.2239 367.224 49 367.5 49C367.776 49 368 49.2239 368 49.5C368 49.2239 368.224 49 368.5 49C368.776 49 369 49.2239 369 49.5C369 49.2239 369.224 49 369.5 49C369.776 49 370 49.2239 370 49.5C370 49.2239 370.224 49 370.5 49C370.224 49 370 48.7761 370 48.5C370 48.2239 370.224 48 370.5 48C370.224 48 370 47.7761 370 47.5C370 47.2239 370.224 47 370.5 47C370.224 47 370 46.7761 370 46.5C370 46.7761 369.776 47 369.5 47C369.224 47 369 46.7761 369 46.5C369 46.7761 368.776 47 368.5 47C368.224 47 368 46.7761 368 46.5C368 46.7761 367.776 47 367.5 47C367.224 47 367 46.7761 367 46.5ZM370 48.5C370 48.7761 369.776 49 369.5 49C369.224 49 369 48.7761 369 48.5C369 48.2239 369.224 48 369.5 48C369.776 48 370 48.2239 370 48.5ZM372.5 47C372.224 47 372 47.2239 372 47.5C372 47.7761 372.224 48 372.5 48C372.776 48 373 47.7761 373 47.5C373 47.2239 372.776 47 372.5 47ZM367 52.5C367 52.2239 367.224 52 367.5 52C367.776 52 368 52.2239 368 52.5C368 52.7761 367.776 53 367.5 53C367.224 53 367 52.7761 367 52.5ZM369 52.5C369 52.7761 368.776 53 368.5 53C368.224 53 368 52.7761 368 52.5C368 52.2239 368.224 52 368.5 52C368.776 52 369 52.2239 369 52.5ZM370 52.5C370 52.7761 369.776 53 369.5 53C369.224 53 369 52.7761 369 52.5C369 52.2239 369.224 52 369.5 52C369.776 52 370 52.2239 370 52.5ZM370 52.5C370 52.2239 370.224 52 370.5 52C370.776 52 371 52.2239 371 52.5C371 52.7761 370.776 53 370.5 53C370.224 53 370 52.7761 370 52.5Z" fill="#F8F8F8"/>
<path fill-rule="evenodd" clip-rule="evenodd" d="M365 24.5C365 24.2239 365.224 24 365.5 24C365.776 24 366 24.2239 366 24.5C366 24.7761 365.776 25 365.5 25C365.224 25 365 24.7761 365 24.5ZM364.5 25C364.224 25 364 24.7761 364 24.5C364 24.2239 364.224 24 364.5 24C364.776 24 365 24.2239 365 24.5C365 24.7761 364.776 25 364.5 25ZM364.5 26C364.224 26 364 25.7761 364 25.5C364 25.2239 364.224 25 364.5 25C364.776 25 365 25.2239 365 25.5C365 25.7761 364.776 26 364.5 26ZM364.5 27C364.224 27 364 26.7761 364 26.5C364 26.2239 364.224 26 364.5 26C364.776 26 365 26.2239 365 26.5C365 26.7761 364.776 27 364.5 27ZM364.5 28C364.224 28 364 27.7761 364 27.5C364 27.2239 364.224 27 364.5 27C364.776 27 365 27.2239 365 27.5C365 27.7761 364.776 28 364.5 28ZM364.5 29C364.224 29 364 28.7761 364 28.5C364 28.2239 364.224 28 364.5 28C364.776 28 365 28.2239 365 28.5C365 28.7761 364.776 29 364.5 29ZM364.5 30C364.224 30 364 29.7761 364 29.5C364 29.2239 364.224 29 364.5 29C364.776 29 365 29.2239 365 29.5C365 29.7761 364.776 30 364.5 30ZM364.5 31C364.224 31 364 30.7761 364 30.5C364 30.2239 364.224 30 364.5 30C364.776 30 365 30.2239 365 30.5C365 30.7761 364.776 31 364.5 31ZM365 31.5C365 31.7761 364.776 32 364.5 32C364.224 32 364 31.7761 364 31.5C364 31.2239 364.224 31 364.5 31C364.776 31 365 31.2239 365 31.5ZM366 31.5C366 31.2239 365.776 31 365.5 31C365.224 31 365 31.2239 365 31.5C365 31.7761 365.224 32 365.5 32C365.224 32 365 32.2239 365 32.5C365 32.7761 365.224 33 365.5 33C365.224 33 365 33.2239 365 33.5C365 33.7761 365.224 34 365.5 34C365.776 34 366 33.7761 366 33.5C366 33.2239 365.776 33 365.5 33C365.776 33 366 32.7761 366 32.5C366 32.2239 365.776 32 365.5 32C365.776 32 366 31.7761 366 31.5ZM367 31.5C367 31.7761 366.776 32 366.5 32C366.224 32 366 31.7761 366 31.5C366 31.2239 366.224 31 366.5 31C366.776 31 367 31.2239 367 31.5ZM368 31.5C368 31.7761 367.776 32 367.5 32C367.224 32 367 31.7761 367 31.5C367 31.2239 367.224 31 367.5 31C367.776 31 368 31.2239 368 31.5ZM369 31.5C369 31.7761 368.776 32 368.5 32C368.224 32 368 31.7761 368 31.5C368 31.2239 368.224 31 368.5 31C368.776 31 369 31.2239 369 31.5ZM370 31.5C370 31.7761 369.776 32 369.5 32C369.224 32 369 31.7761 369 31.5C369 31.2239 369.224 31 369.5 31C369.776 31 370 31.2239 370 31.5ZM371 31.5C371 31.7761 370.776 32 370.5 32C370.224 32 370 31.7761 370 31.5C370 31.2239 370.224 31 370.5 31C370.776 31 371 31.2239 371 31.5ZM372 31.5C372 31.7761 371.776 32 371.5 32C371.224 32 371 31.7761 371 31.5C371 31.2239 371.224 31 371.5 31C371.776 31 372 31.2239 372 31.5ZM373 31.5C373 31.2239 372.776 31 372.5 31C372.224 31 372 31.2239 372 31.5C372 31.7761 372.224 32 372.5 32C372.224 32 372 32.2239 372 32.5C372 32.7761 372.224 33 372.5 33C372.224 33 372 33.2239 372 33.5C372 33.7761 372.224 34 372.5 34C372.776 34 373 33.7761 373 33.5C373 33.2239 372.776 33 372.5 33C372.776 33 373 32.7761 373 32.5C373 32.2239 372.776 32 372.5 32C372.776 32 373 31.7761 373 31.5ZM373.5 31C373.776 31 374 31.2239 374 31.5C374 31.7761 373.776 32 373.5 32C373.224 32 373 31.7761 373 31.5C373 31.2239 373.224 31 373.5 31ZM373.5 30C373.776 30 374 30.2239 374 30.5C374 30.7761 373.776 31 373.5 31C373.224 31 373 30.7761 373 30.5C373 30.2239 373.224 30 373.5 30ZM373.5 29C373.776 29 374 29.2239 374 29.5C374 29.7761 373.776 30 373.5 30C373.224 30 373 29.7761 373 29.5C373 29.2239 373.224 29 373.5 29ZM373.5 28C373.776 28 374 28.2239 374 28.5C374 28.7761 373.776 29 373.5 29C373.224 29 373 28.7761 373 28.5C373 28.2239 373.224 28 373.5 28ZM373.5 27C373.776 27 374 27.2239 374 27.5C374 27.7761 373.776 28 373.5 28C373.224 28 373 27.7761 373 27.5C373 27.2239 373.224 27 373.5 27ZM373.5 26C373.776 26 374 26.2239 374 26.5C374 26.7761 373.776 27 373.5 27C373.224 27 373 26.7761 373 26.5C373 26.2239 373.224 26 373.5 26ZM373.5 25C373.224 25 373 25.2239 373 25.5C373 25.7761 373.224 26 373.5 26C373.776 26 374 25.7761 374 25.5C374 25.2239 373.776 25 373.5 25ZM373 24.5C373 24.7761 373.224 25 373.5 25C373.776 25 374 24.7761 374 24.5C374 24.2239 373.776 24 373.5 24C373.224 24 373 24.2239 373 24.5ZM372 24.5C372 24.2239 372.224 24 372.5 24C372.776 24 373 24.2239 373 24.5C373 24.7761 372.776 25 372.5 25C372.224 25 372 24.7761 372 24.5ZM371 24.5C371 24.2239 371.224 24 371.5 24C371.776 24 372 24.2239 372 24.5C372 24.7761 371.776 25 371.5 25C371.224 25 371 24.7761 371 24.5ZM370 24.5C370 24.2239 370.224 24 370.5 24C370.776 24 371 24.2239 371 24.5C371 24.7761 370.776 25 370.5 25C370.224 25 370 24.7761 370 24.5ZM369 24.5C369 24.2239 369.224 24 369.5 24C369.776 24 370 24.2239 370 24.5C370 24.7761 369.776 25 369.5 25C369.224 25 369 24.7761 369 24.5ZM368 24.5C368 24.2239 368.224 24 368.5 24C368.776 24 369 24.2239 369 24.5C369 24.7761 368.776 25 368.5 25C368.224 25 368 24.7761 368 24.5ZM367 24.5C367 24.2239 367.224 24 367.5 24C367.776 24 368 24.2239 368 24.5C368 24.7761 367.776 25 367.5 25C367.224 25 367 24.7761 367 24.5ZM367 24.5C367 24.2239 366.776 24 366.5 24C366.224 24 366 24.2239 366 24.5C366 24.7761 366.224 25 366.5 25C366.776 25 367 24.7761 367 24.5ZM366.5 26C366.224 26 366 26.2239 366 26.5C366 26.7761 366.224 27 366.5 27C366.224 27 366 27.2239 366 27.5C366 27.7761 366.224 28 366.5 28C366.224 28 366 28.2239 366 28.5C366 28.7761 366.224 29 366.5 29C366.224 29 366 29.2239 366 29.5C366 29.7761 366.224 30 366.5 30C366.776 30 367 29.7761 367 29.5C367 29.7761 367.224 30 367.5 30C367.776 30 368 29.7761 368 29.5C368 29.7761 368.224 30 368.5 30C368.776 30 369 29.7761 369 29.5C369 29.2239 368.776 29 368.5 29C368.776 29 369 28.7761 369 28.5C369 28.2239 368.776 28 368.5 28C368.776 28 369 27.7761 369 27.5C369 27.2239 368.776 27 368.5 27C368.776 27 369 26.7761 369 26.5C369 26.2239 368.776 26 368.5 26C368.224 26 368 26.2239 368 26.5C368 26.2239 367.776 26 367.5 26C367.224 26 367 26.2239 367 26.5C367 26.2239 366.776 26 366.5 26ZM367 26.5C367 26.7761 367.224 27 367.5 27C367.776 27 368 26.7761 368 26.5C368 26.7761 368.224 27 368.5 27C368.224 27 368 27.2239 368 27.5C368 27.7761 368.224 28 368.5 28C368.224 28 368 28.2239 368 28.5C368 28.7761 368.224 29 368.5 29C368.224 29 368 29.2239 368 29.5C368 29.2239 367.776 29 367.5 29C367.224 29 367 29.2239 367 29.5C367 29.2239 366.776 29 366.5 29C366.776 29 367 28.7761 367 28.5C367 28.2239 366.776 28 366.5 28C366.776 28 367 27.7761 367 27.5C367 27.2239 366.776 27 366.5 27C366.776 27 367 26.7761 367 26.5ZM370.5 26C370.224 26 370 26.2239 370 26.5C370 26.7761 370.224 27 370.5 27C370.776 27 371 26.7761 371 26.5C371 26.2239 370.776 26 370.5 26ZM371 28.5C371 28.2239 371.224 28 371.5 28C371.776 28 372 28.2239 372 28.5C372 28.7761 371.776 29 371.5 29C371.224 29 371 28.7761 371 28.5Z" fill="#F8F8F8"/>
<path fill-rule="evenodd" clip-rule="evenodd" d="M348 129.5C348 129.224 348.224 129 348.5 129C348.776 129 349 129.224 349 129.5C349 129.776 348.776 130 348.5 130C348.224 130 348 129.776 348 129.5ZM349 129.5C349 129.224 349.224 129 349.5 129C349.776 129 350 129.224 350 129.5C350 129.776 349.776 130 349.5 130C349.224 130 349 129.776 349 129.5ZM346.5 131C346.224 131 346 131.224 346 131.5C346 131.776 346.224 132 346.5 132C346.776 132 347 131.776 347 131.5C347 131.776 347.224 132 347.5 132C347.224 132 347 132.224 347 132.5C347 132.776 347.224 133 347.5 133C347.776 133 348 132.776 348 132.5C348 132.224 347.776 132 347.5 132C347.776 132 348 131.776 348 131.5C348 131.224 347.776 131 347.5 131C347.776 131 348 130.776 348 130.5C348 130.224 347.776 130 347.5 130C347.224 130 347 130.224 347 130.5C347 130.776 347.224 131 347.5 131C347.224 131 347 131.224 347 131.5C347 131.224 346.776 131 346.5 131ZM346.5 136C346.224 136 346 136.224 346 136.5C346 136.776 346.224 137 346.5 137C346.776 137 347 136.776 347 136.5C347 136.776 347.224 137 347.5 137C347.776 137 348 136.776 348 136.5C348 136.776 348.224 137 348.5 137C348.776 137 349 136.776 349 136.5C349 136.776 349.224 137 349.5 137C349.776 137 350 136.776 350 136.5C350 136.776 350.224 137 350.5 137C350.776 137 351 136.776 351 136.5C351 136.776 351.224 137 351.5 137C351.224 137 351 137.224 351 137.5C351 137.776 351.224 138 351.5 138C351.776 138 352 137.776 352 137.5C352 137.224 351.776 137 351.5 137C351.776 137 352 136.776 352 136.5C352 136.224 351.776 136 351.5 136C351.776 136 352 135.776 352 135.5C352 135.224 351.776 135 351.5 135C351.224 135 351 135.224 351 135.5C351 135.776 351.224 136 351.5 136C351.224 136 351 136.224 351 136.5C351 136.224 350.776 136 350.5 136C350.224 136 350 136.224 350 136.5C350 136.224 349.776 136 349.5 136C349.224 136 349 136.224 349 136.5C349 136.224 348.776 136 348.5 136C348.224 136 348 136.224 348 136.5C348 136.224 347.776 136 347.5 136C347.224 136 347 136.224 347 136.5C347 136.224 346.776 136 346.5 136ZM355 131.5C355 131.224 355.224 131 355.5 131C355.776 131 356 131.224 356 131.5C356 131.776 355.776 132 355.5 132C355.224 132 355 131.776 355 131.5ZM354 131.5C354 131.224 354.224 131 354.5 131C354.776 131 355 131.224 355 131.5C355 131.776 354.776 132 354.5 132C354.224 132 354 131.776 354 131.5ZM353 131.5C353 131.224 353.224 131 353.5 131C353.776 131 354 131.224 354 131.5C354 131.776 353.776 132 353.5 132C353.224 132 353 131.776 353 131.5ZM352 131.5C352 131.224 352.224 131 352.5 131C352.776 131 353 131.224 353 131.5C353 131.776 352.776 132 352.5 132C352.224 132 352 131.776 352 131.5ZM351 131.5C351 131.224 351.224 131 351.5 131C351.776 131 352 131.224 352 131.5C352 131.776 351.776 132 351.5 132C351.224 132 351 131.776 351 131.5ZM350.5 132C350.776 132 351 131.776 351 131.5C351 131.224 350.776 131 350.5 131C350.776 131 351 130.776 351 130.5C351 130.224 350.776 130 350.5 130C350.224 130 350 130.224 350 130.5C350 130.776 350.224 131 350.5 131C350.224 131 350 131.224 350 131.5C350 131.776 350.224 132 350.5 132ZM350.5 132C350.776 132 351 132.224 351 132.5C351 132.776 350.776 133 350.5 133C350.224 133 350 132.776 350 132.5C350 132.224 350.224 132 350.5 132ZM355.5 136C355.224 136 355 136.224 355 136.5C355 136.224 354.776 136 354.5 136C354.776 136 355 135.776 355 135.5C355 135.224 354.776 135 354.5 135C354.224 135 354 135.224 354 135.5C354 135.776 354.224 136 354.5 136C354.224 136 354 136.224 354 136.5C354 136.776 354.224 137 354.5 137C354.224 137 354 137.224 354 137.5C354 137.776 354.224 138 354.5 138C354.776 138 355 137.776 355 137.5C355 137.224 354.776 137 354.5 137C354.776 137 355 136.776 355 136.5C355 136.776 355.224 137 355.5 137C355.776 137 356 136.776 356 136.5C356 136.224 355.776 136 355.5 136ZM352.5 134C352.224 134 352 134.224 352 134.5C352 134.776 352.224 135 352.5 135C352.776 135 353 134.776 353 134.5C353 134.776 353.224 135 353.5 135C353.776 135 354 134.776 354 134.5C354 134.224 353.776 134 353.5 134C353.224 134 353 134.224 353 134.5C353 134.224 352.776 134 352.5 134ZM348 133.5C348 133.224 348.224 133 348.5 133C348.776 133 349 133.224 349 133.5C349 133.776 348.776 134 348.5 134C348.224 134 348 133.776 348 133.5ZM349 133.5C349 133.224 349.224 133 349.5 133C349.776 133 350 133.224 350 133.5C350 133.776 349.776 134 349.5 134C349.224 134 349 133.776 349 133.5ZM352.5 138C352.224 138 352 138.224 352 138.5C352 138.776 352.224 139 352.5 139C352.776 139 353 138.776 353 138.5C353 138.776 353.224 139 353.5 139C353.776 139 354 138.776 354 138.5C354 138.224 353.776 138 353.5 138C353.224 138 353 138.224 353 138.5C353 138.224 352.776 138 352.5 138Z" fill="#F8F8F8"/>
<path fill-rule="evenodd" clip-rule="evenodd" d="M310.5 68C310.224 68 310 68.2239 310 68.5C310 68.7761 310.224 69 310.5 69C310.776 69 311 68.7761 311 68.5C311 68.7761 311.224 69 311.5 69C311.776 69 312 68.7761 312 68.5C312 68.7761 312.224 69 312.5 69C312.776 69 313 68.7761 313 68.5C313 68.2239 312.776 68 312.5 68C312.224 68 312 68.2239 312 68.5C312 68.2239 311.776 68 311.5 68C311.224 68 311 68.2239 311 68.5C311 68.2239 310.776 68 310.5 68ZM309 69.5C309 69.2239 309.224 69 309.5 69C309.776 69 310 69.2239 310 69.5C310 69.7761 309.776 70 309.5 70C309.224 70 309 69.7761 309 69.5ZM308.5 70C308.224 70 308 70.2239 308 70.5C308 70.7761 308.224 71 308.5 71C308.224 71 308 71.2239 308 71.5C308 71.7761 308.224 72 308.5 72C308.224 72 308 72.2239 308 72.5C308 72.7761 308.224 73 308.5 73C308.776 73 309 72.7761 309 72.5C309 72.2239 308.776 72 308.5 72C308.776 72 309 71.7761 309 71.5C309 71.2239 308.776 71 308.5 71C308.776 71 309 70.7761 309 70.5C309 70.2239 308.776 70 308.5 70ZM309.5 73C309.224 73 309 73.2239 309 73.5C309 73.7761 309.224 74 309.5 74C309.776 74 310 73.7761 310 73.5C310 73.7761 310.224 74 310.5 74C310.776 74 311 73.7761 311 73.5C311 73.7761 311.224 74 311.5 74C311.776 74 312 73.7761 312 73.5C312 73.7761 312.224 74 312.5 74C312.776 74 313 73.7761 313 73.5C313 73.7761 313.224 74 313.5 74C313.776 74 314 73.7761 314 73.5C314 73.7761 314.224 74 314.5 74C314.776 74 315 73.7761 315 73.5C315 73.7761 315.224 74 315.5 74C315.776 74 316 73.7761 316 73.5C316 73.7761 316.224 74 316.5 74C316.776 74 317 73.7761 317 73.5C317 73.2239 316.776 73 316.5 73C316.224 73 316 73.2239 316 73.5C316 73.2239 315.776 73 315.5 73C315.224 73 315 73.2239 315 73.5C315 73.2239 314.776 73 314.5 73C314.224 73 314 73.2239 314 73.5C314 73.2239 313.776 73 313.5 73C313.224 73 313 73.2239 313 73.5C313 73.2239 312.776 73 312.5 73C312.224 73 312 73.2239 312 73.5C312 73.2239 311.776 73 311.5 73C311.224 73 311 73.2239 311 73.5C311 73.2239 310.776 73 310.5 73C310.224 73 310 73.2239 310 73.5C310 73.2239 309.776 73 309.5 73ZM317 72.5C317 72.2239 317.224 72 317.5 72C317.776 72 318 72.2239 318 72.5C318 72.7761 317.776 73 317.5 73C317.224 73 317 72.7761 317 72.5ZM317 71.5C317 71.2239 317.224 71 317.5 71C317.776 71 318 71.2239 318 71.5C318 71.7761 317.776 72 317.5 72C317.224 72 317 71.7761 317 71.5ZM313 69.5C313 69.2239 313.224 69 313.5 69C313.776 69 314 69.2239 314 69.5C314 69.7761 313.776 70 313.5 70C313.224 70 313 69.7761 313 69.5ZM314.5 70C314.224 70 314 70.2239 314 70.5C314 70.7761 314.224 71 314.5 71C314.776 71 315 70.7761 315 70.5C315 70.7761 315.224 71 315.5 71C315.776 71 316 70.7761 316 70.5C316 70.7761 316.224 71 316.5 71C316.776 71 317 70.7761 317 70.5C317 70.2239 316.776 70 316.5 70C316.224 70 316 70.2239 316 70.5C316 70.2239 315.776 70 315.5 70C315.224 70 315 70.2239 315 70.5C315 70.2239 314.776 70 314.5 70Z" fill="#F8F8F8"/>
<path fill-rule="evenodd" clip-rule="evenodd" d="M270 129.5C270 129.224 270.224 129 270.5 129C270.776 129 271 129.224 271 129.5C271 129.776 270.776 130 270.5 130C270.224 130 270 129.776 270 129.5ZM272 129.5C272 129.776 271.776 130 271.5 130C271.224 130 271 129.776 271 129.5C271 129.224 271.224 129 271.5 129C271.776 129 272 129.224 272 129.5ZM273 129.5C273 129.776 272.776 130 272.5 130C272.224 130 272 129.776 272 129.5C272 129.224 272.224 129 272.5 129C272.776 129 273 129.224 273 129.5ZM273 129.5C273 129.224 273.224 129 273.5 129C273.776 129 274 129.224 274 129.5C274 129.776 273.776 130 273.5 130C273.224 130 273 129.776 273 129.5ZM269.5 130C269.224 130 269 130.224 269 130.5C269 130.776 269.224 131 269.5 131C269.224 131 269 131.224 269 131.5C269 131.776 269.224 132 269.5 132C269.776 132 270 131.776 270 131.5C270 131.224 269.776 131 269.5 131C269.776 131 270 130.776 270 130.5C270 130.224 269.776 130 269.5 130ZM271.5 131C271.224 131 271 131.224 271 131.5C271 131.776 271.224 132 271.5 132C271.224 132 271 132.224 271 132.5C271 132.776 271.224 133 271.5 133C271.224 133 271 133.224 271 133.5C271 133.776 271.224 134 271.5 134C271.224 134 271 134.224 271 134.5C271 134.776 271.224 135 271.5 135C271.224 135 271 135.224 271 135.5C271 135.776 271.224 136 271.5 136C271.224 136 271 136.224 271 136.5C271 136.776 271.224 137 271.5 137C271.224 137 271 137.224 271 137.5C271 137.776 271.224 138 271.5 138C271.776 138 272 137.776 272 137.5C272 137.224 271.776 137 271.5 137C271.776 137 272 136.776 272 136.5C272 136.224 271.776 136 271.5 136C271.776 136 272 135.776 272 135.5C272 135.224 271.776 135 271.5 135C271.776 135 272 134.776 272 134.5C272 134.224 271.776 134 271.5 134C271.776 134 272 133.776 272 133.5C272 133.224 271.776 133 271.5 133C271.776 133 272 132.776 272 132.5C272 132.224 271.776 132 271.5 132C271.776 132 272 131.776 272 131.5C272 131.224 271.776 131 271.5 131ZM276 134.5C276 134.224 276.224 134 276.5 134C276.776 134 277 134.224 277 134.5C277 134.776 276.776 135 276.5 135C276.224 135 276 134.776 276 134.5ZM276.5 136C276.224 136 276 135.776 276 135.5C276 135.224 276.224 135 276.5 135C276.776 135 277 135.224 277 135.5C277 135.776 276.776 136 276.5 136ZM276.5 136C276.776 136 277 136.224 277 136.5C277 136.776 276.776 137 276.5 137C276.224 137 276 136.776 276 136.5C276 136.224 276.224 136 276.5 136ZM276.5 133C276.224 133 276 133.224 276 133.5C276 133.776 276.224 134 276.5 134C276.776 134 277 133.776 277 133.5C277 133.224 276.776 133 276.5 133ZM276 132.5C276 132.776 276.224 133 276.5 133C276.776 133 277 132.776 277 132.5C277 132.224 276.776 132 276.5 132C276.224 132 276 132.224 276 132.5ZM274.5 138C274.224 138 274 138.224 274 138.5C274 138.224 273.776 138 273.5 138C273.224 138 273 138.224 273 138.5C273 138.224 272.776 138 272.5 138C272.224 138 272 138.224 272 138.5C272 138.776 272.224 139 272.5 139C272.776 139 273 138.776 273 138.5C273 138.776 273.224 139 273.5 139C273.776 139 274 138.776 274 138.5C274 138.776 274.224 139 274.5 139C274.776 139 275 138.776 275 138.5C275 138.224 274.776 138 274.5 138ZM270 138.5C270 138.224 270.224 138 270.5 138C270.776 138 271 138.224 271 138.5C271 138.776 270.776 139 270.5 139C270.224 139 270 138.776 270 138.5ZM269.5 138C269.776 138 270 138.224 270 138.5C270 138.776 269.776 139 269.5 139C269.224 139 269 138.776 269 138.5C269 138.224 269.224 138 269.5 138ZM275 131.5C275 131.224 275.224 131 275.5 131C275.776 131 276 131.224 276 131.5C276 131.776 275.776 132 275.5 132C275.224 132 275 131.776 275 131.5ZM274.5 130C274.224 130 274 130.224 274 130.5C274 130.776 274.224 131 274.5 131C274.776 131 275 130.776 275 130.5C275 130.224 274.776 130 274.5 130ZM275.5 137C275.224 137 275 137.224 275 137.5C275 137.776 275.224 138 275.5 138C275.776 138 276 137.776 276 137.5C276 137.224 275.776 137 275.5 137Z" fill="#F8F8F8"/>
</svg>