<svg xmlns="http://www.w3.org/2000/svg" viewBox="48.0 128.0 12.0 12.0" fill="none">
<path fill-rule="evenodd" clip-rule="evenodd" d="M52 129.5C52 129.224 52.2239 129 52.5 129C52.7761 129 53 129.224 53 129.5C53 129.776 52.7761 130 52.5 130C52.2239 130 52 129.776 52 129.5ZM54 129.5C54 129.776 53.7761 130 53.5 130C53.2239 130 53 129.776 53 129.5C53 129.224 53.2239 129 53.5 129C53.7761 129 54 129.224 54 129.5ZM55 129.5C55 129.776 54.7761 130 54.5 130C54.2239 130 54 129.776 54 129.5C54 129.224 54.2239 129 54.5 129C54.7761 129 55 129.224 55 129.5ZM55 129.5C55 129.224 55.2239 129 55.5 129C55.7761 129 56 129.224 56 129.5C56 129.776 55.7761 130 55.5 130C55.2239 130 55 129.776 55 129.5ZM51 130.5C51 130.224 51.2239 130 51.5 130C51.7761 130 52 130.224 52 130.5C52 130.776 51.7761 131 51.5 131C51.2239 131 51 130.776 51 130.5ZM51.5 132C51.2239 132 51 131.776 51 131.5C51 131.224 51.2239 131 51.5 131C51.7761 131 52 131.224 52 131.5C52 131.776 51.7761 132 51.5 132ZM52 132.5C52 132.224 51.7761 132 51.5 132C51.2239 132 51 132.224 51 132.5C51 132.224 50.7761 132 50.5 132C50.2239 132 50 132.224 50 132.5C50 132.776 50.2239 133 50.5 133C50.7761 133 51 132.776 51 132.5C51 132.776 51.2239 133 51.5 133C51.7761 133 52 132.776 52 132.5ZM53 132.5C53 132.776 52.7761 133 52.5 133C52.2239 133 52 132.776 52 132.5C52 132.224 52.2239 132 52.5 132C52.7761 132 53 132.224 53 132.5ZM54 132.5C54 132.776 53.7761 133 53.5 133C53.2239 133 53 132.776 53 132.5C53 132.224 53.2239 132 53.5 132C53.7761 132 54 132.224 54 132.5ZM55 132.5C55 132.776 54.7761 133 54.5 133C54.2239 133 54 132.776 54 132.5C54 132.224 54.2239 132 54.5 132C54.7761 132 55 132.224 55 132.5ZM56 132.5C56 132.776 55.7761 133 55.5 133C55.2239 133 55 132.776 55 132.5C55 132.224 55.2239 132 55.5 132C55.7761 132 56 132.224 56 132.5ZM56.5 132C56.2239 132 56 132.224 56 132.5C56 132.776 56.2239 133 56.5 133C56.7761 133 57 132.776 57 132.5C57 132.776 57.2239 133 57.5 133C57.7761 133 58 132.776 58 132.5C58 132.224 57.7761 132 57.5 132C57.2239 132 57 132.224 57 132.5C57 132.224 56.7761 132 56.5 132ZM56.5 131C56.7761 131 57 131.224 57 131.5C57 131.776 56.7761 132 56.5 132C56.2239 132 56 131.776 56 131.5C56 131.224 56.2239 131 56.5 131ZM56.5 131C56.2239 131 56 130.776 56 130.5C56 130.224 56.2239 130 56.5 130C56.7761 130 57 130.224 57 130.5C57 130.776 56.7761 131 56.5 131ZM49.5 133C49.2239 133 49 133.224 49 133.5C49 133.776 49.2239 134 49.5 134C49.2239 134 49 134.224 49 134.5C49 134.776 49.2239 135 49.5 135C49.2239 135 49 135.224 49 135.5C49 135.776 49.2239 136 49.5 136C49.2239 136 49 136.224 49 136.5C49 136.776 49.2239 137 49.5 137C49.2239 137 49 137.224 49 137.5C49 137.776 49.2239 138 49.5 138C49.7761 138 50 137.776 50 137.5C50 137.224 49.7761 137 49.5 137C49.7761 137 50 136.776 50 136.5C50 136.224 49.7761 136 49.5 136C49.7761 136 50 135.776 50 135.5C50 135.224 49.7761 135 49.5 135C49.7761 135 50 134.776 50 134.5C50 134.224 49.7761 134 49.5 134C49.7761 134 50 133.776 50 133.5C50 133.224 49.7761 133 49.5 133ZM58.5 133C58.2239 133 58 133.224 58 133.5C58 133.776 58.2239 134 58.5 134C58.2239 134 58 134.224 58 134.5C58 134.776 58.2239 135 58.5 135C58.2239 135 58 135.224 58 135.5C58 135.776 58.2239 136 58.5 136C58.2239 136 58 136.224 58 136.5C58 136.776 58.2239 137 58.5 137C58.2239 137 58 137.224 58 137.5C58 137.776 58.2239 138 58.5 138C58.7761 138 59 137.776 59 137.5C59 137.224 58.7761 137 58.5 137C58.7761 137 59 136.776 59 136.5C59 136.224 58.7761 136 58.5 136C58.7761 136 59 135.776 59 135.5C59 135.224 58.7761 135 58.5 135C58.7761 135 59 134.776 59 134.5C59 134.224 58.7761 134 58.5 134C58.7761 134 59 133.776 59 133.5C59 133.224 58.7761 133 58.5 133ZM50 138.5C50 138.224 50.2239 138 50.5 138C50.7761 138 51 138.224 51 138.5C51 138.776 50.7761 139 50.5 139C50.2239 139 50 138.776 50 138.5ZM52 138.5C52 138.776 51.7761 139 51.5 139C51.2239 139 51 138.776 51 138.5C51 138.224 51.2239 138 51.5 138C51.7761 138 52 138.224 52 138.5ZM53 138.5C53 138.776 52.7761 139 52.5 139C52.2239 139 52 138.776 52 138.5C52 138.224 52.2239 138 52.5 138C52.7761 138 53 138.224 53 138.5ZM54 138.5C54 138.776 53.7761 139 53.5 139C53.2239 139 53 138.776 53 138.5C53 138.224 53.2239 138 53.5 138C53.7761 138 54 138.224 54 138.5ZM55 138.5C55 138.776 54.7761 139 54.5 139C54.2239 139 54 138.776 54 138.5C54 138.224 54.2239 138 54.5 138C54.7761 138 55 138.224 55 138.5ZM56 138.5C56 138.776 55.7761 139 55.5 139C55.2239 139 55 138.776 55 138.5C55 138.224 55.2239 138 55.5 138C55.7761 138 56 138.224 56 138.5ZM57 138.5C57 138.776 56.7761 139 56.5 139C56.2239 139 56 138.776 56 138.5C56 138.224 56.2239 138 56.5 138C56.7761 138 57 138.224 57 138.5ZM57 138.5C57 138.224 57.2239 138 57.5 138C57.7761 138 58 138.224 58 138.5C58 138.776 57.7761 139 57.5 139C57.2239 139 57 138.776 57 138.5ZM54 136.5C54 136.224 54.2239 136 54.5 136C54.7761 136 55 136.224 55 136.5C55 136.776 54.7761 137 54.5 137C54.2239 137 54 136.776 54 136.5ZM53.5 136C53.2239 136 53 136.224 53 136.5C53 136.776 53.2239 137 53.5 137C53.7761 137 54 136.776 54 136.5C54 136.224 53.7761 136 53.5 136ZM54 135.5C54 135.776 53.7761 136 53.5 136C53.2239 136 53 135.776 53 135.5C53 135.224 53.2239 135 53.5 135C53.7761 135 54 135.224 54 135.5ZM54 135.5C54 135.224 54.2239 135 54.5 135C54.7761 135 55 135.224 55 135.5C55 135.776 54.7761 136 54.5 136C54.2239 136 54 135.776 54 135.5Z" fill="#F8F8F8"/>
</svg>
