<svg xmlns="http://www.w3.org/2000/svg" viewBox="268.0 128.0 10.0 12.0" fill="none">
<path fill-rule="evenodd" clip-rule="evenodd" d="M270 129.5C270 129.224 270.224 129 270.5 129C270.776 129 271 129.224 271 129.5C271 129.776 270.776 130 270.5 130C270.224 130 270 129.776 270 129.5ZM272 129.5C272 129.776 271.776 130 271.5 130C271.224 130 271 129.776 271 129.5C271 129.224 271.224 129 271.5 129C271.776 129 272 129.224 272 129.5ZM273 129.5C273 129.776 272.776 130 272.5 130C272.224 130 272 129.776 272 129.5C272 129.224 272.224 129 272.5 129C272.776 129 273 129.224 273 129.5ZM273 129.5C273 129.224 273.224 129 273.5 129C273.776 129 274 129.224 274 129.5C274 129.776 273.776 130 273.5 130C273.224 130 273 129.776 273 129.5ZM269.5 130C269.224 130 269 130.224 269 130.5C269 130.776 269.224 131 269.5 131C269.224 131 269 131.224 269 131.5C269 131.776 269.224 132 269.5 132C269.776 132 270 131.776 270 131.5C270 131.224 269.776 131 269.5 131C269.776 131 270 130.776 270 130.5C270 130.224 269.776 130 269.5 130ZM271.5 131C271.224 131 271 131.224 271 131.5C271 131.776 271.224 132 271.5 132C271.224 132 271 132.224 271 132.5C271 132.776 271.224 133 271.5 133C271.224 133 271 133.224 271 133.5C271 133.776 271.224 134 271.5 134C271.224 134 271 134.224 271 134.5C271 134.776 271.224 135 271.5 135C271.224 135 271 135.224 271 135.5C271 135.776 271.224 136 271.5 136C271.224 136 271 136.224 271 136.5C271 136.776 271.224 137 271.5 137C271.224 137 271 137.224 271 137.5C271 137.776 271.224 138 271.5 138C271.776 138 272 137.776 272 137.5C272 137.224 271.776 137 271.5 137C271.776 137 272 136.776 272 136.5C272 136.224 271.776 136 271.5 136C271.776 136 272 135.776 272 135.5C272 135.224 271.776 135 271.5 135C271.776 135 272 134.776 272 134.5C272 134.224 271.776 134 271.5 134C271.776 134 272 133.776 272 133.5C272 133.224 271.776 133 271.5 133C271.776 133 272 132.776 272 132.5C272 132.224 271.776 132 271.5 132C271.776 132 272 131.776 272 131.5C272 131.224 271.776 131 271.5 131ZM276 134.5C276 134.224 276.224 134 276.5 134C276.776 134 277 134.224 277 134.5C277 134.776 276.776 135 276.5 135C276.224 135 276 134.776 276 134.5ZM276.5 136C276.224 136 276 135.776 276 135.5C276 135.224 276.224 135 276.5 135C276.776 135 277 135.224 277 135.5C277 135.776 276.776 136 276.5 136ZM276.5 136C276.776 136 277 136.224 277 136.5C277 136.776 276.776 137 276.5 137C276.224 137 276 136.776 276 136.5C276 136.224 276.224 136 276.5 136ZM276.5 133C276.224 133 276 133.224 276 133.5C276 133.776 276.224 134 276.5 134C276.776 134 277 133.776 277 133.5C277 133.224 276.776 133 276.5 133ZM276 132.5C276 132.776 276.224 133 276.5 133C276.776 133 277 132.776 277 132.5C277 132.224 276.776 132 276.5 132C276.224 132 276 132.224 276 132.5ZM274.5 138C274.224 138 274 138.224 274 138.5C274 138.224 273.776 138 273.5 138C273.224 138 273 138.224 273 138.5C273 138.224 272.776 138 272.5 138C272.224 138 272 138.224 272 138.5C272 138.776 272.224 139 272.5 139C272.776 139 273 138.776 273 138.5C273 138.776 273.224 139 273.5 139C273.776 139 274 138.776 274 138.5C274 138.776 274.224 139 274.5 139C274.776 139 275 138.776 275 138.5C275 138.224 274.776 138 274.5 138ZM270 138.5C270 138.224 270.224 138 270.5 138C270.776 138 271 138.224 271 138.5C271 138.776 270.776 139 270.5 139C270.224 139 270 138.776 270 138.5ZM269.5 138C269.776 138 270 138.224 270 138.5C270 138.776 269.776 139 269.5 139C269.224 139 269 138.776 269 138.5C269 138.224 269.224 138 269.5 138ZM275 131.5C275 131.224 275.224 131 275.5 131C275.776 131 276 131.224 276 131.5C276 131.776 275.776 132 275.5 132C275.224 132 275 131.776 275 131.5ZM274.5 130C274.224 130 274 130.224 274 130.5C274 130.776 274.224 131 274.5 131C274.776 131 275 130.776 275 130.5C275 130.224 274.776 130 274.5 130ZM275.5 137C275.224 137 275 137.224 275 137.5C275 137.776 275.224 138 275.5 138C275.776 138 276 137.776 276 137.5C276 137.224 275.776 137 275.5 137Z" fill="#F8F8F8"/>
</svg>
