<svg xmlns="http://www.w3.org/2000/svg" viewBox="345.0 128.0 12.0 12.0" fill="none">
<path fill-rule="evenodd" clip-rule="evenodd" d="M348 129.5C348 129.224 348.224 129 348.5 129C348.776 129 349 129.224 349 129.5C349 129.776 348.776 130 348.5 130C348.224 130 348 129.776 348 129.5ZM349 129.5C349 129.224 349.224 129 349.5 129C349.776 129 350 129.224 350 129.5C350 129.776 349.776 130 349.5 130C349.224 130 349 129.776 349 129.5ZM346.5 131C346.224 131 346 131.224 346 131.5C346 131.776 346.224 132 346.5 132C346.776 132 347 131.776 347 131.5C347 131.776 347.224 132 347.5 132C347.224 132 347 132.224 347 132.5C347 132.776 347.224 133 347.5 133C347.776 133 348 132.776 348 132.5C348 132.224 347.776 132 347.5 132C347.776 132 348 131.776 348 131.5C348 131.224 347.776 131 347.5 131C347.776 131 348 130.776 348 130.5C348 130.224 347.776 130 347.5 130C347.224 130 347 130.224 347 130.5C347 130.776 347.224 131 347.5 131C347.224 131 347 131.224 347 131.5C347 131.224 346.776 131 346.5 131ZM346.5 136C346.224 136 346 136.224 346 136.5C346 136.776 346.224 137 346.5 137C346.776 137 347 136.776 347 136.5C347 136.776 347.224 137 347.5 137C347.776 137 348 136.776 348 136.5C348 136.776 348.224 137 348.5 137C348.776 137 349 136.776 349 136.5C349 136.776 349.224 137 349.5 137C349.776 137 350 136.776 350 136.5C350 136.776 350.224 137 350.5 137C350.776 137 351 136.776 351 136.5C351 136.776 351.224 137 351.5 137C351.224 137 351 137.224 351 137.5C351 137.776 351.224 138 351.5 138C351.776 138 352 137.776 352 137.5C352 137.224 351.776 137 351.5 137C351.776 137 352 136.776 352 136.5C352 136.224 351.776 136 351.5 136C351.776 136 352 135.776 352 135.5C352 135.224 351.776 135 351.5 135C351.224 135 351 135.224 351 135.5C351 135.776 351.224 136 351.5 136C351.224 136 351 136.224 351 136.5C351 136.224 350.776 136 350.5 136C350.224 136 350 136.224 350 136.5C350 136.224 349.776 136 349.5 136C349.224 136 349 136.224 349 136.5C349 136.224 348.776 136 348.5 136C348.224 136 348 136.224 348 136.5C348 136.224 347.776 136 347.5 136C347.224 136 347 136.224 347 136.5C347 136.224 346.776 136 346.5 136ZM355 131.5C355 131.224 355.224 131 355.5 131C355.776 131 356 131.224 356 131.5C356 131.776 355.776 132 355.5 132C355.224 132 355 131.776 355 131.5ZM354 131.5C354 131.224 354.224 131 354.5 131C354.776 131 355 131.224 355 131.5C355 131.776 354.776 132 354.5 132C354.224 132 354 131.776 354 131.5ZM353 131.5C353 131.224 353.224 131 353.5 131C353.776 131 354 131.224 354 131.5C354 131.776 353.776 132 353.5 132C353.224 132 353 131.776 353 131.5ZM352 131.5C352 131.224 352.224 131 352.5 131C352.776 131 353 131.224 353 131.5C353 131.776 352.776 132 352.5 132C352.224 132 352 131.776 352 131.5ZM351 131.5C351 131.224 351.224 131 351.5 131C351.776 131 352 131.224 352 131.5C352 131.776 351.776 132 351.5 132C351.224 132 351 131.776 351 131.5ZM350.5 132C350.776 132 351 131.776 351 131.5C351 131.224 350.776 131 350.5 131C350.776 131 351 130.776 351 130.5C351 130.224 350.776 130 350.5 130C350.224 130 350 130.224 350 130.5C350 130.776 350.224 131 350.5 131C350.224 131 350 131.224 350 131.5C350 131.776 350.224 132 350.5 132ZM350.5 132C350.776 132 351 132.224 351 132.5C351 132.776 350.776 133 350.5 133C350.224 133 350 132.776 350 132.5C350 132.224 350.224 132 350.5 132ZM355.5 136C355.224 136 355 136.224 355 136.5C355 136.224 354.776 136 354.5 136C354.776 136 355 135.776 355 135.5C355 135.224 354.776 135 354.5 135C354.224 135 354 135.224 354 135.5C354 135.776 354.224 136 354.5 136C354.224 136 354 136.224 354 136.5C354 136.776 354.224 137 354.5 137C354.224 137 354 137.224 354 137.5C354 137.776 354.224 138 354.5 138C354.776 138 355 137.776 355 137.5C355 137.224 354.776 137 354.5 137C354.776 137 355 136.776 355 136.5C355 136.776 355.224 137 355.5 137C355.776 137 356 136.776 356 136.5C356 136.224 355.776 136 355.5 136ZM352.5 134C352.224 134 352 134.224 352 134.5C352 134.776 352.224 135 352.5 135C352.776 135 353 134.776 353 134.5C353 134.776 353.224 135 353.5 135C353.776 135 354 134.776 354 134.5C354 134.224 353.776 134 353.5 134C353.224 134 353 134.224 353 134.5C353 134.224 352.776 134 352.5 134ZM348 133.5C348 133.224 348.224 133 348.5 133C348.776 133 349 133.224 349 133.5C349 133.776 348.776 134 348.5 134C348.224 134 348 133.776 348 133.5ZM349 133.5C349 133.224 349.224 133 349.5 133C349.776 133 350 133.224 350 133.5C350 133.776 349.776 134 349.5 134C349.224 134 349 133.776 349 133.5ZM352.5 138C352.224 138 352 138.224 352 138.5C352 138.776 352.224 139 352.5 139C352.776 139 353 138.776 353 138.5C353 138.776 353.224 139 353.5 139C353.776 139 354 138.776 354 138.5C354 138.224 353.776 138 353.5 138C353.224 138 353 138.224 353 138.5C353 138.224 352.776 138 352.5 138Z" fill="#F8F8F8"/>
</svg>
