<svg xmlns="http://www.w3.org/2000/svg" viewBox="187.0 25.0 12.0 7.0" fill="none">
<path fill-rule="evenodd" clip-rule="evenodd" d="M189.5 26C189.224 26 189 26.2239 189 26.5C189 26.7761 189.224 27 189.5 27C189.776 27 190 26.7761 190 26.5C190 26.7761 190.224 27 190.5 27C190.776 27 191 26.7761 191 26.5C191 26.7761 191.224 27 191.5 27C191.776 27 192 26.7761 192 26.5C192 26.7761 192.224 27 192.5 27C192.224 27 192 27.2239 192 27.5C192 27.7761 192.224 28 192.5 28C192.776 28 193 27.7761 193 27.5C193 27.7761 193.224 28 193.5 28C193.224 28 193 28.2239 193 28.5C193 28.7761 193.224 29 193.5 29C193.224 29 193 29.2239 193 29.5C193 29.2239 192.776 29 192.5 29C192.224 29 192 29.2239 192 29.5C192 29.7761 192.224 30 192.5 30C192.224 30 192 30.2239 192 30.5C192 30.2239 191.776 30 191.5 30C191.224 30 191 30.2239 191 30.5C191 30.2239 190.776 30 190.5 30C190.224 30 190 30.2239 190 30.5C190 30.2239 189.776 30 189.5 30C189.224 30 189 30.2239 189 30.5C189 30.7761 189.224 31 189.5 31C189.776 31 190 30.7761 190 30.5C190 30.7761 190.224 31 190.5 31C190.776 31 191 30.7761 191 30.5C191 30.7761 191.224 31 191.5 31C191.776 31 192 30.7761 192 30.5C192 30.7761 192.224 31 192.5 31C192.776 31 193 30.7761 193 30.5C193 30.2239 192.776 30 192.5 30C192.776 30 193 29.7761 193 29.5C193 29.7761 193.224 30 193.5 30C193.776 30 194 29.7761 194 29.5C194 29.2239 193.776 29 193.5 29C193.776 29 194 28.7761 194 28.5C194 28.2239 193.776 28 193.5 28C193.776 28 194 27.7761 194 27.5C194 27.2239 193.776 27 193.5 27C193.224 27 193 27.2239 193 27.5C193 27.2239 192.776 27 192.5 27C192.776 27 193 26.7761 193 26.5C193 26.2239 192.776 26 192.5 26C192.224 26 192 26.2239 192 26.5C192 26.2239 191.776 26 191.5 26C191.224 26 191 26.2239 191 26.5C191 26.2239 190.776 26 190.5 26C190.224 26 190 26.2239 190 26.5C190 26.2239 189.776 26 189.5 26ZM196.5 26C196.224 26 196 26.2239 196 26.5C196 26.2239 195.776 26 195.5 26C195.224 26 195 26.2239 195 26.5C195 26.2239 194.776 26 194.5 26C194.224 26 194 26.2239 194 26.5C194 26.7761 194.224 27 194.5 27C194.776 27 195 26.7761 195 26.5C195 26.7761 195.224 27 195.5 27C195.776 27 196 26.7761 196 26.5C196 26.7761 196.224 27 196.5 27C196.776 27 197 26.7761 197 26.5C197 26.2239 196.776 26 196.5 26ZM191.5 28C191.224 28 191 28.2239 191 28.5C191 28.7761 191.224 29 191.5 29C191.776 29 192 28.7761 192 28.5C192 28.2239 191.776 28 191.5 28ZM194.5 30C194.224 30 194 30.2239 194 30.5C194 30.7761 194.224 31 194.5 31C194.776 31 195 30.7761 195 30.5C195 30.7761 195.224 31 195.5 31C195.776 31 196 30.7761 196 30.5C196 30.7761 196.224 31 196.5 31C196.776 31 197 30.7761 197 30.5C197 30.2239 196.776 30 196.5 30C196.224 30 196 30.2239 196 30.5C196 30.2239 195.776 30 195.5 30C195.224 30 195 30.2239 195 30.5C195 30.2239 194.776 30 194.5 30ZM197 28.5C197 28.2239 197.224 28 197.5 28C197.776 28 198 28.2239 198 28.5C198 28.7761 197.776 29 197.5 29C197.224 29 197 28.7761 197 28.5ZM197.5 29C197.776 29 198 29.2239 198 29.5C198 29.7761 197.776 30 197.5 30C197.224 30 197 29.7761 197 29.5C197 29.2239 197.224 29 197.5 29ZM198 27.5C198 27.7761 197.776 28 197.5 28C197.224 28 197 27.7761 197 27.5C197 27.2239 197.224 27 197.5 27C197.776 27 198 27.2239 198 27.5ZM188 27.5C188 27.2239 188.224 27 188.5 27C188.776 27 189 27.2239 189 27.5C189 27.7761 188.776 28 188.5 28C188.224 28 188 27.7761 188 27.5ZM188.5 29C188.224 29 188 28.7761 188 28.5C188 28.2239 188.224 28 188.5 28C188.776 28 189 28.2239 189 28.5C189 28.7761 188.776 29 188.5 29ZM188.5 29C188.776 29 189 29.2239 189 29.5C189 29.7761 188.776 30 188.5 30C188.224 30 188 29.7761 188 29.5C188 29.2239 188.224 29 188.5 29Z" fill="#F8F8F8"/>
</svg>
