<svg xmlns="http://www.w3.org/2000/svg" viewBox="95.0 149.0 12.0 12.0" fill="none">
<path fill-rule="evenodd" clip-rule="evenodd" d="M98.5 150C98.2239 150 98 150.224 98 150.5C98 150.776 98.2239 151 98.5 151C98.2239 151 98 151.224 98 151.5C98 151.224 97.7761 151 97.5 151C97.2239 151 97 151.224 97 151.5C97 151.776 97.2239 152 97.5 152C97.2239 152 97 152.224 97 152.5C97 152.224 96.7761 152 96.5 152C96.2239 152 96 152.224 96 152.5C96 152.776 96.2239 153 96.5 153C96.2239 153 96 153.224 96 153.5C96 153.776 96.2239 154 96.5 154C96.2239 154 96 154.224 96 154.5C96 154.776 96.2239 155 96.5 155C96.2239 155 96 155.224 96 155.5C96 155.776 96.2239 156 96.5 156C96.2239 156 96 156.224 96 156.5C96 156.776 96.2239 157 96.5 157C96.2239 157 96 157.224 96 157.5C96 157.776 96.2239 158 96.5 158C96.7761 158 97 157.776 97 157.5C97 157.224 96.7761 157 96.5 157C96.7761 157 97 156.776 97 156.5C97 156.224 96.7761 156 96.5 156C96.7761 156 97 155.776 97 155.5C97 155.224 96.7761 155 96.5 155C96.7761 155 97 154.776 97 154.5C97 154.224 96.7761 154 96.5 154C96.7761 154 97 153.776 97 153.5C97 153.776 97.2239 154 97.5 154C97.7761 154 98 153.776 98 153.5C98 153.776 98.2239 154 98.5 154C98.2239 154 98 154.224 98 154.5C98 154.776 98.2239 155 98.5 155C98.7761 155 99 154.776 99 154.5C99 154.776 99.2239 155 99.5 155C99.2239 155 99 155.224 99 155.5C99 155.776 99.2239 156 99.5 156C99.2239 156 99 156.224 99 156.5C99 156.776 99.2239 157 99.5 157C99.7761 157 100 156.776 100 156.5C100 156.224 99.7761 156 99.5 156C99.7761 156 100 155.776 100 155.5C100 155.776 100.224 156 100.5 156C100.776 156 101 155.776 101 155.5C101 155.224 100.776 155 100.5 155C100.776 155 101 154.776 101 154.5C101 154.224 100.776 154 100.5 154C100.776 154 101 153.776 101 153.5C101 153.224 100.776 153 100.5 153C100.776 153 101 152.776 101 152.5C101 152.224 100.776 152 100.5 152C100.224 152 100 152.224 100 152.5C100 152.224 99.7761 152 99.5 152C99.2239 152 99 152.224 99 152.5C99 152.224 98.7761 152 98.5 152C98.7761 152 99 151.776 99 151.5C99 151.224 98.7761 151 98.5 151C98.7761 151 99 150.776 99 150.5C99 150.776 99.2239 151 99.5 151C99.7761 151 100 150.776 100 150.5C100 150.776 100.224 151 100.5 151C100.776 151 101 150.776 101 150.5C101 150.776 101.224 151 101.5 151C101.776 151 102 150.776 102 150.5C102 150.776 102.224 151 102.5 151C102.776 151 103 150.776 103 150.5C103 150.776 103.224 151 103.5 151C103.776 151 104 150.776 104 150.5C104 150.224 103.776 150 103.5 150C103.224 150 103 150.224 103 150.5C103 150.224 102.776 150 102.5 150C102.224 150 102 150.224 102 150.5C102 150.224 101.776 150 101.5 150C101.224 150 101 150.224 101 150.5C101 150.224 100.776 150 100.5 150C100.224 150 100 150.224 100 150.5C100 150.224 99.7761 150 99.5 150C99.2239 150 99 150.224 99 150.5C99 150.224 98.7761 150 98.5 150ZM98 152.5C98 152.224 97.7761 152 97.5 152C97.7761 152 98 151.776 98 151.5C98 151.776 98.2239 152 98.5 152C98.2239 152 98 152.224 98 152.5ZM98.5 153C98.2239 153 98 153.224 98 153.5C98 153.224 97.7761 153 97.5 153C97.7761 153 98 152.776 98 152.5C98 152.776 98.2239 153 98.5 153ZM99 153.5C99 153.776 98.7761 154 98.5 154C98.7761 154 99 154.224 99 154.5C99 154.224 99.2239 154 99.5 154C99.7761 154 100 154.224 100 154.5C100 154.776 99.7761 155 99.5 155C99.7761 155 100 155.224 100 155.5C100 155.224 100.224 155 100.5 155C100.224 155 100 154.776 100 154.5C100 154.224 100.224 154 100.5 154C100.224 154 100 153.776 100 153.5C100 153.224 100.224 153 100.5 153C100.224 153 100 152.776 100 152.5C100 152.776 99.7761 153 99.5 153C99.2239 153 99 152.776 99 152.5C99 152.776 98.7761 153 98.5 153C98.7761 153 99 153.224 99 153.5ZM99 153.5C99 153.224 99.2239 153 99.5 153C99.7761 153 100 153.224 100 153.5C100 153.776 99.7761 154 99.5 154C99.2239 154 99 153.776 99 153.5ZM97.5 153C97.2239 153 97 153.224 97 153.5C97 153.224 96.7761 153 96.5 153C96.7761 153 97 152.776 97 152.5C97 152.776 97.2239 153 97.5 153ZM98 159.5C98 159.224 98.2239 159 98.5 159C98.7761 159 99 159.224 99 159.5C99 159.776 98.7761 160 98.5 160C98.2239 160 98 159.776 98 159.5ZM100 159.5C100 159.776 99.7761 160 99.5 160C99.2239 160 99 159.776 99 159.5C99 159.224 99.2239 159 99.5 159C99.7761 159 100 159.224 100 159.5ZM101 159.5C101 159.776 100.776 160 100.5 160C100.224 160 100 159.776 100 159.5C100 159.224 100.224 159 100.5 159C100.776 159 101 159.224 101 159.5ZM102 159.5C102 159.776 101.776 160 101.5 160C101.224 160 101 159.776 101 159.5C101 159.224 101.224 159 101.5 159C101.776 159 102 159.224 102 159.5ZM103 159.5C103 159.776 102.776 160 102.5 160C102.224 160 102 159.776 102 159.5C102 159.224 102.224 159 102.5 159C102.776 159 103 159.224 103 159.5ZM103 159.5C103 159.224 103.224 159 103.5 159C103.776 159 104 159.224 104 159.5C104 159.776 103.776 160 103.5 160C103.224 160 103 159.776 103 159.5ZM105.5 152C105.224 152 105 152.224 105 152.5C105 152.776 105.224 153 105.5 153C105.224 153 105 153.224 105 153.5C105 153.224 104.776 153 104.5 153C104.224 153 104 153.224 104 153.5C104 153.224 103.776 153 103.5 153C103.224 153 103 153.224 103 153.5C103 153.224 102.776 153 102.5 153C102.224 153 102 153.224 102 153.5C102 153.776 102.224 154 102.5 154C102.776 154 103 153.776 103 153.5C103 153.776 103.224 154 103.5 154C103.224 154 103 154.224 103 154.5C103 154.776 103.224 155 103.5 155C103.224 155 103 155.224 103 155.5C103 155.224 102.776 155 102.5 155C102.224 155 102 155.224 102 155.5C102 155.776 102.224 156 102.5 156C102.776 156 103 155.776 103 155.5C103 155.776 103.224 156 103.5 156C103.224 156 103 156.224 103 156.5C103 156.776 103.224 157 103.5 157C103.776 157 104 156.776 104 156.5C104 156.224 103.776 156 103.5 156C103.776 156 104 155.776 104 155.5C104 155.776 104.224 156 104.5 156C104.776 156 105 155.776 105 155.5C105 155.776 105.224 156 105.5 156C105.224 156 105 156.224 105 156.5C105 156.776 105.224 157 105.5 157C105.224 157 105 157.224 105 157.5C105 157.776 105.224 158 105.5 158C105.776 158 106 157.776 106 157.5C106 157.224 105.776 157 105.5 157C105.776 157 106 156.776 106 156.5C106 156.224 105.776 156 105.5 156C105.776 156 106 155.776 106 155.5C106 155.224 105.776 155 105.5 155C105.776 155 106 154.776 106 154.5C106 154.224 105.776 154 105.5 154C105.776 154 106 153.776 106 153.5C106 153.224 105.776 153 105.5 153C105.776 153 106 152.776 106 152.5C106 152.224 105.776 152 105.5 152ZM105 154.5C105 154.224 105.224 154 105.5 154C105.224 154 105 153.776 105 153.5C105 153.776 104.776 154 104.5 154C104.224 154 104 153.776 104 153.5C104 153.776 103.776 154 103.5 154C103.776 154 104 154.224 104 154.5C104 154.776 103.776 155 103.5 155C103.776 155 104 155.224 104 155.5C104 155.224 104.224 155 104.5 155C104.776 155 105 155.224 105 155.5C105 155.224 105.224 155 105.5 155C105.224 155 105 154.776 105 154.5ZM105 154.5C105 154.776 104.776 155 104.5 155C104.224 155 104 154.776 104 154.5C104 154.224 104.224 154 104.5 154C104.776 154 105 154.224 105 154.5ZM97 158.5C97 158.224 97.2239 158 97.5 158C97.7761 158 98 158.224 98 158.5C98 158.776 97.7761 159 97.5 159C97.2239 159 97 158.776 97 158.5ZM104.5 151C104.224 151 104 151.224 104 151.5C104 151.776 104.224 152 104.5 152C104.776 152 105 151.776 105 151.5C105 151.224 104.776 151 104.5 151ZM104 158.5C104 158.224 104.224 158 104.5 158C104.776 158 105 158.224 105 158.5C105 158.776 104.776 159 104.5 159C104.224 159 104 158.776 104 158.5ZM100 157.5C100 157.224 100.224 157 100.5 157C100.776 157 101 157.224 101 157.5C101 157.776 100.776 158 100.5 158C100.224 158 100 157.776 100 157.5Z" fill="#F8F8F8"/>
</svg>
