<svg xmlns="http://www.w3.org/2000/svg" viewBox="363.0 23.0 12.0 12.0" fill="none">
<path fill-rule="evenodd" clip-rule="evenodd" d="M365 24.5C365 24.2239 365.224 24 365.5 24C365.776 24 366 24.2239 366 24.5C366 24.7761 365.776 25 365.5 25C365.224 25 365 24.7761 365 24.5ZM364.5 25C364.224 25 364 24.7761 364 24.5C364 24.2239 364.224 24 364.5 24C364.776 24 365 24.2239 365 24.5C365 24.7761 364.776 25 364.5 25ZM364.5 26C364.224 26 364 25.7761 364 25.5C364 25.2239 364.224 25 364.5 25C364.776 25 365 25.2239 365 25.5C365 25.7761 364.776 26 364.5 26ZM364.5 27C364.224 27 364 26.7761 364 26.5C364 26.2239 364.224 26 364.5 26C364.776 26 365 26.2239 365 26.5C365 26.7761 364.776 27 364.5 27ZM364.5 28C364.224 28 364 27.7761 364 27.5C364 27.2239 364.224 27 364.5 27C364.776 27 365 27.2239 365 27.5C365 27.7761 364.776 28 364.5 28ZM364.5 29C364.224 29 364 28.7761 364 28.5C364 28.2239 364.224 28 364.5 28C364.776 28 365 28.2239 365 28.5C365 28.7761 364.776 29 364.5 29ZM364.5 30C364.224 30 364 29.7761 364 29.5C364 29.2239 364.224 29 364.5 29C364.776 29 365 29.2239 365 29.5C365 29.7761 364.776 30 364.5 30ZM364.5 31C364.224 31 364 30.7761 364 30.5C364 30.2239 364.224 30 364.5 30C364.776 30 365 30.2239 365 30.5C365 30.7761 364.776 31 364.5 31ZM365 31.5C365 31.7761 364.776 32 364.5 32C364.224 32 364 31.7761 364 31.5C364 31.2239 364.224 31 364.5 31C364.776 31 365 31.2239 365 31.5ZM366 31.5C366 31.2239 365.776 31 365.5 31C365.224 31 365 31.2239 365 31.5C365 31.7761 365.224 32 365.5 32C365.224 32 365 32.2239 365 32.5C365 32.7761 365.224 33 365.5 33C365.224 33 365 33.2239 365 33.5C365 33.7761 365.224 34 365.5 34C365.776 34 366 33.7761 366 33.5C366 33.2239 365.776 33 365.5 33C365.776 33 366 32.7761 366 32.5C366 32.2239 365.776 32 365.5 32C365.776 32 366 31.7761 366 31.5ZM367 31.5C367 31.7761 366.776 32 366.5 32C366.224 32 366 31.7761 366 31.5C366 31.2239 366.224 31 366.5 31C366.776 31 367 31.2239 367 31.5ZM368 31.5C368 31.7761 367.776 32 367.5 32C367.224 32 367 31.7761 367 31.5C367 31.2239 367.224 31 367.5 31C367.776 31 368 31.2239 368 31.5ZM369 31.5C369 31.7761 368.776 32 368.5 32C368.224 32 368 31.7761 368 31.5C368 31.2239 368.224 31 368.5 31C368.776 31 369 31.2239 369 31.5ZM370 31.5C370 31.7761 369.776 32 369.5 32C369.224 32 369 31.7761 369 31.5C369 31.2239 369.224 31 369.5 31C369.776 31 370 31.2239 370 31.5ZM371 31.5C371 31.7761 370.776 32 370.5 32C370.224 32 370 31.7761 370 31.5C370 31.2239 370.224 31 370.5 31C370.776 31 371 31.2239 371 31.5ZM372 31.5C372 31.7761 371.776 32 371.5 32C371.224 32 371 31.7761 371 31.5C371 31.2239 371.224 31 371.5 31C371.776 31 372 31.2239 372 31.5ZM373 31.5C373 31.2239 372.776 31 372.5 31C372.224 31 372 31.2239 372 31.5C372 31.7761 372.224 32 372.5 32C372.224 32 372 32.2239 372 32.5C372 32.7761 372.224 33 372.5 33C372.224 33 372 33.2239 372 33.5C372 33.7761 372.224 34 372.5 34C372.776 34 373 33.7761 373 33.5C373 33.2239 372.776 33 372.5 33C372.776 33 373 32.7761 373 32.5C373 32.2239 372.776 32 372.5 32C372.776 32 373 31.7761 373 31.5ZM373.5 31C373.776 31 374 31.2239 374 31.5C374 31.7761 373.776 32 373.5 32C373.224 32 373 31.7761 373 31.5C373 31.2239 373.224 31 373.5 31ZM373.5 30C373.776 30 374 30.2239 374 30.5C374 30.7761 373.776 31 373.5 31C373.224 31 373 30.7761 373 30.5C373 30.2239 373.224 30 373.5 30ZM373.5 29C373.776 29 374 29.2239 374 29.5C374 29.7761 373.776 30 373.5 30C373.224 30 373 29.7761 373 29.5C373 29.2239 373.224 29 373.5 29ZM373.5 28C373.776 28 374 28.2239 374 28.5C374 28.7761 373.776 29 373.5 29C373.224 29 373 28.7761 373 28.5C373 28.2239 373.224 28 373.5 28ZM373.5 27C373.776 27 374 27.2239 374 27.5C374 27.7761 373.776 28 373.5 28C373.224 28 373 27.7761 373 27.5C373 27.2239 373.224 27 373.5 27ZM373.5 26C373.776 26 374 26.2239 374 26.5C374 26.7761 373.776 27 373.5 27C373.224 27 373 26.7761 373 26.5C373 26.2239 373.224 26 373.5 26ZM373.5 25C373.224 25 373 25.2239 373 25.5C373 25.7761 373.224 26 373.5 26C373.776 26 374 25.7761 374 25.5C374 25.2239 373.776 25 373.5 25ZM373 24.5C373 24.7761 373.224 25 373.5 25C373.776 25 374 24.7761 374 24.5C374 24.2239 373.776 24 373.5 24C373.224 24 373 24.2239 373 24.5ZM372 24.5C372 24.2239 372.224 24 372.5 24C372.776 24 373 24.2239 373 24.5C373 24.7761 372.776 25 372.5 25C372.224 25 372 24.7761 372 24.5ZM371 24.5C371 24.2239 371.224 24 371.5 24C371.776 24 372 24.2239 372 24.5C372 24.7761 371.776 25 371.5 25C371.224 25 371 24.7761 371 24.5ZM370 24.5C370 24.2239 370.224 24 370.5 24C370.776 24 371 24.2239 371 24.5C371 24.7761 370.776 25 370.5 25C370.224 25 370 24.7761 370 24.5ZM369 24.5C369 24.2239 369.224 24 369.5 24C369.776 24 370 24.2239 370 24.5C370 24.7761 369.776 25 369.5 25C369.224 25 369 24.7761 369 24.5ZM368 24.5C368 24.2239 368.224 24 368.5 24C368.776 24 369 24.2239 369 24.5C369 24.7761 368.776 25 368.5 25C368.224 25 368 24.7761 368 24.5ZM367 24.5C367 24.2239 367.224 24 367.5 24C367.776 24 368 24.2239 368 24.5C368 24.7761 367.776 25 367.5 25C367.224 25 367 24.7761 367 24.5ZM367 24.5C367 24.2239 366.776 24 366.5 24C366.224 24 366 24.2239 366 24.5C366 24.7761 366.224 25 366.5 25C366.776 25 367 24.7761 367 24.5ZM366.5 26C366.224 26 366 26.2239 366 26.5C366 26.7761 366.224 27 366.5 27C366.224 27 366 27.2239 366 27.5C366 27.7761 366.224 28 366.5 28C366.224 28 366 28.2239 366 28.5C366 28.7761 366.224 29 366.5 29C366.224 29 366 29.2239 366 29.5C366 29.7761 366.224 30 366.5 30C366.776 30 367 29.7761 367 29.5C367 29.7761 367.224 30 367.5 30C367.776 30 368 29.7761 368 29.5C368 29.7761 368.224 30 368.5 30C368.776 30 369 29.7761 369 29.5C369 29.2239 368.776 29 368.5 29C368.776 29 369 28.7761 369 28.5C369 28.2239 368.776 28 368.5 28C368.776 28 369 27.7761 369 27.5C369 27.2239 368.776 27 368.5 27C368.776 27 369 26.7761 369 26.5C369 26.2239 368.776 26 368.5 26C368.224 26 368 26.2239 368 26.5C368 26.2239 367.776 26 367.5 26C367.224 26 367 26.2239 367 26.5C367 26.2239 366.776 26 366.5 26ZM367 26.5C367 26.7761 367.224 27 367.5 27C367.776 27 368 26.7761 368 26.5C368 26.7761 368.224 27 368.5 27C368.224 27 368 27.2239 368 27.5C368 27.7761 368.224 28 368.5 28C368.224 28 368 28.2239 368 28.5C368 28.7761 368.224 29 368.5 29C368.224 29 368 29.2239 368 29.5C368 29.2239 367.776 29 367.5 29C367.224 29 367 29.2239 367 29.5C367 29.2239 366.776 29 366.5 29C366.776 29 367 28.7761 367 28.5C367 28.2239 366.776 28 366.5 28C366.776 28 367 27.7761 367 27.5C367 27.2239 366.776 27 366.5 27C366.776 27 367 26.7761 367 26.5ZM370.5 26C370.224 26 370 26.2239 370 26.5C370 26.7761 370.224 27 370.5 27C370.776 27 371 26.7761 371 26.5C371 26.2239 370.776 26 370.5 26ZM371 28.5C371 28.2239 371.224 28 371.5 28C371.776 28 372 28.2239 372 28.5C372 28.7761 371.776 29 371.5 29C371.224 29 371 28.7761 371 28.5Z" fill="#F8F8F8"/>
</svg>
