<svg xmlns="http://www.w3.org/2000/svg" viewBox="48.0 192.0 12.0 11.0" fill="none">
<path fill-rule="evenodd" clip-rule="evenodd" d="M51 193.5C51 193.224 51.2239 193 51.5 193C51.7761 193 52 193.224 52 193.5C52 193.776 51.7761 194 51.5 194C51.2239 194 51 193.776 51 193.5ZM52 194.5C52 194.224 51.7761 194 51.5 194C51.2239 194 51 194.224 51 194.5C51 194.224 50.7761 194 50.5 194C50.2239 194 50 194.224 50 194.5C50 194.776 50.2239 195 50.5 195C50.2239 195 50 195.224 50 195.5C50 195.224 49.7761 195 49.5 195C49.2239 195 49 195.224 49 195.5C49 195.776 49.2239 196 49.5 196C49.2239 196 49 196.224 49 196.5C49 196.776 49.2239 197 49.5 197C49.2239 197 49 197.224 49 197.5C49 197.776 49.2239 198 49.5 198C49.7761 198 50 197.776 50 197.5C50 197.776 50.2239 198 50.5 198C50.2239 198 50 198.224 50 198.5C50 198.776 50.2239 199 50.5 199C50.7761 199 51 198.776 51 198.5C51 198.776 51.2239 199 51.5 199C51.2239 199 51 199.224 51 199.5C51 199.776 51.2239 200 51.5 200C51.7761 200 52 199.776 52 199.5C52 199.776 52.2239 200 52.5 200C52.2239 200 52 200.224 52 200.5C52 200.776 52.2239 201 52.5 201C52.7761 201 53 200.776 53 200.5C53 200.776 53.2239 201 53.5 201C53.2239 201 53 201.224 53 201.5C53 201.776 53.2239 202 53.5 202C53.7761 202 54 201.776 54 201.5C54 201.776 54.2239 202 54.5 202C54.7761 202 55 201.776 55 201.5C55 201.224 54.7761 201 54.5 201C54.7761 201 55 200.776 55 200.5C55 200.776 55.2239 201 55.5 201C55.7761 201 56 200.776 56 200.5C56 200.224 55.7761 200 55.5 200C55.7761 200 56 199.776 56 199.5C56 199.776 56.2239 200 56.5 200C56.7761 200 57 199.776 57 199.5C57 199.224 56.7761 199 56.5 199C56.7761 199 57 198.776 57 198.5C57 198.776 57.2239 199 57.5 199C57.7761 199 58 198.776 58 198.5C58 198.224 57.7761 198 57.5 198C57.7761 198 58 197.776 58 197.5C58 197.776 58.2239 198 58.5 198C58.7761 198 59 197.776 59 197.5C59 197.224 58.7761 197 58.5 197C58.7761 197 59 196.776 59 196.5C59 196.224 58.7761 196 58.5 196C58.7761 196 59 195.776 59 195.5C59 195.224 58.7761 195 58.5 195C58.2239 195 58 195.224 58 195.5C58 195.224 57.7761 195 57.5 195C57.7761 195 58 194.776 58 194.5C58 194.224 57.7761 194 57.5 194C57.2239 194 57 194.224 57 194.5C57 194.224 56.7761 194 56.5 194C56.7761 194 57 193.776 57 193.5C57 193.224 56.7761 193 56.5 193C56.2239 193 56 193.224 56 193.5C56 193.224 55.7761 193 55.5 193C55.2239 193 55 193.224 55 193.5C55 193.776 55.2239 194 55.5 194C55.2239 194 55 194.224 55 194.5C55 194.224 54.7761 194 54.5 194C54.2239 194 54 194.224 54 194.5C54 194.224 53.7761 194 53.5 194C53.2239 194 53 194.224 53 194.5C53 194.224 52.7761 194 52.5 194C52.7761 194 53 193.776 53 193.5C53 193.224 52.7761 193 52.5 193C52.2239 193 52 193.224 52 193.5C52 193.776 52.2239 194 52.5 194C52.2239 194 52 194.224 52 194.5ZM52.5 195C52.7761 195 53 194.776 53 194.5C53 194.776 53.2239 195 53.5 195C53.2239 195 53 195.224 53 195.5C53 195.224 52.7761 195 52.5 195ZM52 195.5C52 195.224 52.2239 195 52.5 195C52.2239 195 52 194.776 52 194.5C52 194.776 51.7761 195 51.5 195C51.2239 195 51 194.776 51 194.5C51 194.776 50.7761 195 50.5 195C50.7761 195 51 195.224 51 195.5C51 195.776 50.7761 196 50.5 196C50.2239 196 50 195.776 50 195.5C50 195.776 49.7761 196 49.5 196C49.7761 196 50 196.224 50 196.5C50 196.776 49.7761 197 49.5 197C49.7761 197 50 197.224 50 197.5C50 197.224 50.2239 197 50.5 197C50.7761 197 51 197.224 51 197.5C51 197.776 50.7761 198 50.5 198C50.7761 198 51 198.224 51 198.5C51 198.224 51.2239 198 51.5 198C51.7761 198 52 198.224 52 198.5C52 198.776 51.7761 199 51.5 199C51.7761 199 52 199.224 52 199.5C52 199.224 52.2239 199 52.5 199C52.7761 199 53 199.224 53 199.5C53 199.776 52.7761 200 52.5 200C52.7761 200 53 200.224 53 200.5C53 200.224 53.2239 200 53.5 200C53.7761 200 54 200.224 54 200.5C54 200.776 53.7761 201 53.5 201C53.7761 201 54 201.224 54 201.5C54 201.224 54.2239 201 54.5 201C54.2239 201 54 200.776 54 200.5C54 200.224 54.2239 200 54.5 200C54.7761 200 55 200.224 55 200.5C55 200.224 55.2239 200 55.5 200C55.2239 200 55 199.776 55 199.5C55 199.224 55.2239 199 55.5 199C55.7761 199 56 199.224 56 199.5C56 199.224 56.2239 199 56.5 199C56.2239 199 56 198.776 56 198.5C56 198.224 56.2239 198 56.5 198C56.7761 198 57 198.224 57 198.5C57 198.224 57.2239 198 57.5 198C57.2239 198 57 197.776 57 197.5C57 197.224 57.2239 197 57.5 197C57.7761 197 58 197.224 58 197.5C58 197.224 58.2239 197 58.5 197C58.2239 197 58 196.776 58 196.5C58 196.224 58.2239 196 58.5 196C58.2239 196 58 195.776 58 195.5C58 195.776 57.7761 196 57.5 196C57.2239 196 57 195.776 57 195.5C57 195.224 57.2239 195 57.5 195C57.2239 195 57 194.776 57 194.5C57 194.776 56.7761 195 56.5 195C56.2239 195 56 194.776 56 194.5C56 194.224 56.2239 194 56.5 194C56.2239 194 56 193.776 56 193.5C56 193.776 55.7761 194 55.5 194C55.7761 194 56 194.224 56 194.5C56 194.776 55.7761 195 55.5 195C55.2239 195 55 194.776 55 194.5C55 194.776 54.7761 195 54.5 195C54.2239 195 54 194.776 54 194.5C54 194.776 53.7761 195 53.5 195C53.7761 195 54 195.224 54 195.5C54 195.776 53.7761 196 53.5 196C53.2239 196 53 195.776 53 195.5C53 195.776 52.7761 196 52.5 196C52.2239 196 52 195.776 52 195.5ZM51.5 196C51.7761 196 52 195.776 52 195.5C52 195.224 51.7761 195 51.5 195C51.2239 195 51 195.224 51 195.5C51 195.776 51.2239 196 51.5 196ZM52 196.5C52 196.224 52.2239 196 52.5 196C52.7761 196 53 196.224 53 196.5C53 196.776 52.7761 197 52.5 197C52.2239 197 52 196.776 52 196.5ZM51.5 197C51.7761 197 52 196.776 52 196.5C52 196.224 51.7761 196 51.5 196C51.2239 196 51 196.224 51 196.5C51 196.224 50.7761 196 50.5 196C50.2239 196 50 196.224 50 196.5C50 196.776 50.2239 197 50.5 197C50.7761 197 51 196.776 51 196.5C51 196.776 51.2239 197 51.5 197ZM52 197.5C52 197.224 52.2239 197 52.5 197C52.7761 197 53 197.224 53 197.5C53 197.776 52.7761 198 52.5 198C52.2239 198 52 197.776 52 197.5ZM53 198.5C53 198.224 52.7761 198 52.5 198C52.2239 198 52 198.224 52 198.5C52 198.776 52.2239 199 52.5 199C52.7761 199 53 198.776 53 198.5ZM53.5 198C53.2239 198 53 197.776 53 197.5C53 197.224 53.2239 197 53.5 197C53.7761 197 54 197.224 54 197.5C54 197.776 53.7761 198 53.5 198ZM54 198.5C54 198.224 53.7761 198 53.5 198C53.2239 198 53 198.224 53 198.5C53 198.776 53.2239 199 53.5 199C53.2239 199 53 199.224 53 199.5C53 199.776 53.2239 200 53.5 200C53.7761 200 54 199.776 54 199.5C54 199.776 54.2239 200 54.5 200C54.7761 200 55 199.776 55 199.5C55 199.224 54.7761 199 54.5 199C54.7761 199 55 198.776 55 198.5C55 198.776 55.2239 199 55.5 199C55.7761 199 56 198.776 56 198.5C56 198.224 55.7761 198 55.5 198C55.7761 198 56 197.776 56 197.5C56 197.776 56.2239 198 56.5 198C56.7761 198 57 197.776 57 197.5C57 197.224 56.7761 197 56.5 197C56.7761 197 57 196.776 57 196.5C57 196.776 57.2239 197 57.5 197C57.7761 197 58 196.776 58 196.5C58 196.224 57.7761 196 57.5 196C57.2239 196 57 196.224 57 196.5C57 196.224 56.7761 196 56.5 196C56.7761 196 57 195.776 57 195.5C57 195.224 56.7761 195 56.5 195C56.2239 195 56 195.224 56 195.5C56 195.224 55.7761 195 55.5 195C55.2239 195 55 195.224 55 195.5C55 195.224 54.7761 195 54.5 195C54.2239 195 54 195.224 54 195.5C54 195.776 54.2239 196 54.5 196C54.2239 196 54 196.224 54 196.5C54 196.224 53.7761 196 53.5 196C53.2239 196 53 196.224 53 196.5C53 196.776 53.2239 197 53.5 197C53.7761 197 54 196.776 54 196.5C54 196.776 54.2239 197 54.5 197C54.2239 197 54 197.224 54 197.5C54 197.776 54.2239 198 54.5 198C54.2239 198 54 198.224 54 198.5ZM55 197.5C55 197.776 55.2239 198 55.5 198C55.2239 198 55 198.224 55 198.5C55 198.224 54.7761 198 54.5 198C54.7761 198 55 197.776 55 197.5ZM55.5 197C55.7761 197 56 197.224 56 197.5C56 197.224 56.2239 197 56.5 197C56.2239 197 56 196.776 56 196.5C56 196.224 56.2239 196 56.5 196C56.2239 196 56 195.776 56 195.5C56 195.776 55.7761 196 55.5 196C55.2239 196 55 195.776 55 195.5C55 195.776 54.7761 196 54.5 196C54.7761 196 55 196.224 55 196.5C55 196.776 54.7761 197 54.5 197C54.7761 197 55 197.224 55 197.5C55 197.224 55.2239 197 55.5 197ZM55.5 197C55.2239 197 55 196.776 55 196.5C55 196.224 55.2239 196 55.5 196C55.7761 196 56 196.224 56 196.5C56 196.776 55.7761 197 55.5 197ZM54 198.5C54 198.776 54.2239 199 54.5 199C54.2239 199 54 199.224 54 199.5C54 199.224 53.7761 199 53.5 199C53.7761 199 54 198.776 54 198.5ZM52 197.5C52 197.776 51.7761 198 51.5 198C51.2239 198 51 197.776 51 197.5C51 197.224 51.2239 197 51.5 197C51.7761 197 52 197.224 52 197.5Z" fill="#F8F8F8"/>
</svg>
