<svg xmlns="http://www.w3.org/2000/svg" viewBox="363.0 45.0 12.0 12.0" fill="none">
<path fill-rule="evenodd" clip-rule="evenodd" d="M364.5 46C364.224 46 364 46.2239 364 46.5C364 46.7761 364.224 47 364.5 47C364.224 47 364 47.2239 364 47.5C364 47.7761 364.224 48 364.5 48C364.224 48 364 48.2239 364 48.5C364 48.7761 364.224 49 364.5 49C364.224 49 364 49.2239 364 49.5C364 49.7761 364.224 50 364.5 50C364.224 50 364 50.2239 364 50.5C364 50.7761 364.224 51 364.5 51C364.224 51 364 51.2239 364 51.5C364 51.7761 364.224 52 364.5 52C364.224 52 364 52.2239 364 52.5C364 52.7761 364.224 53 364.5 53C364.224 53 364 53.2239 364 53.5C364 53.7761 364.224 54 364.5 54C364.224 54 364 54.2239 364 54.5C364 54.7761 364.224 55 364.5 55C364.224 55 364 55.2239 364 55.5C364 55.7761 364.224 56 364.5 56C364.776 56 365 55.7761 365 55.5C365 55.7761 365.224 56 365.5 56C365.776 56 366 55.7761 366 55.5C366 55.7761 366.224 56 366.5 56C366.776 56 367 55.7761 367 55.5C367 55.7761 367.224 56 367.5 56C367.776 56 368 55.7761 368 55.5C368 55.7761 368.224 56 368.5 56C368.776 56 369 55.7761 369 55.5C369 55.7761 369.224 56 369.5 56C369.776 56 370 55.7761 370 55.5C370 55.7761 370.224 56 370.5 56C370.776 56 371 55.7761 371 55.5C371 55.7761 371.224 56 371.5 56C371.776 56 372 55.7761 372 55.5C372 55.7761 372.224 56 372.5 56C372.776 56 373 55.7761 373 55.5C373 55.7761 373.224 56 373.5 56C373.776 56 374 55.7761 374 55.5C374 55.2239 373.776 55 373.5 55C373.776 55 374 54.7761 374 54.5C374 54.2239 373.776 54 373.5 54C373.776 54 374 53.7761 374 53.5C374 53.2239 373.776 53 373.5 53C373.776 53 374 52.7761 374 52.5C374 52.2239 373.776 52 373.5 52C373.776 52 374 51.7761 374 51.5C374 51.2239 373.776 51 373.5 51C373.776 51 374 50.7761 374 50.5C374 50.2239 373.776 50 373.5 50C373.776 50 374 49.7761 374 49.5C374 49.2239 373.776 49 373.5 49C373.776 49 374 48.7761 374 48.5C374 48.2239 373.776 48 373.5 48C373.224 48 373 48.2239 373 48.5C373 48.7761 373.224 49 373.5 49C373.224 49 373 49.2239 373 49.5C373 49.7761 373.224 50 373.5 50C373.224 50 373 50.2239 373 50.5C373 50.7761 373.224 51 373.5 51C373.224 51 373 51.2239 373 51.5C373 51.7761 373.224 52 373.5 52C373.224 52 373 52.2239 373 52.5C373 52.7761 373.224 53 373.5 53C373.224 53 373 53.2239 373 53.5C373 53.7761 373.224 54 373.5 54C373.224 54 373 54.2239 373 54.5C373 54.7761 373.224 55 373.5 55C373.224 55 373 55.2239 373 55.5C373 55.2239 372.776 55 372.5 55C372.224 55 372 55.2239 372 55.5C372 55.2239 371.776 55 371.5 55C371.776 55 372 54.7761 372 54.5C372 54.2239 371.776 54 371.5 54C371.776 54 372 53.7761 372 53.5C372 53.2239 371.776 53 371.5 53C371.224 53 371 53.2239 371 53.5C371 53.7761 371.224 54 371.5 54C371.224 54 371 54.2239 371 54.5C371 54.7761 371.224 55 371.5 55C371.224 55 371 55.2239 371 55.5C371 55.2239 370.776 55 370.5 55C370.224 55 370 55.2239 370 55.5C370 55.2239 369.776 55 369.5 55C369.224 55 369 55.2239 369 55.5C369 55.2239 368.776 55 368.5 55C368.224 55 368 55.2239 368 55.5C368 55.2239 367.776 55 367.5 55C367.224 55 367 55.2239 367 55.5C367 55.2239 366.776 55 366.5 55C366.776 55 367 54.7761 367 54.5C367 54.2239 366.776 54 366.5 54C366.776 54 367 53.7761 367 53.5C367 53.2239 366.776 53 366.5 53C366.224 53 366 53.2239 366 53.5C366 53.7761 366.224 54 366.5 54C366.224 54 366 54.2239 366 54.5C366 54.7761 366.224 55 366.5 55C366.224 55 366 55.2239 366 55.5C366 55.2239 365.776 55 365.5 55C365.224 55 365 55.2239 365 55.5C365 55.2239 364.776 55 364.5 55C364.776 55 365 54.7761 365 54.5C365 54.2239 364.776 54 364.5 54C364.776 54 365 53.7761 365 53.5C365 53.2239 364.776 53 364.5 53C364.776 53 365 52.7761 365 52.5C365 52.2239 364.776 52 364.5 52C364.776 52 365 51.7761 365 51.5C365 51.2239 364.776 51 364.5 51C364.776 51 365 50.7761 365 50.5C365 50.2239 364.776 50 364.5 50C364.776 50 365 49.7761 365 49.5C365 49.2239 364.776 49 364.5 49C364.776 49 365 48.7761 365 48.5C365 48.2239 364.776 48 364.5 48C364.776 48 365 47.7761 365 47.5C365 47.2239 364.776 47 364.5 47C364.776 47 365 46.7761 365 46.5C365 46.7761 365.224 47 365.5 47C365.776 47 366 46.7761 366 46.5C366 46.7761 366.224 47 366.5 47C366.224 47 366 47.2239 366 47.5C366 47.7761 366.224 48 366.5 48C366.224 48 366 48.2239 366 48.5C366 48.7761 366.224 49 366.5 49C366.224 49 366 49.2239 366 49.5C366 49.7761 366.224 50 366.5 50C366.776 50 367 49.7761 367 49.5C367 49.7761 367.224 50 367.5 50C367.776 50 368 49.7761 368 49.5C368 49.7761 368.224 50 368.5 50C368.776 50 369 49.7761 369 49.5C369 49.7761 369.224 50 369.5 50C369.776 50 370 49.7761 370 49.5C370 49.7761 370.224 50 370.5 50C370.776 50 371 49.7761 371 49.5C371 49.2239 370.776 49 370.5 49C370.776 49 371 48.7761 371 48.5C371 48.2239 370.776 48 370.5 48C370.776 48 371 47.7761 371 47.5C371 47.2239 370.776 47 370.5 47C370.776 47 371 46.7761 371 46.5C371 46.7761 371.224 47 371.5 47C371.776 47 372 46.7761 372 46.5C372 46.2239 371.776 46 371.5 46C371.224 46 371 46.2239 371 46.5C371 46.2239 370.776 46 370.5 46C370.224 46 370 46.2239 370 46.5C370 46.2239 369.776 46 369.5 46C369.224 46 369 46.2239 369 46.5C369 46.2239 368.776 46 368.5 46C368.224 46 368 46.2239 368 46.5C368 46.2239 367.776 46 367.5 46C367.224 46 367 46.2239 367 46.5C367 46.2239 366.776 46 366.5 46C366.224 46 366 46.2239 366 46.5C366 46.2239 365.776 46 365.5 46C365.224 46 365 46.2239 365 46.5C365 46.2239 364.776 46 364.5 46ZM367 46.5C367 46.7761 366.776 47 366.5 47C366.776 47 367 47.2239 367 47.5C367 47.7761 366.776 48 366.5 48C366.776 48 367 48.2239 367 48.5C367 48.7761 366.776 49 366.5 49C366.776 49 367 49.2239 367 49.5C367 49.2239 367.224 49 367.5 49C367.776 49 368 49.2239 368 49.5C368 49.2239 368.224 49 368.5 49C368.776 49 369 49.2239 369 49.5C369 49.2239 369.224 49 369.5 49C369.776 49 370 49.2239 370 49.5C370 49.2239 370.224 49 370.5 49C370.224 49 370 48.7761 370 48.5C370 48.2239 370.224 48 370.5 48C370.224 48 370 47.7761 370 47.5C370 47.2239 370.224 47 370.5 47C370.224 47 370 46.7761 370 46.5C370 46.7761 369.776 47 369.5 47C369.224 47 369 46.7761 369 46.5C369 46.7761 368.776 47 368.5 47C368.224 47 368 46.7761 368 46.5C368 46.7761 367.776 47 367.5 47C367.224 47 367 46.7761 367 46.5ZM370 48.5C370 48.7761 369.776 49 369.5 49C369.224 49 369 48.7761 369 48.5C369 48.2239 369.224 48 369.5 48C369.776 48 370 48.2239 370 48.5ZM372.5 47C372.224 47 372 47.2239 372 47.5C372 47.7761 372.224 48 372.5 48C372.776 48 373 47.7761 373 47.5C373 47.2239 372.776 47 372.5 47ZM367 52.5C367 52.2239 367.224 52 367.5 52C367.776 52 368 52.2239 368 52.5C368 52.7761 367.776 53 367.5 53C367.224 53 367 52.7761 367 52.5ZM369 52.5C369 52.7761 368.776 53 368.5 53C368.224 53 368 52.7761 368 52.5C368 52.2239 368.224 52 368.5 52C368.776 52 369 52.2239 369 52.5ZM370 52.5C370 52.7761 369.776 53 369.5 53C369.224 53 369 52.7761 369 52.5C369 52.2239 369.224 52 369.5 52C369.776 52 370 52.2239 370 52.5ZM370 52.5C370 52.2239 370.224 52 370.5 52C370.776 52 371 52.2239 371 52.5C371 52.7761 370.776 53 370.5 53C370.224 53 370 52.7761 370 52.5Z" fill="#F8F8F8"/>
</svg>
