<svg xmlns="http://www.w3.org/2000/svg" viewBox="307.0 67.0 12.0 8.0" fill="none">
<path fill-rule="evenodd" clip-rule="evenodd" d="M310.5 68C310.224 68 310 68.2239 310 68.5C310 68.7761 310.224 69 310.5 69C310.776 69 311 68.7761 311 68.5C311 68.7761 311.224 69 311.5 69C311.776 69 312 68.7761 312 68.5C312 68.7761 312.224 69 312.5 69C312.776 69 313 68.7761 313 68.5C313 68.2239 312.776 68 312.5 68C312.224 68 312 68.2239 312 68.5C312 68.2239 311.776 68 311.5 68C311.224 68 311 68.2239 311 68.5C311 68.2239 310.776 68 310.5 68ZM309 69.5C309 69.2239 309.224 69 309.5 69C309.776 69 310 69.2239 310 69.5C310 69.7761 309.776 70 309.5 70C309.224 70 309 69.7761 309 69.5ZM308.5 70C308.224 70 308 70.2239 308 70.5C308 70.7761 308.224 71 308.5 71C308.224 71 308 71.2239 308 71.5C308 71.7761 308.224 72 308.5 72C308.224 72 308 72.2239 308 72.5C308 72.7761 308.224 73 308.5 73C308.776 73 309 72.7761 309 72.5C309 72.2239 308.776 72 308.5 72C308.776 72 309 71.7761 309 71.5C309 71.2239 308.776 71 308.5 71C308.776 71 309 70.7761 309 70.5C309 70.2239 308.776 70 308.5 70ZM309.5 73C309.224 73 309 73.2239 309 73.5C309 73.7761 309.224 74 309.5 74C309.776 74 310 73.7761 310 73.5C310 73.7761 310.224 74 310.5 74C310.776 74 311 73.7761 311 73.5C311 73.7761 311.224 74 311.5 74C311.776 74 312 73.7761 312 73.5C312 73.7761 312.224 74 312.5 74C312.776 74 313 73.7761 313 73.5C313 73.7761 313.224 74 313.5 74C313.776 74 314 73.7761 314 73.5C314 73.7761 314.224 74 314.5 74C314.776 74 315 73.7761 315 73.5C315 73.7761 315.224 74 315.5 74C315.776 74 316 73.7761 316 73.5C316 73.7761 316.224 74 316.5 74C316.776 74 317 73.7761 317 73.5C317 73.2239 316.776 73 316.5 73C316.224 73 316 73.2239 316 73.5C316 73.2239 315.776 73 315.5 73C315.224 73 315 73.2239 315 73.5C315 73.2239 314.776 73 314.5 73C314.224 73 314 73.2239 314 73.5C314 73.2239 313.776 73 313.5 73C313.224 73 313 73.2239 313 73.5C313 73.2239 312.776 73 312.5 73C312.224 73 312 73.2239 312 73.5C312 73.2239 311.776 73 311.5 73C311.224 73 311 73.2239 311 73.5C311 73.2239 310.776 73 310.5 73C310.224 73 310 73.2239 310 73.5C310 73.2239 309.776 73 309.5 73ZM317 72.5C317 72.2239 317.224 72 317.5 72C317.776 72 318 72.2239 318 72.5C318 72.7761 317.776 73 317.5 73C317.224 73 317 72.7761 317 72.5ZM317 71.5C317 71.2239 317.224 71 317.5 71C317.776 71 318 71.2239 318 71.5C318 71.7761 317.776 72 317.5 72C317.224 72 317 71.7761 317 71.5ZM313 69.5C313 69.2239 313.224 69 313.5 69C313.776 69 314 69.2239 314 69.5C314 69.7761 313.776 70 313.5 70C313.224 70 313 69.7761 313 69.5ZM314.5 70C314.224 70 314 70.2239 314 70.5C314 70.7761 314.224 71 314.5 71C314.776 71 315 70.7761 315 70.5C315 70.7761 315.224 71 315.5 71C315.776 71 316 70.7761 316 70.5C316 70.7761 316.224 71 316.5 71C316.776 71 317 70.7761 317 70.5C317 70.2239 316.776 70 316.5 70C316.224 70 316 70.2239 316 70.5C316 70.2239 315.776 70 315.5 70C315.224 70 315 70.2239 315 70.5C315 70.2239 314.776 70 314.5 70Z" fill="#F8F8F8"/>
</svg>
