<svg xmlns="http://www.w3.org/2000/svg" viewBox="247.0 2.0 12.0 12.0" fill="none">
<path fill-rule="evenodd" clip-rule="evenodd" d="M251 3.5C251 3.22386 251.224 3 251.5 3C251.776 3 252 3.22386 252 3.5C252 3.77614 251.776 4 251.5 4C251.224 4 251 3.77614 251 3.5ZM253 3.5C253 3.77614 252.776 4 252.5 4C252.224 4 252 3.77614 252 3.5C252 3.22386 252.224 3 252.5 3C252.776 3 253 3.22386 253 3.5ZM254 3.5C254 3.77614 253.776 4 253.5 4C253.224 4 253 3.77614 253 3.5C253 3.22386 253.224 3 253.5 3C253.776 3 254 3.22386 254 3.5ZM254 3.5C254 3.22386 254.224 3 254.5 3C254.776 3 255 3.22386 255 3.5C255 3.77614 254.776 4 254.5 4C254.224 4 254 3.77614 254 3.5ZM250 4.5C250 4.22386 250.224 4 250.5 4C250.776 4 251 4.22386 251 4.5C251 4.77614 250.776 5 250.5 5C250.224 5 250 4.77614 250 4.5ZM249 5.5C249 5.22386 249.224 5 249.5 5C249.776 5 250 5.22386 250 5.5C250 5.77614 249.776 6 249.5 6C249.224 6 249 5.77614 249 5.5ZM248 6.5C248 6.22386 248.224 6 248.5 6C248.776 6 249 6.22386 249 6.5C249 6.77614 248.776 7 248.5 7C248.224 7 248 6.77614 248 6.5ZM249 7.5C249 7.77614 248.776 8 248.5 8C248.224 8 248 7.77614 248 7.5C248 7.22386 248.224 7 248.5 7C248.776 7 249 7.22386 249 7.5ZM250 7.5C250 7.22386 249.776 7 249.5 7C249.224 7 249 7.22386 249 7.5C249 7.77614 249.224 8 249.5 8C249.224 8 249 8.22386 249 8.5C249 8.77614 249.224 9 249.5 9C249.224 9 249 9.22386 249 9.5C249 9.77614 249.224 10 249.5 10C249.224 10 249 10.2239 249 10.5C249 10.7761 249.224 11 249.5 11C249.224 11 249 11.2239 249 11.5C249 11.7761 249.224 12 249.5 12C249.224 12 249 12.2239 249 12.5C249 12.2239 248.776 12 248.5 12C248.224 12 248 12.2239 248 12.5C248 12.7761 248.224 13 248.5 13C248.776 13 249 12.7761 249 12.5C249 12.7761 249.224 13 249.5 13C249.776 13 250 12.7761 250 12.5C250 12.7761 250.224 13 250.5 13C250.776 13 251 12.7761 251 12.5C251 12.7761 251.224 13 251.5 13C251.776 13 252 12.7761 252 12.5C252 12.7761 252.224 13 252.5 13C252.776 13 253 12.7761 253 12.5C253 12.7761 253.224 13 253.5 13C253.776 13 254 12.7761 254 12.5C254 12.7761 254.224 13 254.5 13C254.776 13 255 12.7761 255 12.5C255 12.7761 255.224 13 255.5 13C255.776 13 256 12.7761 256 12.5C256 12.7761 256.224 13 256.5 13C256.776 13 257 12.7761 257 12.5C257 12.7761 257.224 13 257.5 13C257.776 13 258 12.7761 258 12.5C258 12.2239 257.776 12 257.5 12C257.224 12 257 12.2239 257 12.5C257 12.2239 256.776 12 256.5 12C256.776 12 257 11.7761 257 11.5C257 11.2239 256.776 11 256.5 11C256.776 11 257 10.7761 257 10.5C257 10.2239 256.776 10 256.5 10C256.776 10 257 9.77614 257 9.5C257 9.22386 256.776 9 256.5 9C256.776 9 257 8.77614 257 8.5C257 8.22386 256.776 8 256.5 8C256.776 8 257 7.77614 257 7.5C257 7.77614 257.224 8 257.5 8C257.776 8 258 7.77614 258 7.5C258 7.22386 257.776 7 257.5 7C257.776 7 258 6.77614 258 6.5C258 6.22386 257.776 6 257.5 6C257.224 6 257 6.22386 257 6.5C257 6.77614 257.224 7 257.5 7C257.224 7 257 7.22386 257 7.5C257 7.22386 256.776 7 256.5 7C256.224 7 256 7.22386 256 7.5C256 7.22386 255.776 7 255.5 7C255.224 7 255 7.22386 255 7.5C255 7.22386 254.776 7 254.5 7C254.224 7 254 7.22386 254 7.5C254 7.22386 253.776 7 253.5 7C253.224 7 253 7.22386 253 7.5C253 7.22386 252.776 7 252.5 7C252.224 7 252 7.22386 252 7.5C252 7.22386 251.776 7 251.5 7C251.224 7 251 7.22386 251 7.5C251 7.22386 250.776 7 250.5 7C250.224 7 250 7.22386 250 7.5ZM251.5 8C251.776 8 252 7.77614 252 7.5C252 7.77614 252.224 8 252.5 8C252.776 8 253 7.77614 253 7.5C253 7.77614 253.224 8 253.5 8C253.776 8 254 7.77614 254 7.5C254 7.77614 254.224 8 254.5 8C254.224 8 254 8.22386 254 8.5C254 8.77614 254.224 9 254.5 9C254.224 9 254 9.22386 254 9.5C254 9.77614 254.224 10 254.5 10C254.224 10 254 10.2239 254 10.5C254 10.7761 254.224 11 254.5 11C254.224 11 254 11.2239 254 11.5C254 11.7761 254.224 12 254.5 12C254.224 12 254 12.2239 254 12.5C254 12.2239 253.776 12 253.5 12C253.224 12 253 12.2239 253 12.5C253 12.2239 252.776 12 252.5 12C252.224 12 252 12.2239 252 12.5C252 12.2239 251.776 12 251.5 12C251.776 12 252 11.7761 252 11.5C252 11.2239 251.776 11 251.5 11C251.776 11 252 10.7761 252 10.5C252 10.2239 251.776 10 251.5 10C251.776 10 252 9.77614 252 9.5C252 9.22386 251.776 9 251.5 9C251.776 9 252 8.77614 252 8.5C252 8.22386 251.776 8 251.5 8ZM251.5 8C251.224 8 251 7.77614 251 7.5C251 7.77614 250.776 8 250.5 8C250.224 8 250 7.77614 250 7.5C250 7.77614 249.776 8 249.5 8C249.776 8 250 8.22386 250 8.5C250 8.77614 249.776 9 249.5 9C249.776 9 250 9.22386 250 9.5C250 9.77614 249.776 10 249.5 10C249.776 10 250 10.2239 250 10.5C250 10.7761 249.776 11 249.5 11C249.776 11 250 11.2239 250 11.5C250 11.7761 249.776 12 249.5 12C249.776 12 250 12.2239 250 12.5C250 12.2239 250.224 12 250.5 12C250.776 12 251 12.2239 251 12.5C251 12.2239 251.224 12 251.5 12C251.224 12 251 11.7761 251 11.5C251 11.2239 251.224 11 251.5 11C251.224 11 251 10.7761 251 10.5C251 10.2239 251.224 10 251.5 10C251.224 10 251 9.77614 251 9.5C251 9.22386 251.224 9 251.5 9C251.224 9 251 8.77614 251 8.5C251 8.22386 251.224 8 251.5 8ZM254.5 12C254.776 12 255 11.7761 255 11.5C255 11.2239 254.776 11 254.5 11C254.776 11 255 10.7761 255 10.5C255 10.2239 254.776 10 254.5 10C254.776 10 255 9.77614 255 9.5C255 9.22386 254.776 9 254.5 9C254.776 9 255 8.77614 255 8.5C255 8.22386 254.776 8 254.5 8C254.776 8 255 7.77614 255 7.5C255 7.77614 255.224 8 255.5 8C255.776 8 256 7.77614 256 7.5C256 7.77614 256.224 8 256.5 8C256.224 8 256 8.22386 256 8.5C256 8.77614 256.224 9 256.5 9C256.224 9 256 9.22386 256 9.5C256 9.77614 256.224 10 256.5 10C256.224 10 256 10.2239 256 10.5C256 10.7761 256.224 11 256.5 11C256.224 11 256 11.2239 256 11.5C256 11.7761 256.224 12 256.5 12C256.224 12 256 12.2239 256 12.5C256 12.2239 255.776 12 255.5 12C255.224 12 255 12.2239 255 12.5C255 12.2239 254.776 12 254.5 12ZM256.5 5C256.224 5 256 5.22386 256 5.5C256 5.77614 256.224 6 256.5 6C256.776 6 257 5.77614 257 5.5C257 5.22386 256.776 5 256.5 5ZM255.5 4C255.224 4 255 4.22386 255 4.5C255 4.77614 255.224 5 255.5 5C255.776 5 256 4.77614 256 4.5C256 4.22386 255.776 4 255.5 4Z" fill="#F8F8F8"/>
</svg>
