<svg xmlns="http://www.w3.org/2000/svg" viewBox="72.0 65.0 10.0 12.0" fill="none">
<path fill-rule="evenodd" clip-rule="evenodd" d="M74 66.5C74 66.2239 74.2239 66 74.5 66C74.7761 66 75 66.2239 75 66.5C75 66.7761 74.7761 67 74.5 67C74.2239 67 74 66.7761 74 66.5ZM76 66.5C76 66.7761 75.7761 67 75.5 67C75.2239 67 75 66.7761 75 66.5C75 66.2239 75.2239 66 75.5 66C75.7761 66 76 66.2239 76 66.5ZM77 66.5C77 66.7761 76.7761 67 76.5 67C76.2239 67 76 66.7761 76 66.5C76 66.2239 76.2239 66 76.5 66C76.7761 66 77 66.2239 77 66.5ZM78 66.5C78 66.7761 77.7761 67 77.5 67C77.2239 67 77 66.7761 77 66.5C77 66.2239 77.2239 66 77.5 66C77.7761 66 78 66.2239 78 66.5ZM79 66.5C79 66.7761 78.7761 67 78.5 67C78.2239 67 78 66.7761 78 66.5C78 66.2239 78.2239 66 78.5 66C78.7761 66 79 66.2239 79 66.5ZM79 66.5C79 66.2239 79.2239 66 79.5 66C79.7761 66 80 66.2239 80 66.5C80 66.7761 79.7761 67 79.5 67C79.2239 67 79 66.7761 79 66.5ZM73 67.5C73 67.2239 73.2239 67 73.5 67C73.7761 67 74 67.2239 74 67.5C74 67.7761 73.7761 68 73.5 68C73.2239 68 73 67.7761 73 67.5ZM74.5 68C74.2239 68 74 68.2239 74 68.5C74 68.7761 74.2239 69 74.5 69C74.7761 69 75 68.7761 75 68.5C75 68.7761 75.2239 69 75.5 69C75.2239 69 75 69.2239 75 69.5C75 69.7761 75.2239 70 75.5 70C75.7761 70 76 69.7761 76 69.5C76 69.7761 76.2239 70 76.5 70C76.2239 70 76 70.2239 76 70.5C76 70.7761 76.2239 71 76.5 71C76.2239 71 76 71.2239 76 71.5C76 71.7761 76.2239 72 76.5 72C76.7761 72 77 71.7761 77 71.5C77 71.7761 77.2239 72 77.5 72C77.7761 72 78 71.7761 78 71.5C78 71.2239 77.7761 71 77.5 71C77.7761 71 78 70.7761 78 70.5C78 70.2239 77.7761 70 77.5 70C77.7761 70 78 69.7761 78 69.5C78 69.7761 78.2239 70 78.5 70C78.7761 70 79 69.7761 79 69.5C79 69.2239 78.7761 69 78.5 69C78.7761 69 79 68.7761 79 68.5C79 68.7761 79.2239 69 79.5 69C79.7761 69 80 68.7761 80 68.5C80 68.2239 79.7761 68 79.5 68C79.2239 68 79 68.2239 79 68.5C79 68.2239 78.7761 68 78.5 68C78.2239 68 78 68.2239 78 68.5C78 68.7761 78.2239 69 78.5 69C78.2239 69 78 69.2239 78 69.5C78 69.2239 77.7761 69 77.5 69C77.2239 69 77 69.2239 77 69.5C77 69.2239 76.7761 69 76.5 69C76.2239 69 76 69.2239 76 69.5C76 69.2239 75.7761 69 75.5 69C75.7761 69 76 68.7761 76 68.5C76 68.2239 75.7761 68 75.5 68C75.2239 68 75 68.2239 75 68.5C75 68.2239 74.7761 68 74.5 68ZM77 69.5C77 69.7761 76.7761 70 76.5 70C76.7761 70 77 70.2239 77 70.5C77 70.7761 76.7761 71 76.5 71C76.7761 71 77 71.2239 77 71.5C77 71.2239 77.2239 71 77.5 71C77.2239 71 77 70.7761 77 70.5C77 70.2239 77.2239 70 77.5 70C77.2239 70 77 69.7761 77 69.5ZM74.5 73C74.2239 73 74 73.2239 74 73.5C74 73.7761 74.2239 74 74.5 74C74.2239 74 74 74.2239 74 74.5C74 74.2239 73.7761 74 73.5 74C73.2239 74 73 74.2239 73 74.5C73 74.7761 73.2239 75 73.5 75C73.7761 75 74 74.7761 74 74.5C74 74.7761 74.2239 75 74.5 75C74.2239 75 74 75.2239 74 75.5C74 75.7761 74.2239 76 74.5 76C74.7761 76 75 75.7761 75 75.5C75 75.7761 75.2239 76 75.5 76C75.7761 76 76 75.7761 76 75.5C76 75.7761 76.2239 76 76.5 76C76.7761 76 77 75.7761 77 75.5C77 75.7761 77.2239 76 77.5 76C77.7761 76 78 75.7761 78 75.5C78 75.7761 78.2239 76 78.5 76C78.7761 76 79 75.7761 79 75.5C79 75.7761 79.2239 76 79.5 76C79.7761 76 80 75.7761 80 75.5C80 75.2239 79.7761 75 79.5 75C79.7761 75 80 74.7761 80 74.5C80 74.7761 80.2239 75 80.5 75C80.7761 75 81 74.7761 81 74.5C81 74.2239 80.7761 74 80.5 74C80.2239 74 80 74.2239 80 74.5C80 74.2239 79.7761 74 79.5 74C79.7761 74 80 73.7761 80 73.5C80 73.2239 79.7761 73 79.5 73C79.2239 73 79 73.2239 79 73.5C79 73.7761 79.2239 74 79.5 74C79.2239 74 79 74.2239 79 74.5C79 74.2239 78.7761 74 78.5 74C78.2239 74 78 74.2239 78 74.5C78 74.2239 77.7761 74 77.5 74C77.2239 74 77 74.2239 77 74.5C77 74.2239 76.7761 74 76.5 74C76.2239 74 76 74.2239 76 74.5C76 74.2239 75.7761 74 75.5 74C75.2239 74 75 74.2239 75 74.5C75 74.2239 74.7761 74 74.5 74C74.7761 74 75 73.7761 75 73.5C75 73.2239 74.7761 73 74.5 73ZM75.5 75C75.7761 75 76 75.2239 76 75.5C76 75.2239 76.2239 75 76.5 75C76.7761 75 77 75.2239 77 75.5C77 75.2239 77.2239 75 77.5 75C77.7761 75 78 75.2239 78 75.5C78 75.2239 78.2239 75 78.5 75C78.7761 75 79 75.2239 79 75.5C79 75.2239 79.2239 75 79.5 75C79.2239 75 79 74.7761 79 74.5C79 74.7761 78.7761 75 78.5 75C78.2239 75 78 74.7761 78 74.5C78 74.7761 77.7761 75 77.5 75C77.2239 75 77 74.7761 77 74.5C77 74.7761 76.7761 75 76.5 75C76.2239 75 76 74.7761 76 74.5C76 74.7761 75.7761 75 75.5 75ZM75.5 75C75.2239 75 75 74.7761 75 74.5C75 74.7761 74.7761 75 74.5 75C74.7761 75 75 75.2239 75 75.5C75 75.2239 75.2239 75 75.5 75ZM75.5 72C75.2239 72 75 72.2239 75 72.5C75 72.7761 75.2239 73 75.5 73C75.7761 73 76 72.7761 76 72.5C76 72.2239 75.7761 72 75.5 72ZM78.5 72C78.2239 72 78 72.2239 78 72.5C78 72.7761 78.2239 73 78.5 73C78.7761 73 79 72.7761 79 72.5C79 72.2239 78.7761 72 78.5 72ZM80 67.5C80 67.2239 80.2239 67 80.5 67C80.7761 67 81 67.2239 81 67.5C81 67.7761 80.7761 68 80.5 68C80.2239 68 80 67.7761 80 67.5Z" fill="#F8F8F8"/>
</svg>
