<svg width="207" height="237" viewBox="0 0 207 237" fill="none" xmlns="http://www.w3.org/2000/svg">
<path d="M77.8125 236.438C64.1875 236.438 52.4375 234.5 42.5625 230.625C32.8125 226.75 24.75 221.875 18.375 216C12.125 210.125 7.5 203.688 4.5 196.688C1.5 189.688 0 183.062 0 176.812C0 168.438 2.0625 162.062 6.1875 157.688C10.3125 153.312 15.4375 151.125 21.5625 151.125C24.8125 151.125 27.75 151.812 30.375 153.188C33.125 154.562 35.4375 156.375 37.3125 158.625C39.3125 160.875 40.8125 163.438 41.8125 166.312C42.9375 169.062 43.5 171.875 43.5 174.75C43.5 175.625 43.4375 176.438 43.3125 177.188C43.3125 177.938 43.1875 178.688 42.9375 179.438C41.9375 179.188 41 178.938 40.125 178.688C39.25 178.438 38.3125 178.312 37.3125 178.312C33.4375 178.312 30.6875 179.625 29.0625 182.25C27.5625 184.875 26.8125 187.812 26.8125 191.062C26.8125 193.312 27.3125 195.625 28.3125 198C29.4375 200.375 30.875 202.625 32.625 204.75C34.375 206.75 36.4375 208.562 38.8125 210.188C41.1875 211.688 43.6875 212.875 46.3125 213.75V121.688C46.3125 113.312 48 106.312 51.375 100.688C54.875 95.0625 59.375 90.4375 64.875 86.8125C60.125 83.9375 55.75 80.6875 51.75 77.0625C47.75 73.4375 44.4375 69.8125 41.8125 66.1875C39.8125 63.3125 38.1875 60.125 36.9375 56.625C35.6875 53.125 35.0625 50.0625 35.0625 47.4375C35.0625 44.9375 35.625 42.75 36.75 40.875C38 39 39.25 37.4375 40.5 36.1875L71.25 5.4375C72.375 4.3125 73.875 3.125 75.75 1.875C77.75 0.625 80 0 82.5 0C85 0 87.125 0.6875 88.875 2.0625C90.75 3.3125 92.375 4.4375 93.75 5.4375L125.062 28.6875L148.312 5.4375C151.938 1.8125 155.812 0 159.938 0C161.438 0 163 0.1875 164.625 0.5625C166.25 0.9375 167.75 1.8125 169.125 3.1875L189.375 22.5C190.75 23.75 191.812 24.6875 192.562 25.3125C193.438 25.9375 194.188 26.25 194.812 26.25C195.438 26.25 196.125 26 196.875 25.5C197.625 25 199.062 23.3125 201.188 20.4375C202.188 21.5625 203.25 23.625 204.375 26.625C205.5 29.625 206.062 33.625 206.062 38.625C206.062 40.25 205.75 42.0625 205.125 44.0625C204.5 46.0625 203.5 48 202.125 49.875C200.875 51.625 199.25 53.125 197.25 54.375C195.25 55.5 192.938 56.0625 190.312 56.0625C187.688 56.0625 184.688 55.125 181.312 53.25C178.062 51.25 174.625 48.8125 171 45.9375C167.5 43.0625 163.938 39.9375 160.312 36.5625C156.812 33.0625 153.625 29.875 150.75 27L129 50.625C127.875 51.75 126.312 52.9375 124.312 54.1875C122.438 55.4375 120.25 56.0625 117.75 56.0625C115.125 56.0625 112.812 55.5 110.812 54.375C108.812 53.25 107.188 52.1875 105.938 51.1875L72.75 25.6875L55.3125 42.9375C57.1875 46.8125 59.6875 50.5625 62.8125 54.1875C66.0625 57.6875 69.625 60.875 73.5 63.75C77.5 66.625 81.625 69.0625 85.875 71.0625C90.25 72.9375 94.5 74.1875 98.625 74.8125C102.875 74.1875 106.875 73.8125 110.625 73.6875C114.375 73.4375 117.688 73.3125 120.562 73.3125C124.062 73.3125 128.312 73.5 133.312 73.875C138.312 74.25 143.562 75.0625 149.062 76.3125C154.562 77.4375 160 79.0625 165.375 81.1875C170.875 83.3125 175.812 86.1875 180.188 89.8125C184.562 93.4375 188.062 97.875 190.688 103.125C193.438 108.25 194.812 114.438 194.812 121.688V236.438H163.312V115.688C163.312 110.188 161.938 105.75 159.188 102.375C156.438 98.875 152.938 96.125 148.688 94.125C144.438 92.125 139.812 90.8125 134.812 90.1875C129.812 89.4375 125.062 89.0625 120.562 89.0625C115.812 89.0625 110.875 89.4375 105.75 90.1875C100.75 90.8125 96.1875 92.125 92.0625 94.125C87.9375 96.125 84.5 98.875 81.75 102.375C79.125 105.75 77.8125 110.188 77.8125 115.688V236.438Z" fill="black"/>
</svg>
