<svg width="16" height="16" viewBox="0 0 16 16" fill="none" xmlns="http://www.w3.org/2000/svg">
<path fill-rule="evenodd" clip-rule="evenodd" d="M11.5 7C11.7761 7 12 7.22386 12 7.5C12 7.77614 11.7761 8 11.5 8C11.2239 8 11 7.77614 11 7.5C11 7.22386 11.2239 7 11.5 7ZM10.5 8C10.7761 8 11 7.77614 11 7.5C11 7.22386 10.7761 7 10.5 7C10.7761 7 11 6.77614 11 6.5C11 6.22386 10.7761 6 10.5 6C10.2239 6 10 6.22386 10 6.5C10 6.77614 10.2239 7 10.5 7C10.2239 7 10 7.22386 10 7.5C10 7.22386 9.77614 7 9.5 7C9.22386 7 9 7.22386 9 7.5C9 7.22386 8.77614 7 8.5 7C8.22386 7 8 7.22386 8 7.5C8 7.22386 7.77614 7 7.5 7C7.22386 7 7 7.22386 7 7.5C7 7.22386 6.77614 7 6.5 7C6.22386 7 6 7.22386 6 7.5C6 7.22386 5.77614 7 5.5 7C5.22386 7 5 7.22386 5 7.5C5 7.22386 4.77614 7 4.5 7C4.22386 7 4 7.22386 4 7.5C4 7.77614 4.22386 8 4.5 8C4.22386 8 4 8.22386 4 8.5C4 8.77614 4.22386 9 4.5 9C4.77614 9 5 8.77614 5 8.5C5 8.77614 5.22386 9 5.5 9C5.77614 9 6 8.77614 6 8.5C6 8.77614 6.22386 9 6.5 9C6.77614 9 7 8.77614 7 8.5C7 8.77614 7.22386 9 7.5 9C7.77614 9 8 8.77614 8 8.5C8 8.77614 8.22386 9 8.5 9C8.77614 9 9 8.77614 9 8.5C9 8.77614 9.22386 9 9.5 9C9.77614 9 10 8.77614 10 8.5C10 8.77614 10.2239 9 10.5 9C10.2239 9 10 9.22386 10 9.5C10 9.77614 10.2239 10 10.5 10C10.7761 10 11 9.77614 11 9.5C11 9.22386 10.7761 9 10.5 9C10.7761 9 11 8.77614 11 8.5C11 8.77614 11.2239 9 11.5 9C11.7761 9 12 8.77614 12 8.5C12 8.22386 11.7761 8 11.5 8C11.2239 8 11 8.22386 11 8.5C11 8.22386 10.7761 8 10.5 8ZM9.5 8C9.77614 8 10 7.77614 10 7.5C10 7.77614 10.2239 8 10.5 8C10.2239 8 10 8.22386 10 8.5C10 8.22386 9.77614 8 9.5 8ZM8.5 8C8.77614 8 9 7.77614 9 7.5C9 7.77614 9.22386 8 9.5 8C9.22386 8 9 8.22386 9 8.5C9 8.22386 8.77614 8 8.5 8ZM7.5 8C7.77614 8 8 7.77614 8 7.5C8 7.77614 8.22386 8 8.5 8C8.22386 8 8 8.22386 8 8.5C8 8.22386 7.77614 8 7.5 8ZM6.5 8C6.77614 8 7 7.77614 7 7.5C7 7.77614 7.22386 8 7.5 8C7.22386 8 7 8.22386 7 8.5C7 8.22386 6.77614 8 6.5 8ZM5.5 8C5.77614 8 6 7.77614 6 7.5C6 7.77614 6.22386 8 6.5 8C6.22386 8 6 8.22386 6 8.5C6 8.22386 5.77614 8 5.5 8ZM5.5 8C5.22386 8 5 8.22386 5 8.5C5 8.22386 4.77614 8 4.5 8C4.77614 8 5 7.77614 5 7.5C5 7.77614 5.22386 8 5.5 8ZM8.5 4C8.77614 4 9 4.22386 9 4.5C9 4.77614 8.77614 5 8.5 5C8.22386 5 8 4.77614 8 4.5C8 4.22386 8.22386 4 8.5 4ZM9 11.5C9 11.2239 8.77614 11 8.5 11C8.22386 11 8 11.2239 8 11.5C8 11.7761 8.22386 12 8.5 12C8.77614 12 9 11.7761 9 11.5ZM9.5 5C9.77614 5 10 5.22386 10 5.5C10 5.77614 9.77614 6 9.5 6C9.22386 6 9 5.77614 9 5.5C9 5.22386 9.22386 5 9.5 5ZM10 10.5C10 10.2239 9.77614 10 9.5 10C9.22386 10 9 10.2239 9 10.5C9 10.7761 9.22386 11 9.5 11C9.77614 11 10 10.7761 10 10.5Z" fill="#F8F8F8"/>
</svg>
