<svg width="16" height="16" viewBox="0 0 16 16" fill="none" xmlns="http://www.w3.org/2000/svg">
<path fill-rule="evenodd" clip-rule="evenodd" d="M5 3.5C5 3.22386 5.22386 3 5.5 3C5.77614 3 6 3.22386 6 3.5C6 3.77614 5.77614 4 5.5 4C5.22386 4 5 3.77614 5 3.5ZM4.5 4C4.22386 4 4 3.77614 4 3.5C4 3.22386 4.22386 3 4.5 3C4.77614 3 5 3.22386 5 3.5C5 3.77614 4.77614 4 4.5 4ZM4.5 5C4.22386 5 4 4.77614 4 4.5C4 4.22386 4.22386 4 4.5 4C4.77614 4 5 4.22386 5 4.5C5 4.77614 4.77614 5 4.5 5ZM4.5 6C4.22386 6 4 5.77614 4 5.5C4 5.22386 4.22386 5 4.5 5C4.77614 5 5 5.22386 5 5.5C5 5.77614 4.77614 6 4.5 6ZM5 6.5C5 6.77614 4.77614 7 4.5 7C4.22386 7 4 6.77614 4 6.5C4 6.22386 4.22386 6 4.5 6C4.77614 6 5 6.22386 5 6.5ZM6 6.5C6 6.77614 5.77614 7 5.5 7C5.22386 7 5 6.77614 5 6.5C5 6.22386 5.22386 6 5.5 6C5.77614 6 6 6.22386 6 6.5ZM6.5 6C6.22386 6 6 6.22386 6 6.5C6 6.77614 6.22386 7 6.5 7C6.22386 7 6 7.22386 6 7.5C6 7.77614 6.22386 8 6.5 8C6.22386 8 6 8.22386 6 8.5C6 8.77614 6.22386 9 6.5 9C6.22386 9 6 9.22386 6 9.5C6 9.77614 6.22386 10 6.5 10C6.22386 10 6 10.2239 6 10.5C6 10.7761 6.22386 11 6.5 11C6.22386 11 6 11.2239 6 11.5C6 11.7761 6.22386 12 6.5 12C6.22386 12 6 12.2239 6 12.5C6 12.7761 6.22386 13 6.5 13C6.77614 13 7 12.7761 7 12.5C7 12.7761 7.22386 13 7.5 13C7.77614 13 8 12.7761 8 12.5C8 12.2239 7.77614 12 7.5 12C7.77614 12 8 11.7761 8 11.5C8 11.2239 7.77614 11 7.5 11C7.77614 11 8 10.7761 8 10.5C8 10.2239 7.77614 10 7.5 10C7.77614 10 8 9.77614 8 9.5C8 9.22386 7.77614 9 7.5 9C7.77614 9 8 8.77614 8 8.5C8 8.22386 7.77614 8 7.5 8C7.77614 8 8 7.77614 8 7.5C8 7.22386 7.77614 7 7.5 7C7.77614 7 8 6.77614 8 6.5C8 6.77614 8.22386 7 8.5 7C8.77614 7 9 6.77614 9 6.5C9 6.77614 9.22386 7 9.5 7C9.77614 7 10 6.77614 10 6.5C10 6.77614 10.2239 7 10.5 7C10.7761 7 11 6.77614 11 6.5C11 6.22386 10.7761 6 10.5 6C10.7761 6 11 5.77614 11 5.5C11 5.77614 11.2239 6 11.5 6C11.7761 6 12 5.77614 12 5.5C12 5.22386 11.7761 5 11.5 5C11.7761 5 12 4.77614 12 4.5C12 4.22386 11.7761 4 11.5 4C11.7761 4 12 3.77614 12 3.5C12 3.22386 11.7761 3 11.5 3C11.2239 3 11 3.22386 11 3.5C11 3.22386 10.7761 3 10.5 3C10.2239 3 10 3.22386 10 3.5C10 3.22386 9.77614 3 9.5 3C9.22386 3 9 3.22386 9 3.5C9 3.22386 8.77614 3 8.5 3C8.22386 3 8 3.22386 8 3.5C8 3.22386 7.77614 3 7.5 3C7.22386 3 7 3.22386 7 3.5C7 3.22386 6.77614 3 6.5 3C6.22386 3 6 3.22386 6 3.5C6 3.77614 6.22386 4 6.5 4C6.22386 4 6 4.22386 6 4.5C6 4.77614 6.22386 5 6.5 5C6.22386 5 6 5.22386 6 5.5C6 5.77614 6.22386 6 6.5 6ZM7 6.5C7 6.77614 6.77614 7 6.5 7C6.77614 7 7 7.22386 7 7.5C7 7.77614 6.77614 8 6.5 8C6.77614 8 7 8.22386 7 8.5C7 8.77614 6.77614 9 6.5 9C6.77614 9 7 9.22386 7 9.5C7 9.77614 6.77614 10 6.5 10C6.77614 10 7 10.2239 7 10.5C7 10.7761 6.77614 11 6.5 11C6.77614 11 7 11.2239 7 11.5C7 11.7761 6.77614 12 6.5 12C6.77614 12 7 12.2239 7 12.5C7 12.2239 7.22386 12 7.5 12C7.22386 12 7 11.7761 7 11.5C7 11.2239 7.22386 11 7.5 11C7.22386 11 7 10.7761 7 10.5C7 10.2239 7.22386 10 7.5 10C7.22386 10 7 9.77614 7 9.5C7 9.22386 7.22386 9 7.5 9C7.22386 9 7 8.77614 7 8.5C7 8.22386 7.22386 8 7.5 8C7.22386 8 7 7.77614 7 7.5C7 7.22386 7.22386 7 7.5 7C7.22386 7 7 6.77614 7 6.5ZM7 6.5C7 6.22386 6.77614 6 6.5 6C6.77614 6 7 5.77614 7 5.5C7 5.22386 6.77614 5 6.5 5C6.77614 5 7 4.77614 7 4.5C7 4.22386 6.77614 4 6.5 4C6.77614 4 7 3.77614 7 3.5C7 3.77614 7.22386 4 7.5 4C7.77614 4 8 3.77614 8 3.5C8 3.77614 8.22386 4 8.5 4C8.77614 4 9 3.77614 9 3.5C9 3.77614 9.22386 4 9.5 4C9.77614 4 10 3.77614 10 3.5C10 3.77614 10.2239 4 10.5 4C10.7761 4 11 3.77614 11 3.5C11 3.77614 11.2239 4 11.5 4C11.2239 4 11 4.22386 11 4.5C11 4.77614 11.2239 5 11.5 5C11.2239 5 11 5.22386 11 5.5C11 5.22386 10.7761 5 10.5 5C10.2239 5 10 5.22386 10 5.5C10 5.77614 10.2239 6 10.5 6C10.2239 6 10 6.22386 10 6.5C10 6.22386 9.77614 6 9.5 6C9.22386 6 9 6.22386 9 6.5C9 6.22386 8.77614 6 8.5 6C8.22386 6 8 6.22386 8 6.5C8 6.22386 7.77614 6 7.5 6C7.22386 6 7 6.22386 7 6.5Z" fill="#F8F8F8"/>
</svg>
