<svg width="16" height="16" viewBox="0 0 16 16" fill="none" xmlns="http://www.w3.org/2000/svg">
<path fill-rule="evenodd" clip-rule="evenodd" d="M8 3.5C8 3.22386 8.22386 3 8.5 3C8.77614 3 9 3.22386 9 3.5C9 3.77614 8.77614 4 8.5 4C8.22386 4 8 3.77614 8 3.5ZM7 4.5C7 4.22386 7.22386 4 7.5 4C7.77614 4 8 4.22386 8 4.5C8 4.77614 7.77614 5 7.5 5C7.22386 5 7 4.77614 7 4.5ZM7.5 6C7.22386 6 7 5.77614 7 5.5C7 5.22386 7.22386 5 7.5 5C7.77614 5 8 5.22386 8 5.5C8 5.77614 7.77614 6 7.5 6ZM7.5 7C7.22386 7 7 6.77614 7 6.5C7 6.22386 7.22386 6 7.5 6C7.77614 6 8 6.22386 8 6.5C8 6.77614 7.77614 7 7.5 7ZM8 7.5C8 7.22386 7.77614 7 7.5 7C7.22386 7 7 7.22386 7 7.5C7 7.77614 7.22386 8 7.5 8C7.22386 8 7 8.22386 7 8.5C7 8.22386 6.77614 8 6.5 8C6.22386 8 6 8.22386 6 8.5C6 8.77614 6.22386 9 6.5 9C6.22386 9 6 9.22386 6 9.5C6 9.77614 6.22386 10 6.5 10C6.77614 10 7 9.77614 7 9.5C7 9.77614 7.22386 10 7.5 10C7.22386 10 7 10.2239 7 10.5C7 10.7761 7.22386 11 7.5 11C7.22386 11 7 11.2239 7 11.5C7 11.7761 7.22386 12 7.5 12C7.22386 12 7 12.2239 7 12.5C7 12.7761 7.22386 13 7.5 13C7.77614 13 8 12.7761 8 12.5C8 12.2239 7.77614 12 7.5 12C7.77614 12 8 11.7761 8 11.5C8 11.2239 7.77614 11 7.5 11C7.77614 11 8 10.7761 8 10.5C8 10.2239 7.77614 10 7.5 10C7.77614 10 8 9.77614 8 9.5C8 9.77614 8.22386 10 8.5 10C8.77614 10 9 9.77614 9 9.5C9 9.22386 8.77614 9 8.5 9C8.22386 9 8 9.22386 8 9.5C8 9.22386 7.77614 9 7.5 9C7.77614 9 8 8.77614 8 8.5C8 8.22386 7.77614 8 7.5 8C7.77614 8 8 7.77614 8 7.5ZM8 7.5C8 7.22386 8.22386 7 8.5 7C8.77614 7 9 7.22386 9 7.5C9 7.77614 8.77614 8 8.5 8C8.22386 8 8 7.77614 8 7.5ZM7.5 9C7.22386 9 7 9.22386 7 9.5C7 9.22386 6.77614 9 6.5 9C6.77614 9 7 8.77614 7 8.5C7 8.77614 7.22386 9 7.5 9ZM9.5 4C9.22386 4 9 4.22386 9 4.5C9 4.77614 9.22386 5 9.5 5C9.77614 5 10 4.77614 10 4.5C10 4.22386 9.77614 4 9.5 4ZM10 5.5C10 5.22386 10.2239 5 10.5 5C10.7761 5 11 5.22386 11 5.5C11 5.77614 10.7761 6 10.5 6C10.2239 6 10 5.77614 10 5.5ZM9.5 6C9.22386 6 9 6.22386 9 6.5C9 6.77614 9.22386 7 9.5 7C9.77614 7 10 6.77614 10 6.5C10 6.22386 9.77614 6 9.5 6ZM9.5 10C9.22386 10 9 10.2239 9 10.5C9 10.7761 9.22386 11 9.5 11C9.77614 11 10 10.7761 10 10.5C10 10.2239 9.77614 10 9.5 10ZM10 11.5C10 11.2239 10.2239 11 10.5 11C10.7761 11 11 11.2239 11 11.5C11 11.7761 10.7761 12 10.5 12C10.2239 12 10 11.7761 10 11.5ZM9.5 12C9.22386 12 9 12.2239 9 12.5C9 12.7761 9.22386 13 9.5 13C9.77614 13 10 12.7761 10 12.5C10 12.2239 9.77614 12 9.5 12ZM8 13.5C8 13.2239 8.22386 13 8.5 13C8.77614 13 9 13.2239 9 13.5C9 13.7761 8.77614 14 8.5 14C8.22386 14 8 13.7761 8 13.5ZM5 7.5C5 7.22386 5.22386 7 5.5 7C5.77614 7 6 7.22386 6 7.5C6 7.77614 5.77614 8 5.5 8C5.22386 8 5 7.77614 5 7.5ZM5.5 10C5.22386 10 5 10.2239 5 10.5C5 10.7761 5.22386 11 5.5 11C5.77614 11 6 10.7761 6 10.5C6 10.2239 5.77614 10 5.5 10Z" fill="#F8F8F8"/>
</svg>
