<svg width="16" height="16" viewBox="0 0 16 16" fill="none" xmlns="http://www.w3.org/2000/svg">
<rect x="3" y="6" width="1" height="1" rx="0.5" fill="#F8F8F8"/>
<rect x="3" y="7" width="1" height="1" rx="0.5" fill="#F8F8F8"/>
<rect x="3" y="8" width="1" height="1" rx="0.5" fill="#F8F8F8"/>
<rect x="3" y="9" width="1" height="1" rx="0.5" fill="#F8F8F8"/>
<rect x="3" y="10" width="1" height="1" rx="0.5" fill="#F8F8F8"/>
<rect x="3" y="11" width="1" height="1" rx="0.5" fill="#F8F8F8"/>
<rect x="4" y="12" width="1" height="1" rx="0.5" fill="#F8F8F8"/>
<rect x="5" y="12" width="1" height="1" rx="0.5" fill="#F8F8F8"/>
<rect x="6" y="12" width="1" height="1" rx="0.5" fill="#F8F8F8"/>
<rect x="7" y="12" width="1" height="1" rx="0.5" fill="#F8F8F8"/>
<rect x="8" y="12" width="1" height="1" rx="0.5" fill="#F8F8F8"/>
<rect x="9" y="12" width="1" height="1" rx="0.5" fill="#F8F8F8"/>
<rect x="10" y="12" width="1" height="1" rx="0.5" fill="#F8F8F8"/>
<rect x="11" y="12" width="1" height="1" rx="0.5" fill="#F8F8F8"/>
<rect x="12" y="11" width="1" height="1" rx="0.5" fill="#F8F8F8"/>
<rect x="12" y="10" width="1" height="1" rx="0.5" fill="#F8F8F8"/>
<rect x="12" y="9" width="1" height="1" rx="0.5" fill="#F8F8F8"/>
<rect x="12" y="8" width="1" height="1" rx="0.5" fill="#F8F8F8"/>
<rect x="12" y="7" width="1" height="1" rx="0.5" fill="#F8F8F8"/>
<rect x="12" y="6" width="1" height="1" rx="0.5" fill="#F8F8F8"/>
<rect x="12" y="5" width="1" height="1" rx="0.5" fill="#F8F8F8"/>
<rect x="12" y="4" width="1" height="1" rx="0.5" fill="#F8F8F8"/>
<rect x="11" y="3" width="1" height="1" rx="0.5" fill="#F8F8F8"/>
<rect x="10" y="3" width="1" height="1" rx="0.5" fill="#F8F8F8"/>
<rect x="9" y="3" width="1" height="1" rx="0.5" fill="#F8F8F8"/>
<rect x="8" y="3" width="1" height="1" rx="0.5" fill="#F8F8F8"/>
<rect x="7" y="3" width="1" height="1" rx="0.5" fill="#F8F8F8"/>
<rect x="6" y="3" width="1" height="1" rx="0.5" fill="#F8F8F8"/>
<rect x="5" y="3" width="1" height="1" rx="0.5" fill="#F8F8F8"/>
<rect x="4" y="3" width="1" height="1" rx="0.5" fill="#F8F8F8"/>
<rect x="3" y="5" width="1" height="1" rx="0.5" fill="#F8F8F8"/>
<rect x="3" y="4" width="1" height="1" rx="0.5" fill="#F8F8F8"/>
<rect x="11" y="9" width="1" height="1" rx="0.5" transform="rotate(90 11 9)" fill="#F8F8F8"/>
<rect x="10" y="8" width="1" height="1" rx="0.5" transform="rotate(90 10 8)" fill="#F8F8F8"/>
<rect x="9" y="7" width="1" height="1" rx="0.5" transform="rotate(90 9 7)" fill="#F8F8F8"/>
<rect x="8" y="7" width="1" height="1" rx="0.5" transform="rotate(90 8 7)" fill="#F8F8F8"/>
<rect x="7" y="8" width="1" height="1" rx="0.5" transform="rotate(90 7 8)" fill="#F8F8F8"/>
<rect x="6" y="9" width="1" height="1" rx="0.5" transform="rotate(90 6 9)" fill="#F8F8F8"/>
</svg>
