<svg width="16" height="16" viewBox="0 0 16 16" fill="none" xmlns="http://www.w3.org/2000/svg">
<path fill-rule="evenodd" clip-rule="evenodd" d="M6.5 4C6.22386 4 6 4.22386 6 4.5C6 4.77614 6.22386 5 6.5 5C6.77614 5 7 4.77614 7 4.5C7 4.22386 6.77614 4 6.5 4ZM9.5 4C9.22386 4 9 4.22386 9 4.5C9 4.77614 9.22386 5 9.5 5C9.77614 5 10 4.77614 10 4.5C10 4.22386 9.77614 4 9.5 4ZM5 5.5C5 5.22386 5.22386 5 5.5 5C5.77614 5 6 5.22386 6 5.5C6 5.77614 5.77614 6 5.5 6C5.22386 6 5 5.77614 5 5.5ZM10.5 5C10.2239 5 10 5.22386 10 5.5C10 5.77614 10.2239 6 10.5 6C10.7761 6 11 5.77614 11 5.5C11 5.22386 10.7761 5 10.5 5ZM4 6.5C4 6.22386 4.22386 6 4.5 6C4.77614 6 5 6.22386 5 6.5C5 6.77614 4.77614 7 4.5 7C4.22386 7 4 6.77614 4 6.5ZM11.5 6C11.2239 6 11 6.22386 11 6.5C11 6.77614 11.2239 7 11.5 7C11.7761 7 12 6.77614 12 6.5C12 6.22386 11.7761 6 11.5 6ZM3 7.5C3 7.22386 3.22386 7 3.5 7C3.77614 7 4 7.22386 4 7.5C4 7.77614 3.77614 8 3.5 8C3.22386 8 3 7.77614 3 7.5ZM3.5 8C3.77614 8 4 8.22386 4 8.5C4 8.77614 3.77614 9 3.5 9C3.22386 9 3 8.77614 3 8.5C3 8.22386 3.22386 8 3.5 8ZM12.5 7C12.2239 7 12 7.22386 12 7.5C12 7.77614 12.2239 8 12.5 8C12.2239 8 12 8.22386 12 8.5C12 8.77614 12.2239 9 12.5 9C12.7761 9 13 8.77614 13 8.5C13 8.22386 12.7761 8 12.5 8C12.7761 8 13 7.77614 13 7.5C13 7.22386 12.7761 7 12.5 7ZM4 9.5C4 9.22386 4.22386 9 4.5 9C4.77614 9 5 9.22386 5 9.5C5 9.77614 4.77614 10 4.5 10C4.22386 10 4 9.77614 4 9.5ZM11.5 9C11.2239 9 11 9.22386 11 9.5C11 9.77614 11.2239 10 11.5 10C11.7761 10 12 9.77614 12 9.5C12 9.22386 11.7761 9 11.5 9ZM5 10.5C5 10.2239 5.22386 10 5.5 10C5.77614 10 6 10.2239 6 10.5C6 10.7761 5.77614 11 5.5 11C5.22386 11 5 10.7761 5 10.5ZM10.5 10C10.2239 10 10 10.2239 10 10.5C10 10.7761 10.2239 11 10.5 11C10.7761 11 11 10.7761 11 10.5C11 10.2239 10.7761 10 10.5 10ZM6 11.5C6 11.2239 6.22386 11 6.5 11C6.77614 11 7 11.2239 7 11.5C7 11.7761 6.77614 12 6.5 12C6.22386 12 6 11.7761 6 11.5ZM9.5 11C9.22386 11 9 11.2239 9 11.5C9 11.7761 9.22386 12 9.5 12C9.77614 12 10 11.7761 10 11.5C10 11.2239 9.77614 11 9.5 11Z" fill="#F8F8F8"/>
</svg>
