<svg width="16" height="16" viewBox="0 0 16 16" fill="none" xmlns="http://www.w3.org/2000/svg">
<path fill-rule="evenodd" clip-rule="evenodd" d="M8 3.5C8 3.22386 8.22386 3 8.5 3C8.77614 3 9 3.22386 9 3.5C9 3.77614 8.77614 4 8.5 4C8.22386 4 8 3.77614 8 3.5ZM7.5 3C7.77614 3 8 3.22386 8 3.5C8 3.77614 7.77614 4 7.5 4C7.22386 4 7 3.77614 7 3.5C7 3.22386 7.22386 3 7.5 3ZM9 4.5C9 4.22386 9.22386 4 9.5 4C9.77614 4 10 4.22386 10 4.5C10 4.77614 9.77614 5 9.5 5C9.22386 5 9 4.77614 9 4.5ZM10 5.5C10 5.22386 10.2239 5 10.5 5C10.7761 5 11 5.22386 11 5.5C11 5.77614 10.7761 6 10.5 6C10.2239 6 10 5.77614 10 5.5ZM11 6.5C11 6.22386 11.2239 6 11.5 6C11.7761 6 12 6.22386 12 6.5C12 6.77614 11.7761 7 11.5 7C11.2239 7 11 6.77614 11 6.5ZM12 7.5C12 7.22386 12.2239 7 12.5 7C12.7761 7 13 7.22386 13 7.5C13 7.77614 12.7761 8 12.5 8C12.2239 8 12 7.77614 12 7.5ZM12.5 9C12.2239 9 12 8.77614 12 8.5C12 8.22386 12.2239 8 12.5 8C12.7761 8 13 8.22386 13 8.5C13 8.77614 12.7761 9 12.5 9ZM12.5 10C12.2239 10 12 9.77614 12 9.5C12 9.22386 12.2239 9 12.5 9C12.7761 9 13 9.22386 13 9.5C13 9.77614 12.7761 10 12.5 10ZM12.5 11C12.2239 11 12 10.7761 12 10.5C12 10.2239 12.2239 10 12.5 10C12.7761 10 13 10.2239 13 10.5C13 10.7761 12.7761 11 12.5 11ZM12.5 11C12.7761 11 13 11.2239 13 11.5C13 11.7761 12.7761 12 12.5 12C12.2239 12 12 11.7761 12 11.5C12 11.2239 12.2239 11 12.5 11ZM3.5 11C3.22386 11 3 11.2239 3 11.5C3 11.7761 3.22386 12 3.5 12C3.77614 12 4 11.7761 4 11.5C4 11.2239 3.77614 11 3.5 11ZM3.5 10C3.22386 10 3 10.2239 3 10.5C3 10.7761 3.22386 11 3.5 11C3.77614 11 4 10.7761 4 10.5C4 10.2239 3.77614 10 3.5 10ZM3.5 9C3.22386 9 3 9.22386 3 9.5C3 9.77614 3.22386 10 3.5 10C3.77614 10 4 9.77614 4 9.5C4 9.22386 3.77614 9 3.5 9ZM3.5 8C3.22386 8 3 8.22386 3 8.5C3 8.77614 3.22386 9 3.5 9C3.77614 9 4 8.77614 4 8.5C4 8.22386 3.77614 8 3.5 8ZM3.5 8C3.22386 8 3 7.77614 3 7.5C3 7.22386 3.22386 7 3.5 7C3.77614 7 4 7.22386 4 7.5C4 7.77614 3.77614 8 3.5 8ZM4.5 12C4.22386 12 4 12.2239 4 12.5C4 12.7761 4.22386 13 4.5 13C4.77614 13 5 12.7761 5 12.5C5 12.7761 5.22386 13 5.5 13C5.77614 13 6 12.7761 6 12.5C6 12.7761 6.22386 13 6.5 13C6.77614 13 7 12.7761 7 12.5C7 12.7761 7.22386 13 7.5 13C7.77614 13 8 12.7761 8 12.5C8 12.7761 8.22386 13 8.5 13C8.77614 13 9 12.7761 9 12.5C9 12.7761 9.22386 13 9.5 13C9.77614 13 10 12.7761 10 12.5C10 12.7761 10.2239 13 10.5 13C10.7761 13 11 12.7761 11 12.5C11 12.7761 11.2239 13 11.5 13C11.7761 13 12 12.7761 12 12.5C12 12.2239 11.7761 12 11.5 12C11.2239 12 11 12.2239 11 12.5C11 12.2239 10.7761 12 10.5 12C10.2239 12 10 12.2239 10 12.5C10 12.2239 9.77614 12 9.5 12C9.22386 12 9 12.2239 9 12.5C9 12.2239 8.77614 12 8.5 12C8.22386 12 8 12.2239 8 12.5C8 12.2239 7.77614 12 7.5 12C7.22386 12 7 12.2239 7 12.5C7 12.2239 6.77614 12 6.5 12C6.22386 12 6 12.2239 6 12.5C6 12.2239 5.77614 12 5.5 12C5.22386 12 5 12.2239 5 12.5C5 12.2239 4.77614 12 4.5 12ZM4.5 6C4.22386 6 4 6.22386 4 6.5C4 6.77614 4.22386 7 4.5 7C4.77614 7 5 6.77614 5 6.5C5 6.22386 4.77614 6 4.5 6ZM5.5 5C5.22386 5 5 5.22386 5 5.5C5 5.77614 5.22386 6 5.5 6C5.77614 6 6 5.77614 6 5.5C6 5.22386 5.77614 5 5.5 5ZM6.5 4C6.22386 4 6 4.22386 6 4.5C6 4.77614 6.22386 5 6.5 5C6.77614 5 7 4.77614 7 4.5C7 4.22386 6.77614 4 6.5 4ZM8 10.5C8 10.2239 8.22386 10 8.5 10C8.77614 10 9 10.2239 9 10.5C9 10.7761 8.77614 11 8.5 11C8.22386 11 8 10.7761 8 10.5ZM7.5 10C7.22386 10 7 10.2239 7 10.5C7 10.7761 7.22386 11 7.5 11C7.77614 11 8 10.7761 8 10.5C8 10.2239 7.77614 10 7.5 10ZM8 9.5C8 9.77614 7.77614 10 7.5 10C7.22386 10 7 9.77614 7 9.5C7 9.22386 7.22386 9 7.5 9C7.77614 9 8 9.22386 8 9.5ZM8 9.5C8 9.22386 8.22386 9 8.5 9C8.77614 9 9 9.22386 9 9.5C9 9.77614 8.77614 10 8.5 10C8.22386 10 8 9.77614 8 9.5Z" fill="#F8F8F8"/>
</svg>
