<svg width="16" height="16" viewBox="0 0 16 16" fill="none" xmlns="http://www.w3.org/2000/svg">
<path fill-rule="evenodd" clip-rule="evenodd" d="M8 2.5C8 2.22386 8.22386 2 8.5 2C8.77614 2 9 2.22386 9 2.5C9 2.77614 8.77614 3 8.5 3C8.22386 3 8 2.77614 8 2.5ZM7 2.5C7 2.22386 6.77614 2 6.5 2C6.22386 2 6 2.22386 6 2.5C6 2.77614 6.22386 3 6.5 3C6.77614 3 7 2.77614 7 2.5ZM7 2.5C7 2.77614 7.22386 3 7.5 3C7.77614 3 8 2.77614 8 2.5C8 2.22386 7.77614 2 7.5 2C7.22386 2 7 2.22386 7 2.5ZM9 2.5C9 2.22386 9.22386 2 9.5 2C9.77614 2 10 2.22386 10 2.5C10 2.77614 9.77614 3 9.5 3C9.22386 3 9 2.77614 9 2.5ZM4 4.5C4 4.22386 4.22386 4 4.5 4C4.77614 4 5 4.22386 5 4.5C5 4.77614 4.77614 5 4.5 5C4.22386 5 4 4.77614 4 4.5ZM4.5 5C4.77614 5 5 5.22386 5 5.5C5 5.77614 4.77614 6 4.5 6C4.22386 6 4 5.77614 4 5.5C4 5.22386 4.22386 5 4.5 5ZM6 4.5C6 4.77614 5.77614 5 5.5 5C5.22386 5 5 4.77614 5 4.5C5 4.22386 5.22386 4 5.5 4C5.77614 4 6 4.22386 6 4.5ZM7 4.5C7 4.77614 6.77614 5 6.5 5C6.22386 5 6 4.77614 6 4.5C6 4.22386 6.22386 4 6.5 4C6.77614 4 7 4.22386 7 4.5ZM8 4.5C8 4.77614 7.77614 5 7.5 5C7.22386 5 7 4.77614 7 4.5C7 4.22386 7.22386 4 7.5 4C7.77614 4 8 4.22386 8 4.5ZM9 4.5C9 4.77614 8.77614 5 8.5 5C8.22386 5 8 4.77614 8 4.5C8 4.22386 8.22386 4 8.5 4C8.77614 4 9 4.22386 9 4.5ZM10 4.5C10 4.77614 9.77614 5 9.5 5C9.22386 5 9 4.77614 9 4.5C9 4.22386 9.22386 4 9.5 4C9.77614 4 10 4.22386 10 4.5ZM11 4.5C11 4.77614 10.7761 5 10.5 5C10.2239 5 10 4.77614 10 4.5C10 4.22386 10.2239 4 10.5 4C10.7761 4 11 4.22386 11 4.5ZM11.5 5C11.2239 5 11 4.77614 11 4.5C11 4.22386 11.2239 4 11.5 4C11.7761 4 12 4.22386 12 4.5C12 4.77614 11.7761 5 11.5 5ZM11.5 5C11.7761 5 12 5.22386 12 5.5C12 5.77614 11.7761 6 11.5 6C11.2239 6 11 5.77614 11 5.5C11 5.22386 11.2239 5 11.5 5ZM5 6.5C5 6.22386 5.22386 6 5.5 6C5.77614 6 6 6.22386 6 6.5C6 6.77614 5.77614 7 5.5 7C5.22386 7 5 6.77614 5 6.5ZM6 7.5C6 7.22386 6.22386 7 6.5 7C6.77614 7 7 7.22386 7 7.5C7 7.77614 6.77614 8 6.5 8C6.22386 8 6 7.77614 6 7.5ZM6.5 9C6.22386 9 6 8.77614 6 8.5C6 8.22386 6.22386 8 6.5 8C6.77614 8 7 8.22386 7 8.5C7 8.77614 6.77614 9 6.5 9ZM6.5 10C6.22386 10 6 9.77614 6 9.5C6 9.22386 6.22386 9 6.5 9C6.77614 9 7 9.22386 7 9.5C7 9.77614 6.77614 10 6.5 10ZM7 10.5C7 10.2239 6.77614 10 6.5 10C6.22386 10 6 10.2239 6 10.5C6 10.7761 6.22386 11 6.5 11C6.22386 11 6 11.2239 6 11.5C6 11.7761 6.22386 12 6.5 12C6.22386 12 6 12.2239 6 12.5C6 12.7761 6.22386 13 6.5 13C6.77614 13 7 12.7761 7 12.5C7 12.7761 7.22386 13 7.5 13C7.77614 13 8 12.7761 8 12.5C8 12.7761 8.22386 13 8.5 13C8.77614 13 9 12.7761 9 12.5C9 12.7761 9.22386 13 9.5 13C9.77614 13 10 12.7761 10 12.5C10 12.2239 9.77614 12 9.5 12C9.77614 12 10 11.7761 10 11.5C10 11.2239 9.77614 11 9.5 11C9.77614 11 10 10.7761 10 10.5C10 10.2239 9.77614 10 9.5 10C9.77614 10 10 9.77614 10 9.5C10 9.22386 9.77614 9 9.5 9C9.77614 9 10 8.77614 10 8.5C10 8.22386 9.77614 8 9.5 8C9.77614 8 10 7.77614 10 7.5C10 7.22386 9.77614 7 9.5 7C9.22386 7 9 7.22386 9 7.5C9 7.22386 8.77614 7 8.5 7C8.22386 7 8 7.22386 8 7.5C8 7.22386 7.77614 7 7.5 7C7.22386 7 7 7.22386 7 7.5C7 7.77614 7.22386 8 7.5 8C7.77614 8 8 7.77614 8 7.5C8 7.77614 8.22386 8 8.5 8C8.77614 8 9 7.77614 9 7.5C9 7.77614 9.22386 8 9.5 8C9.22386 8 9 8.22386 9 8.5C9 8.77614 9.22386 9 9.5 9C9.22386 9 9 9.22386 9 9.5C9 9.77614 9.22386 10 9.5 10C9.22386 10 9 10.2239 9 10.5C9 10.2239 8.77614 10 8.5 10C8.22386 10 8 10.2239 8 10.5C8 10.2239 7.77614 10 7.5 10C7.22386 10 7 10.2239 7 10.5ZM7 10.5C7 10.7761 7.22386 11 7.5 11C7.77614 11 8 10.7761 8 10.5C8 10.7761 8.22386 11 8.5 11C8.77614 11 9 10.7761 9 10.5C9 10.7761 9.22386 11 9.5 11C9.22386 11 9 11.2239 9 11.5C9 11.7761 9.22386 12 9.5 12C9.22386 12 9 12.2239 9 12.5C9 12.2239 8.77614 12 8.5 12C8.22386 12 8 12.2239 8 12.5C8 12.2239 7.77614 12 7.5 12C7.22386 12 7 12.2239 7 12.5C7 12.2239 6.77614 12 6.5 12C6.77614 12 7 11.7761 7 11.5C7 11.2239 6.77614 11 6.5 11C6.77614 11 7 10.7761 7 10.5ZM10.5 6C10.2239 6 10 6.22386 10 6.5C10 6.77614 10.2239 7 10.5 7C10.7761 7 11 6.77614 11 6.5C11 6.22386 10.7761 6 10.5 6Z" fill="#F8F8F8"/>
</svg>
