<svg width="16" height="16" viewBox="0 0 16 16" fill="none" xmlns="http://www.w3.org/2000/svg">
<path fill-rule="evenodd" clip-rule="evenodd" d="M11.5 8C11.2239 8 11 7.77614 11 7.5C11 7.22386 11.2239 7 11.5 7C11.7761 7 12 7.22386 12 7.5C12 7.77614 11.7761 8 11.5 8ZM10 7.5C10 7.77614 10.2239 8 10.5 8C10.7761 8 11 7.77614 11 7.5C11 7.22386 10.7761 7 10.5 7C10.2239 7 10 7.22386 10 7.5ZM9.5 8C9.77614 8 10 7.77614 10 7.5C10 7.22386 9.77614 7 9.5 7C9.22386 7 9 7.22386 9 7.5C9 7.22386 8.77614 7 8.5 7C8.22386 7 8 7.22386 8 7.5C8 7.77614 8.22386 8 8.5 8C8.22386 8 8 8.22386 8 8.5C8 8.77614 8.22386 9 8.5 9C8.77614 9 9 8.77614 9 8.5C9 8.77614 9.22386 9 9.5 9C9.77614 9 10 8.77614 10 8.5C10 8.77614 10.2239 9 10.5 9C10.7761 9 11 8.77614 11 8.5C11 8.77614 11.2239 9 11.5 9C11.7761 9 12 8.77614 12 8.5C12 8.22386 11.7761 8 11.5 8C11.2239 8 11 8.22386 11 8.5C11 8.22386 10.7761 8 10.5 8C10.2239 8 10 8.22386 10 8.5C10 8.22386 9.77614 8 9.5 8ZM9.5 8C9.22386 8 9 8.22386 9 8.5C9 8.22386 8.77614 8 8.5 8C8.77614 8 9 7.77614 9 7.5C9 7.77614 9.22386 8 9.5 8ZM6 3.5C6 3.22386 5.77614 3 5.5 3C5.22386 3 5 3.22386 5 3.5C5 3.22386 4.77614 3 4.5 3C4.22386 3 4 3.22386 4 3.5C4 3.77614 4.22386 4 4.5 4C4.77614 4 5 3.77614 5 3.5C5 3.77614 5.22386 4 5.5 4C5.77614 4 6 3.77614 6 3.5ZM3.5 4C3.77614 4 4 4.22386 4 4.5C4 4.77614 3.77614 5 3.5 5C3.22386 5 3 4.77614 3 4.5C3 4.22386 3.22386 4 3.5 4ZM3.5 6C3.22386 6 3 5.77614 3 5.5C3 5.22386 3.22386 5 3.5 5C3.77614 5 4 5.22386 4 5.5C4 5.77614 3.77614 6 3.5 6ZM3.5 7C3.22386 7 3 6.77614 3 6.5C3 6.22386 3.22386 6 3.5 6C3.77614 6 4 6.22386 4 6.5C4 6.77614 3.77614 7 3.5 7ZM3.5 8C3.22386 8 3 7.77614 3 7.5C3 7.22386 3.22386 7 3.5 7C3.77614 7 4 7.22386 4 7.5C4 7.77614 3.77614 8 3.5 8ZM3.5 9C3.22386 9 3 8.77614 3 8.5C3 8.22386 3.22386 8 3.5 8C3.77614 8 4 8.22386 4 8.5C4 8.77614 3.77614 9 3.5 9ZM3.5 10C3.22386 10 3 9.77614 3 9.5C3 9.22386 3.22386 9 3.5 9C3.77614 9 4 9.22386 4 9.5C4 9.77614 3.77614 10 3.5 10ZM3.5 11C3.22386 11 3 10.7761 3 10.5C3 10.2239 3.22386 10 3.5 10C3.77614 10 4 10.2239 4 10.5C4 10.7761 3.77614 11 3.5 11ZM3.5 11C3.77614 11 4 11.2239 4 11.5C4 11.7761 3.77614 12 3.5 12C3.22386 12 3 11.7761 3 11.5C3 11.2239 3.22386 11 3.5 11ZM4.5 12C4.77614 12 5 12.2239 5 12.5C5 12.7761 4.77614 13 4.5 13C4.22386 13 4 12.7761 4 12.5C4 12.2239 4.22386 12 4.5 12ZM6 12.5C6 12.2239 5.77614 12 5.5 12C5.22386 12 5 12.2239 5 12.5C5 12.7761 5.22386 13 5.5 13C5.77614 13 6 12.7761 6 12.5ZM7.5 11C7.22386 11 7 10.7761 7 10.5C7 10.2239 7.22386 10 7.5 10C7.77614 10 8 10.2239 8 10.5C8 10.7761 7.77614 11 7.5 11ZM6 9.5C6 9.77614 6.22386 10 6.5 10C6.77614 10 7 9.77614 7 9.5C7 9.22386 6.77614 9 6.5 9C6.77614 9 7 8.77614 7 8.5C7 8.22386 6.77614 8 6.5 8C6.22386 8 6 8.22386 6 8.5C6 8.77612 6.22382 8.99996 6.49993 9C6.22382 9.00004 6 9.22388 6 9.5ZM5.5 9C5.22386 9 5 8.77614 5 8.5C5 8.22386 5.22386 8 5.5 8C5.77614 8 6 8.22386 6 8.5C6 8.77614 5.77614 9 5.5 9ZM5.5 8C5.22386 8 5 7.77614 5 7.5C5 7.22386 5.22386 7 5.5 7C5.77614 7 6 7.22386 6 7.5C6 7.77614 5.77614 8 5.5 8ZM6.5 7C6.22386 7 6 6.77614 6 6.5C6 6.22386 6.22386 6 6.5 6C6.77614 6 7 6.22386 7 6.5C7 6.77614 6.77614 7 6.5 7ZM7 5.5C7 5.77614 7.22386 6 7.5 6C7.77614 6 8 5.77614 8 5.5C8 5.22386 7.77614 5 7.5 5C7.22386 5 7 5.22386 7 5.5ZM6 7.5C6 7.77614 6.22386 8 6.5 8C6.77614 8 7 7.77614 7 7.5C7 7.22386 6.77614 7 6.5 7C6.22386 7 6 7.22386 6 7.5Z" fill="#F8F8F8"/>
</svg>
