<svg width="16" height="16" viewBox="0 0 16 16" fill="none" xmlns="http://www.w3.org/2000/svg">
<path fill-rule="evenodd" clip-rule="evenodd" d="M6.5 4C6.22386 4 6 4.22386 6 4.5C6 4.77614 6.22386 5 6.5 5C6.22386 5 6 5.22386 6 5.5C6 5.77614 6.22386 6 6.5 6C6.22386 6 6 6.22386 6 6.5C6 6.77614 6.22386 7 6.5 7C6.22386 7 6 7.22386 6 7.5C6 7.77614 6.22386 8 6.5 8C6.22386 8 6 8.22386 6 8.5C6 8.77614 6.22386 9 6.5 9C6.22386 9 6 9.22386 6 9.5C6 9.77614 6.22386 10 6.5 10C6.22386 10 6 10.2239 6 10.5C6 10.7761 6.22386 11 6.5 11C6.22386 11 6 11.2239 6 11.5C6 11.7761 6.22386 12 6.5 12C6.77614 12 7 11.7761 7 11.5C7 11.2239 6.77614 11 6.5 11C6.77614 11 7 10.7761 7 10.5C7 10.2239 6.77614 10 6.5 10C6.77614 10 7 9.77614 7 9.5C7 9.22386 6.77614 9 6.5 9C6.77614 9 7 8.77614 7 8.5C7 8.22386 6.77614 8 6.5 8C6.77614 8 7 7.77614 7 7.5C7 7.22386 6.77614 7 6.5 7C6.77614 7 7 6.77614 7 6.5C7 6.77614 7.22386 7 7.5 7C7.77614 7 8 6.77614 8 6.5C8 6.77614 8.22386 7 8.5 7C8.77614 7 9 6.77614 9 6.5C9 6.77614 9.22386 7 9.5 7C9.22386 7 9 7.22386 9 7.5C9 7.77614 9.22386 8 9.5 8C9.22386 8 9 8.22386 9 8.5C9 8.77614 9.22386 9 9.5 9C9.22386 9 9 9.22386 9 9.5C9 9.77614 9.22386 10 9.5 10C9.22386 10 9 10.2239 9 10.5C9 10.7761 9.22386 11 9.5 11C9.22386 11 9 11.2239 9 11.5C9 11.7761 9.22386 12 9.5 12C9.77614 12 10 11.7761 10 11.5C10 11.2239 9.77614 11 9.5 11C9.77614 11 10 10.7761 10 10.5C10 10.2239 9.77614 10 9.5 10C9.77614 10 10 9.77614 10 9.5C10 9.22386 9.77614 9 9.5 9C9.77614 9 10 8.77614 10 8.5C10 8.22386 9.77614 8 9.5 8C9.77614 8 10 7.77614 10 7.5C10 7.22386 9.77614 7 9.5 7C9.77614 7 10 6.77614 10 6.5C10 6.22386 9.77614 6 9.5 6C9.77614 6 10 5.77614 10 5.5C10 5.22386 9.77614 5 9.5 5C9.77614 5 10 4.77614 10 4.5C10 4.22386 9.77614 4 9.5 4C9.22386 4 9 4.22386 9 4.5C9 4.22386 8.77614 4 8.5 4C8.22386 4 8 4.22386 8 4.5C8 4.22386 7.77614 4 7.5 4C7.22386 4 7 4.22386 7 4.5C7 4.22386 6.77614 4 6.5 4ZM7 4.5C7 4.77614 7.22386 5 7.5 5C7.77614 5 8 4.77614 8 4.5C8 4.77614 8.22386 5 8.5 5C8.77614 5 9 4.77614 9 4.5C9 4.77614 9.22386 5 9.5 5C9.22386 5 9 5.22386 9 5.5C9 5.77614 9.22386 6 9.5 6C9.22386 6 9 6.22386 9 6.5C9 6.22386 8.77614 6 8.5 6C8.22386 6 8 6.22386 8 6.5C8 6.22386 7.77614 6 7.5 6C7.22386 6 7 6.22386 7 6.5C7 6.22386 6.77614 6 6.5 6C6.77614 6 7 5.77614 7 5.5C7 5.22386 6.77614 5 6.5 5C6.77614 5 7 4.77614 7 4.5ZM7 12.5C7 12.2239 7.22386 12 7.5 12C7.77614 12 8 12.2239 8 12.5C8 12.7761 7.77614 13 7.5 13C7.22386 13 7 12.7761 7 12.5ZM8 12.5C8 12.2239 8.22386 12 8.5 12C8.77614 12 9 12.2239 9 12.5C9 12.7761 8.77614 13 8.5 13C8.22386 13 8 12.7761 8 12.5Z" fill="#F8F8F8"/>
</svg>
