<svg width="16" height="16" viewBox="0 0 16 16" fill="none" xmlns="http://www.w3.org/2000/svg">
<path fill-rule="evenodd" clip-rule="evenodd" d="M4 3.5C4 3.22386 4.22386 3 4.5 3C4.77614 3 5 3.22386 5 3.5C5 3.77614 4.77614 4 4.5 4C4.22386 4 4 3.77614 4 3.5ZM6 3.5C6 3.77614 5.77614 4 5.5 4C5.22386 4 5 3.77614 5 3.5C5 3.22386 5.22386 3 5.5 3C5.77614 3 6 3.22386 6 3.5ZM7 3.5C7 3.77614 6.77614 4 6.5 4C6.22386 4 6 3.77614 6 3.5C6 3.22386 6.22386 3 6.5 3C6.77614 3 7 3.22386 7 3.5ZM8 3.5C8 3.77614 7.77614 4 7.5 4C7.22386 4 7 3.77614 7 3.5C7 3.22386 7.22386 3 7.5 3C7.77614 3 8 3.22386 8 3.5ZM9 3.5C9 3.77614 8.77614 4 8.5 4C8.22386 4 8 3.77614 8 3.5C8 3.22386 8.22386 3 8.5 3C8.77614 3 9 3.22386 9 3.5ZM10 3.5C10 3.77614 9.77614 4 9.5 4C9.22386 4 9 3.77614 9 3.5C9 3.22386 9.22386 3 9.5 3C9.77614 3 10 3.22386 10 3.5ZM11 3.5C11 3.77614 10.7761 4 10.5 4C10.2239 4 10 3.77614 10 3.5C10 3.22386 10.2239 3 10.5 3C10.7761 3 11 3.22386 11 3.5ZM11 3.5C11 3.22386 11.2239 3 11.5 3C11.7761 3 12 3.22386 12 3.5C12 3.77614 11.7761 4 11.5 4C11.2239 4 11 3.77614 11 3.5ZM3.5 4C3.22386 4 3 4.22386 3 4.5C3 4.77614 3.22386 5 3.5 5C3.22386 5 3 5.22386 3 5.5C3 5.77614 3.22386 6 3.5 6C3.22386 6 3 6.22386 3 6.5C3 6.77614 3.22386 7 3.5 7C3.22386 7 3 7.22386 3 7.5C3 7.77614 3.22386 8 3.5 8C3.22386 8 3 8.22386 3 8.5C3 8.77614 3.22386 9 3.5 9C3.22386 9 3 9.22386 3 9.5C3 9.77614 3.22386 10 3.5 10C3.22386 10 3 10.2239 3 10.5C3 10.7761 3.22386 11 3.5 11C3.22386 11 3 11.2239 3 11.5C3 11.7761 3.22386 12 3.5 12C3.77614 12 4 11.7761 4 11.5C4 11.7761 4.22386 12 4.5 12C4.22386 12 4 12.2239 4 12.5C4 12.7761 4.22386 13 4.5 13C4.77614 13 5 12.7761 5 12.5C5 12.7761 5.22386 13 5.5 13C5.77614 13 6 12.7761 6 12.5C6 12.7761 6.22386 13 6.5 13C6.77614 13 7 12.7761 7 12.5C7 12.7761 7.22386 13 7.5 13C7.77614 13 8 12.7761 8 12.5C8 12.7761 8.22386 13 8.5 13C8.77614 13 9 12.7761 9 12.5C9 12.7761 9.22386 13 9.5 13C9.77614 13 10 12.7761 10 12.5C10 12.7761 10.2239 13 10.5 13C10.7761 13 11 12.7761 11 12.5C11 12.7761 11.2239 13 11.5 13C11.7761 13 12 12.7761 12 12.5C12 12.2239 11.7761 12 11.5 12C11.7761 12 12 11.7761 12 11.5C12 11.7761 12.2239 12 12.5 12C12.7761 12 13 11.7761 13 11.5C13 11.2239 12.7761 11 12.5 11C12.7761 11 13 10.7761 13 10.5C13 10.2239 12.7761 10 12.5 10C12.7761 10 13 9.77614 13 9.5C13 9.22386 12.7761 9 12.5 9C12.7761 9 13 8.77614 13 8.5C13 8.22386 12.7761 8 12.5 8C12.7761 8 13 7.77614 13 7.5C13 7.22386 12.7761 7 12.5 7C12.7761 7 13 6.77614 13 6.5C13 6.22386 12.7761 6 12.5 6C12.7761 6 13 5.77614 13 5.5C13 5.22386 12.7761 5 12.5 5C12.7761 5 13 4.77614 13 4.5C13 4.22386 12.7761 4 12.5 4C12.2239 4 12 4.22386 12 4.5C12 4.77614 12.2239 5 12.5 5C12.2239 5 12 5.22386 12 5.5C12 5.77614 12.2239 6 12.5 6C12.2239 6 12 6.22386 12 6.5C12 6.77614 12.2239 7 12.5 7C12.2239 7 12 7.22386 12 7.5C12 7.77614 12.2239 8 12.5 8C12.2239 8 12 8.22386 12 8.5C12 8.77614 12.2239 9 12.5 9C12.2239 9 12 9.22386 12 9.5C12 9.77614 12.2239 10 12.5 10C12.2239 10 12 10.2239 12 10.5C12 10.7761 12.2239 11 12.5 11C12.2239 11 12 11.2239 12 11.5C12 11.2239 11.7761 11 11.5 11C11.2239 11 11 11.2239 11 11.5C11 11.7761 11.2239 12 11.5 12C11.2239 12 11 12.2239 11 12.5C11 12.2239 10.7761 12 10.5 12C10.2239 12 10 12.2239 10 12.5C10 12.2239 9.77614 12 9.5 12C9.22386 12 9 12.2239 9 12.5C9 12.2239 8.77614 12 8.5 12C8.22386 12 8 12.2239 8 12.5C8 12.2239 7.77614 12 7.5 12C7.22386 12 7 12.2239 7 12.5C7 12.2239 6.77614 12 6.5 12C6.22386 12 6 12.2239 6 12.5C6 12.2239 5.77614 12 5.5 12C5.22386 12 5 12.2239 5 12.5C5 12.2239 4.77614 12 4.5 12C4.77614 12 5 11.7761 5 11.5C5 11.2239 4.77614 11 4.5 11C4.22386 11 4 11.2239 4 11.5C4 11.2239 3.77614 11 3.5 11C3.77614 11 4 10.7761 4 10.5C4 10.2239 3.77614 10 3.5 10C3.77614 10 4 9.77614 4 9.5C4 9.22386 3.77614 9 3.5 9C3.77614 9 4 8.77614 4 8.5C4 8.22386 3.77614 8 3.5 8C3.77614 8 4 7.77614 4 7.5C4 7.22386 3.77614 7 3.5 7C3.77614 7 4 6.77614 4 6.5C4 6.22386 3.77614 6 3.5 6C3.77614 6 4 5.77614 4 5.5C4 5.22386 3.77614 5 3.5 5C3.77614 5 4 4.77614 4 4.5C4 4.22386 3.77614 4 3.5 4ZM5.5 10C5.22386 10 5 10.2239 5 10.5C5 10.7761 5.22386 11 5.5 11C5.77614 11 6 10.7761 6 10.5C6 10.2239 5.77614 10 5.5 10ZM6 9.5C6 9.22386 6.22386 9 6.5 9C6.77614 9 7 9.22386 7 9.5C7 9.77614 6.77614 10 6.5 10C6.22386 10 6 9.77614 6 9.5ZM8 9.5C8 9.77614 7.77614 10 7.5 10C7.22386 10 7 9.77614 7 9.5C7 9.22386 7.22386 9 7.5 9C7.77614 9 8 9.22386 8 9.5ZM8.5 9C8.22386 9 8 9.22386 8 9.5C8 9.77614 8.22386 10 8.5 10C8.77614 10 9 9.77614 9 9.5C9 9.77614 9.22386 10 9.5 10C9.77614 10 10 9.77614 10 9.5C10 9.22386 9.77614 9 9.5 9C9.77614 9 10 8.77614 10 8.5C10 8.22386 9.77614 8 9.5 8C9.22386 8 9 8.22386 9 8.5C9 8.22386 8.77614 8 8.5 8C8.22386 8 8 8.22386 8 8.5C8 8.77614 8.22386 9 8.5 9ZM8.5 9C8.77614 9 9 8.77614 9 8.5C9 8.77614 9.22386 9 9.5 9C9.22386 9 9 9.22386 9 9.5C9 9.22386 8.77614 9 8.5 9ZM10.5 10C10.2239 10 10 10.2239 10 10.5C10 10.7761 10.2239 11 10.5 11C10.7761 11 11 10.7761 11 10.5C11 10.2239 10.7761 10 10.5 10ZM5 5.5C5 5.22386 5.22386 5 5.5 5C5.77614 5 6 5.22386 6 5.5C6 5.77614 5.77614 6 5.5 6C5.22386 6 5 5.77614 5 5.5ZM6 6.5C6 6.77614 5.77614 7 5.5 7C5.22386 7 5 6.77614 5 6.5C5 6.22386 5.22386 6 5.5 6C5.77614 6 6 6.22386 6 6.5ZM6.5 7C6.22386 7 6 6.77614 6 6.5C6 6.22386 6.22386 6 6.5 6C6.77614 6 7 6.22386 7 6.5C7 6.77614 6.77614 7 6.5 7ZM6.5 5C6.22386 5 6 5.22386 6 5.5C6 5.77614 6.22386 6 6.5 6C6.77614 6 7 5.77614 7 5.5C7 5.22386 6.77614 5 6.5 5Z" fill="#F8F8F8"/>
</svg>
