<svg width="16" height="16" viewBox="0 0 16 16" fill="none" xmlns="http://www.w3.org/2000/svg">
<path fill-rule="evenodd" clip-rule="evenodd" d="M7 4.5C7 4.22386 7.22386 4 7.5 4C7.77614 4 8 4.22386 8 4.5C8 4.77614 7.77614 5 7.5 5C7.22386 5 7 4.77614 7 4.5ZM8 5.5C8 5.22386 7.77614 5 7.5 5C7.22386 5 7 5.22386 7 5.5C7 5.77614 7.22386 6 7.5 6C7.22386 6 7 6.22386 7 6.5C7 6.77614 7.22386 7 7.5 7C7.22386 7 7 7.22386 7 7.5C7 7.77614 7.22386 8 7.5 8C7.77614 8 8 7.77614 8 7.5C8 7.77614 8.22386 8 8.5 8C8.77614 8 9 7.77614 9 7.5C9 7.22386 8.77614 7 8.5 7C8.77614 7 9 6.77614 9 6.5C9 6.22386 8.77614 6 8.5 6C8.77614 6 9 5.77614 9 5.5C9 5.22386 8.77614 5 8.5 5C8.77614 5 9 4.77614 9 4.5C9 4.22386 8.77614 4 8.5 4C8.22386 4 8 4.22386 8 4.5C8 4.77614 8.22386 5 8.5 5C8.22386 5 8 5.22386 8 5.5ZM8 6.5C8 6.77614 7.77614 7 7.5 7C7.77614 7 8 7.22386 8 7.5C8 7.22386 8.22386 7 8.5 7C8.22386 7 8 6.77614 8 6.5ZM8 6.5C8 6.22386 8.22386 6 8.5 6C8.22386 6 8 5.77614 8 5.5C8 5.77614 7.77614 6 7.5 6C7.77614 6 8 6.22386 8 6.5ZM5 6.5C5 6.22386 5.22386 6 5.5 6C5.77614 6 6 6.22386 6 6.5C6 6.77614 5.77614 7 5.5 7C5.22386 7 5 6.77614 5 6.5ZM4 8.5C4 8.22386 4.22386 8 4.5 8C4.77614 8 5 8.22386 5 8.5C5 8.77614 4.77614 9 4.5 9C4.22386 9 4 8.77614 4 8.5ZM4.5 10C4.22386 10 4 9.77614 4 9.5C4 9.22386 4.22386 9 4.5 9C4.77614 9 5 9.22386 5 9.5C5 9.77614 4.77614 10 4.5 10ZM4.5 10C4.77614 10 5 10.2239 5 10.5C5 10.7761 4.77614 11 4.5 11C4.22386 11 4 10.7761 4 10.5C4 10.2239 4.22386 10 4.5 10ZM5 7.5C5 7.77614 4.77614 8 4.5 8C4.22386 8 4 7.77614 4 7.5C4 7.22386 4.22386 7 4.5 7C4.77614 7 5 7.22386 5 7.5ZM5 11.5C5 11.2239 5.22386 11 5.5 11C5.77614 11 6 11.2239 6 11.5C6 11.7761 5.77614 12 5.5 12C5.22386 12 5 11.7761 5 11.5ZM6 12.5C6 12.2239 6.22386 12 6.5 12C6.77614 12 7 12.2239 7 12.5C7 12.7761 6.77614 13 6.5 13C6.22386 13 6 12.7761 6 12.5ZM8 12.5C8 12.7761 7.77614 13 7.5 13C7.22386 13 7 12.7761 7 12.5C7 12.2239 7.22386 12 7.5 12C7.77614 12 8 12.2239 8 12.5ZM9 12.5C9 12.7761 8.77614 13 8.5 13C8.22386 13 8 12.7761 8 12.5C8 12.2239 8.22386 12 8.5 12C8.77614 12 9 12.2239 9 12.5ZM9 12.5C9 12.2239 9.22386 12 9.5 12C9.77614 12 10 12.2239 10 12.5C10 12.7761 9.77614 13 9.5 13C9.22386 13 9 12.7761 9 12.5ZM10.5 11C10.2239 11 10 11.2239 10 11.5C10 11.7761 10.2239 12 10.5 12C10.7761 12 11 11.7761 11 11.5C11 11.2239 10.7761 11 10.5 11ZM11.5 10C11.2239 10 11 10.2239 11 10.5C11 10.7761 11.2239 11 11.5 11C11.7761 11 12 10.7761 12 10.5C12 10.2239 11.7761 10 11.5 10ZM11.5 9C11.2239 9 11 8.77614 11 8.5C11 8.22386 11.2239 8 11.5 8C11.7761 8 12 8.22386 12 8.5C12 8.77614 11.7761 9 11.5 9ZM11.5 9C11.2239 9 11 9.22386 11 9.5C11 9.77614 11.2239 10 11.5 10C11.7761 10 12 9.77614 12 9.5C12 9.22386 11.7761 9 11.5 9ZM11.5 8C11.7761 8 12 7.77614 12 7.5C12 7.22386 11.7761 7 11.5 7C11.2239 7 11 7.22386 11 7.5C11 7.77614 11.2239 8 11.5 8ZM10.5 6C10.2239 6 10 6.22386 10 6.5C10 6.77614 10.2239 7 10.5 7C10.7761 7 11 6.77614 11 6.5C11 6.22386 10.7761 6 10.5 6Z" fill="#F8F8F8"/>
</svg>
