<svg width="16" height="16" viewBox="0 0 16 16" fill="none" xmlns="http://www.w3.org/2000/svg">
<path fill-rule="evenodd" clip-rule="evenodd" d="M3.5 3C3.22386 3 3 3.22386 3 3.5C3 3.77614 3.22386 4 3.5 4C3.77614 4 4 3.77614 4 3.5C4 3.22386 3.77614 3 3.5 3ZM4 4.5C4 4.22386 4.22386 4 4.5 4C4.77614 4 5 4.22386 5 4.5C5 4.77614 4.77614 5 4.5 5C4.22386 5 4 4.77614 4 4.5ZM9 5.5C9 5.22386 9.22386 5 9.5 5C9.77614 5 10 5.22386 10 5.5C10 5.77614 9.77614 6 9.5 6C9.22386 6 9 5.77614 9 5.5ZM8 5.5C8 5.22386 8.22386 5 8.5 5C8.77614 5 9 5.22386 9 5.5C9 5.77614 8.77614 6 8.5 6C8.22386 6 8 5.77614 8 5.5ZM7 5.5C7 5.22386 7.22386 5 7.5 5C7.77614 5 8 5.22386 8 5.5C8 5.77614 7.77614 6 7.5 6C7.22386 6 7 5.77614 7 5.5ZM6.5 5C6.77614 5 7 5.22386 7 5.5C7 5.77614 6.77614 6 6.5 6C6.22386 6 6 5.77614 6 5.5C6 5.22386 6.22386 5 6.5 5ZM5.5 6C5.22386 6 5 6.22386 5 6.5C5 6.77614 5.22386 7 5.5 7C5.22386 7 5 7.22386 5 7.5C5 7.77614 5.22386 8 5.5 8C5.22386 8 5 8.22386 5 8.5C5 8.77614 5.22386 9 5.5 9C5.22386 9 5 9.22386 5 9.5C5 9.77614 5.22386 10 5.5 10C5.77614 10 6 9.77614 6 9.5C6 9.22386 5.77614 9 5.5 9C5.77614 9 6 8.77614 6 8.5C6 8.22386 5.77614 8 5.5 8C5.77614 8 6 7.77614 6 7.5C6 7.22386 5.77614 7 5.5 7C5.77614 7 6 6.77614 6 6.5C6 6.22386 5.77614 6 5.5 6ZM6 10.5C6 10.2239 6.22386 10 6.5 10C6.77614 10 7 10.2239 7 10.5C7 10.7761 6.77614 11 6.5 11C6.22386 11 6 10.7761 6 10.5ZM8 10.5C8 10.7761 7.77614 11 7.5 11C7.22386 11 7 10.7761 7 10.5C7 10.2239 7.22386 10 7.5 10C7.77614 10 8 10.2239 8 10.5ZM9 10.5C9 10.7761 8.77614 11 8.5 11C8.22386 11 8 10.7761 8 10.5C8 10.2239 8.22386 10 8.5 10C8.77614 10 9 10.2239 9 10.5ZM9 10.5C9 10.2239 9.22386 10 9.5 10C9.77614 10 10 10.2239 10 10.5C10 10.7761 9.77614 11 9.5 11C9.22386 11 9 10.7761 9 10.5ZM10 9.5C10 9.22386 10.2239 9 10.5 9C10.7761 9 11 9.22386 11 9.5C11 9.77614 10.7761 10 10.5 10C10.2239 10 10 9.77614 10 9.5ZM10.5 8C10.2239 8 10 7.77614 10 7.5C10 7.22386 10.2239 7 10.5 7C10.7761 7 11 7.22386 11 7.5C11 7.77614 10.7761 8 10.5 8ZM10.5 8C10.2239 8 10 8.22386 10 8.5C10 8.77614 10.2239 9 10.5 9C10.7761 9 11 8.77614 11 8.5C11 8.22386 10.7761 8 10.5 8ZM10.5 6C10.2239 6 10 6.22386 10 6.5C10 6.77614 10.2239 7 10.5 7C10.7761 7 11 6.77614 11 6.5C11 6.22386 10.7761 6 10.5 6ZM11 4.5C11 4.22386 11.2239 4 11.5 4C11.7761 4 12 4.22386 12 4.5C12 4.77614 11.7761 5 11.5 5C11.2239 5 11 4.77614 11 4.5ZM12.5 3C12.2239 3 12 3.22386 12 3.5C12 3.77614 12.2239 4 12.5 4C12.7761 4 13 3.77614 13 3.5C13 3.22386 12.7761 3 12.5 3ZM11 11.5C11 11.2239 11.2239 11 11.5 11C11.7761 11 12 11.2239 12 11.5C12 11.7761 11.7761 12 11.5 12C11.2239 12 11 11.7761 11 11.5ZM12.5 12C12.2239 12 12 12.2239 12 12.5C12 12.7761 12.2239 13 12.5 13C12.7761 13 13 12.7761 13 12.5C13 12.2239 12.7761 12 12.5 12ZM4 11.5C4 11.2239 4.22386 11 4.5 11C4.77614 11 5 11.2239 5 11.5C5 11.7761 4.77614 12 4.5 12C4.22386 12 4 11.7761 4 11.5ZM3.5 12C3.22386 12 3 12.2239 3 12.5C3 12.7761 3.22386 13 3.5 13C3.77614 13 4 12.7761 4 12.5C4 12.2239 3.77614 12 3.5 12ZM7 7.5C7 7.22386 7.22386 7 7.5 7C7.77614 7 8 7.22386 8 7.5C8 7.77614 7.77614 8 7.5 8C7.22386 8 7 7.77614 7 7.5ZM8 8.5C8 8.77614 7.77614 9 7.5 9C7.22386 9 7 8.77614 7 8.5C7 8.22386 7.22386 8 7.5 8C7.77614 8 8 8.22386 8 8.5ZM8.5 8C8.77614 8 9 7.77614 9 7.5C9 7.22386 8.77614 7 8.5 7C8.22386 7 8 7.22386 8 7.5C8 7.77614 8.22386 8 8.5 8ZM8.5 8C8.22386 8 8 8.22386 8 8.5C8 8.77614 8.22386 9 8.5 9C8.77614 9 9 8.77614 9 8.5C9 8.22386 8.77614 8 8.5 8Z" fill="#F8F8F8"/>
</svg>
