<svg width="16" height="16" viewBox="0 0 16 16" fill="none" xmlns="http://www.w3.org/2000/svg">
<path fill-rule="evenodd" clip-rule="evenodd" d="M5 3.5C5 3.22386 5.22386 3 5.5 3C5.77614 3 6 3.22386 6 3.5C6 3.77614 5.77614 4 5.5 4C5.22386 4 5 3.77614 5 3.5ZM7 3.5C7 3.77614 6.77614 4 6.5 4C6.22386 4 6 3.77614 6 3.5C6 3.22386 6.22386 3 6.5 3C6.77614 3 7 3.22386 7 3.5ZM8 3.5C8 3.77614 7.77614 4 7.5 4C7.22386 4 7 3.77614 7 3.5C7 3.22386 7.22386 3 7.5 3C7.77614 3 8 3.22386 8 3.5ZM9 3.5C9 3.77614 8.77614 4 8.5 4C8.22386 4 8 3.77614 8 3.5C8 3.22386 8.22386 3 8.5 3C8.77614 3 9 3.22386 9 3.5ZM10 3.5C10 3.77614 9.77614 4 9.5 4C9.22386 4 9 3.77614 9 3.5C9 3.22386 9.22386 3 9.5 3C9.77614 3 10 3.22386 10 3.5ZM10 3.5C10 3.22386 10.2239 3 10.5 3C10.7761 3 11 3.22386 11 3.5C11 3.77614 10.7761 4 10.5 4C10.2239 4 10 3.77614 10 3.5ZM4 4.5C4 4.22386 4.22386 4 4.5 4C4.77614 4 5 4.22386 5 4.5C5 4.77614 4.77614 5 4.5 5C4.22386 5 4 4.77614 4 4.5ZM4.5 6C4.22386 6 4 5.77614 4 5.5C4 5.22386 4.22386 5 4.5 5C4.77614 5 5 5.22386 5 5.5C5 5.77614 4.77614 6 4.5 6ZM4.5 7C4.22386 7 4 6.77614 4 6.5C4 6.22386 4.22386 6 4.5 6C4.77614 6 5 6.22386 5 6.5C5 6.77614 4.77614 7 4.5 7ZM4.5 8C4.22386 8 4 7.77614 4 7.5C4 7.22386 4.22386 7 4.5 7C4.77614 7 5 7.22386 5 7.5C5 7.77614 4.77614 8 4.5 8ZM4.5 9C4.22386 9 4 8.77614 4 8.5C4 8.22386 4.22386 8 4.5 8C4.77614 8 5 8.22386 5 8.5C5 8.77614 4.77614 9 4.5 9ZM4.5 10C4.22386 10 4 9.77614 4 9.5C4 9.22386 4.22386 9 4.5 9C4.77614 9 5 9.22386 5 9.5C5 9.77614 4.77614 10 4.5 10ZM4.5 11C4.22386 11 4 10.7761 4 10.5C4 10.2239 4.22386 10 4.5 10C4.77614 10 5 10.2239 5 10.5C5 10.7761 4.77614 11 4.5 11ZM4.5 11C4.77614 11 5 11.2239 5 11.5C5 11.7761 4.77614 12 4.5 12C4.22386 12 4 11.7761 4 11.5C4 11.2239 4.22386 11 4.5 11ZM11.5 4C11.2239 4 11 4.22386 11 4.5C11 4.77614 11.2239 5 11.5 5C11.2239 5 11 5.22386 11 5.5C11 5.77614 11.2239 6 11.5 6C11.2239 6 11 6.22386 11 6.5C11 6.77614 11.2239 7 11.5 7C11.2239 7 11 7.22386 11 7.5C11 7.77614 11.2239 8 11.5 8C11.2239 8 11 8.22386 11 8.5C11 8.77614 11.2239 9 11.5 9C11.2239 9 11 9.22386 11 9.5C11 9.77614 11.2239 10 11.5 10C11.2239 10 11 10.2239 11 10.5C11 10.7761 11.2239 11 11.5 11C11.2239 11 11 11.2239 11 11.5C11 11.7761 11.2239 12 11.5 12C11.7761 12 12 11.7761 12 11.5C12 11.2239 11.7761 11 11.5 11C11.7761 11 12 10.7761 12 10.5C12 10.2239 11.7761 10 11.5 10C11.7761 10 12 9.77614 12 9.5C12 9.22386 11.7761 9 11.5 9C11.7761 9 12 8.77614 12 8.5C12 8.22386 11.7761 8 11.5 8C11.7761 8 12 7.77614 12 7.5C12 7.22386 11.7761 7 11.5 7C11.7761 7 12 6.77614 12 6.5C12 6.22386 11.7761 6 11.5 6C11.7761 6 12 5.77614 12 5.5C12 5.22386 11.7761 5 11.5 5C11.7761 5 12 4.77614 12 4.5C12 4.22386 11.7761 4 11.5 4ZM5 12.5C5 12.2239 5.22386 12 5.5 12C5.77614 12 6 12.2239 6 12.5C6 12.7761 5.77614 13 5.5 13C5.22386 13 5 12.7761 5 12.5ZM7 12.5C7 12.7761 6.77614 13 6.5 13C6.22386 13 6 12.7761 6 12.5C6 12.2239 6.22386 12 6.5 12C6.77614 12 7 12.2239 7 12.5ZM8 12.5C8 12.7761 7.77614 13 7.5 13C7.22386 13 7 12.7761 7 12.5C7 12.2239 7.22386 12 7.5 12C7.77614 12 8 12.2239 8 12.5ZM9 12.5C9 12.7761 8.77614 13 8.5 13C8.22386 13 8 12.7761 8 12.5C8 12.2239 8.22386 12 8.5 12C8.77614 12 9 12.2239 9 12.5ZM10 12.5C10 12.7761 9.77614 13 9.5 13C9.22386 13 9 12.7761 9 12.5C9 12.2239 9.22386 12 9.5 12C9.77614 12 10 12.2239 10 12.5ZM10 12.5C10 12.2239 10.2239 12 10.5 12C10.7761 12 11 12.2239 11 12.5C11 12.7761 10.7761 13 10.5 13C10.2239 13 10 12.7761 10 12.5ZM6 9.5C6 9.22386 6.22386 9 6.5 9C6.77614 9 7 9.22386 7 9.5C7 9.77614 6.77614 10 6.5 10C6.22386 10 6 9.77614 6 9.5ZM9.5 9C9.22386 9 9 9.22386 9 9.5C9 9.77614 9.22386 10 9.5 10C9.77614 10 10 9.77614 10 9.5C10 9.22386 9.77614 9 9.5 9ZM7 10.5C7 10.2239 7.22386 10 7.5 10C7.77614 10 8 10.2239 8 10.5C8 10.7761 7.77614 11 7.5 11C7.22386 11 7 10.7761 7 10.5ZM8 10.5C8 10.2239 8.22386 10 8.5 10C8.77614 10 9 10.2239 9 10.5C9 10.7761 8.77614 11 8.5 11C8.22386 11 8 10.7761 8 10.5ZM7 8.5C7 8.22386 7.22386 8 7.5 8C7.77614 8 8 8.22386 8 8.5C8 8.77614 7.77614 9 7.5 9C7.22386 9 7 8.77614 7 8.5ZM8 8.5C8 8.22386 8.22386 8 8.5 8C8.77614 8 9 8.22386 9 8.5C9 8.77614 8.77614 9 8.5 9C8.22386 9 8 8.77614 8 8.5ZM7 5.5C7 5.22386 7.22386 5 7.5 5C7.77614 5 8 5.22386 8 5.5C8 5.77614 7.77614 6 7.5 6C7.22386 6 7 5.77614 7 5.5ZM8 5.5C8 5.77614 8.22386 6 8.5 6C8.77614 6 9 5.77614 9 5.5C9 5.22386 8.77614 5 8.5 5C8.22386 5 8 5.22386 8 5.5Z" fill="#F8F8F8"/>
</svg>
