<svg width="16" height="16" viewBox="0 0 16 16" fill="none" xmlns="http://www.w3.org/2000/svg">
<path fill-rule="evenodd" clip-rule="evenodd" d="M7 3.5C7 3.22386 7.22386 3 7.5 3C7.77614 3 8 3.22386 8 3.5C8 3.77614 7.77614 4 7.5 4C7.22386 4 7 3.77614 7 3.5ZM8 3.5C8 3.77614 8.22386 4 8.5 4C8.77614 4 9 3.77614 9 3.5C9 3.22386 8.77614 3 8.5 3C8.22386 3 8 3.22386 8 3.5ZM6 4.5C6 4.22386 6.22386 4 6.5 4C6.77614 4 7 4.22386 7 4.5C7 4.77614 6.77614 5 6.5 5C6.22386 5 6 4.77614 6 4.5ZM6.5 5C6.77614 5 7 5.22386 7 5.5C7 5.77614 6.77614 6 6.5 6C6.22386 6 6 5.77614 6 5.5C6 5.22386 6.22386 5 6.5 5ZM5 9.5C5 9.22386 5.22386 9 5.5 9C5.77614 9 6 9.22386 6 9.5C6 9.77614 5.77614 10 5.5 10C5.22386 10 5 9.77614 5 9.5ZM7 9.5C7 9.77614 6.77614 10 6.5 10C6.22386 10 6 9.77614 6 9.5C6 9.22386 6.22386 9 6.5 9C6.77614 9 7 9.22386 7 9.5ZM8 9.5C8 9.77614 7.77614 10 7.5 10C7.22386 10 7 9.77614 7 9.5C7 9.22386 7.22386 9 7.5 9C7.77614 9 8 9.22386 8 9.5ZM9 9.5C9 9.77614 8.77614 10 8.5 10C8.22386 10 8 9.77614 8 9.5C8 9.22386 8.22386 9 8.5 9C8.77614 9 9 9.22386 9 9.5ZM10 9.5C10 9.77614 9.77614 10 9.5 10C9.22386 10 9 9.77614 9 9.5C9 9.22386 9.22386 9 9.5 9C9.77614 9 10 9.22386 10 9.5ZM10 9.5C10 9.22386 10.2239 9 10.5 9C10.7761 9 11 9.22386 11 9.5C11 9.77614 10.7761 10 10.5 10C10.2239 10 10 9.77614 10 9.5ZM4 10.5C4 10.2239 4.22386 10 4.5 10C4.77614 10 5 10.2239 5 10.5C5 10.7761 4.77614 11 4.5 11C4.22386 11 4 10.7761 4 10.5ZM4.5 11C4.77614 11 5 11.2239 5 11.5C5 11.7761 4.77614 12 4.5 12C4.22386 12 4 11.7761 4 11.5C4 11.2239 4.22386 11 4.5 11ZM5.5 12C5.22386 12 5 12.2239 5 12.5C5 12.7761 5.22386 13 5.5 13C5.77614 13 6 12.7761 6 12.5C6 12.7761 6.22386 13 6.5 13C6.77614 13 7 12.7761 7 12.5C7 12.7761 7.22386 13 7.5 13C7.77614 13 8 12.7761 8 12.5C8 12.7761 8.22386 13 8.5 13C8.77614 13 9 12.7761 9 12.5C9 12.7761 9.22386 13 9.5 13C9.77614 13 10 12.7761 10 12.5C10 12.7761 10.2239 13 10.5 13C10.7761 13 11 12.7761 11 12.5C11 12.2239 10.7761 12 10.5 12C10.2239 12 10 12.2239 10 12.5C10 12.2239 9.77614 12 9.5 12C9.22386 12 9 12.2239 9 12.5C9 12.2239 8.77614 12 8.5 12C8.22386 12 8 12.2239 8 12.5C8 12.2239 7.77614 12 7.5 12C7.22386 12 7 12.2239 7 12.5C7 12.2239 6.77614 12 6.5 12C6.22386 12 6 12.2239 6 12.5C6 12.2239 5.77614 12 5.5 12ZM11.5 11C11.2239 11 11 11.2239 11 11.5C11 11.7761 11.2239 12 11.5 12C11.7761 12 12 11.7761 12 11.5C12 11.2239 11.7761 11 11.5 11ZM11.5 11C11.2239 11 11 10.7761 11 10.5C11 10.2239 11.2239 10 11.5 10C11.7761 10 12 10.2239 12 10.5C12 10.7761 11.7761 11 11.5 11ZM9.5 4C9.22386 4 9 4.22386 9 4.5C9 4.77614 9.22386 5 9.5 5C9.22386 5 9 5.22386 9 5.5C9 5.77614 9.22386 6 9.5 6C9.77614 6 10 5.77614 10 5.5C10 5.22386 9.77614 5 9.5 5C9.77614 5 10 4.77614 10 4.5C10 4.22386 9.77614 4 9.5 4ZM7 6.5C7 6.22386 7.22386 6 7.5 6C7.77614 6 8 6.22386 8 6.5C8 6.77614 7.77614 7 7.5 7C7.22386 7 7 6.77614 7 6.5ZM8 6.5C8 6.22386 8.22386 6 8.5 6C8.77614 6 9 6.22386 9 6.5C9 6.77614 8.77614 7 8.5 7C8.22386 7 8 6.77614 8 6.5Z" fill="#F8F8F8"/>
</svg>
